<svg xmlns="http://www.w3.org/2000/svg" xmlns:xlink="http://www.w3.org/1999/xlink" viewBox="0 0 1293.8 1030"><defs><style>.cls-1,.cls-8{fill:#067f43;}.cls-1{opacity:0.13;}.cls-2{fill:url(#linear-gradient);}.cls-3{fill:url(#linear-gradient-2);}.cls-4{fill:url(#linear-gradient-3);}.cls-5{fill:url(#linear-gradient-4);}.cls-6{fill:url(#linear-gradient-5);}.cls-7{opacity:0.33;}.cls-9{fill:url(#linear-gradient-6);}.cls-10{fill:#05c36b;}.cls-11,.cls-15,.cls-16,.cls-17{fill:#fff;}.cls-12{fill:url(#linear-gradient-7);}.cls-13{fill:url(#linear-gradient-8);}.cls-14{fill:#12e079;}.cls-15{opacity:0.54;}.cls-16{opacity:0.36;}.cls-17{opacity:0.26;}.cls-18{fill:url(#linear-gradient-9);}.cls-19{fill:url(#linear-gradient-10);}.cls-20{fill:url(#linear-gradient-11);}.cls-21{fill:url(#linear-gradient-12);}.cls-22{fill:url(#linear-gradient-13);}.cls-23{fill:url(#linear-gradient-14);}.cls-24{fill:url(#linear-gradient-15);}.cls-25{fill:url(#linear-gradient-16);}.cls-26{fill:url(#linear-gradient-17);}.cls-27{fill:#febe40;}.cls-28{fill:#17aa60;}.cls-29{fill:url(#linear-gradient-18);}.cls-30{fill:url(#linear-gradient-19);}.cls-31{fill:url(#linear-gradient-20);}.cls-32{fill:url(#linear-gradient-21);}.cls-33{fill:url(#linear-gradient-22);}.cls-34{fill:url(#linear-gradient-23);}.cls-35{fill:url(#linear-gradient-24);}.cls-36{fill:url(#linear-gradient-25);}.cls-37{fill:url(#linear-gradient-26);}.cls-38{fill:url(#linear-gradient-27);}.cls-39{fill:url(#linear-gradient-28);}.cls-40{fill:url(#linear-gradient-29);}.cls-41{fill:url(#linear-gradient-30);}.cls-42{fill:url(#linear-gradient-31);}.cls-43{fill:url(#linear-gradient-32);}.cls-44{fill:#50ef9f;}.cls-45{fill:url(#linear-gradient-33);}.cls-46{fill:url(#linear-gradient-34);}.cls-47{fill:url(#linear-gradient-35);}.cls-48{fill:url(#linear-gradient-36);}.cls-49{fill:url(#linear-gradient-37);}.cls-50{fill:#fed330;}.cls-51{fill:url(#linear-gradient-38);}.cls-52{fill:#87f4bb;}.cls-53{fill:url(#linear-gradient-39);}.cls-54{fill:url(#linear-gradient-40);}.cls-55{fill:url(#linear-gradient-41);}.cls-56{fill:url(#linear-gradient-42);}.cls-57{fill:url(#linear-gradient-43);}.cls-58{fill:url(#linear-gradient-44);}.cls-59{fill:url(#linear-gradient-45);}.cls-60{fill:url(#linear-gradient-46);}.cls-61{fill:url(#linear-gradient-47);}.cls-62{fill:url(#linear-gradient-48);}.cls-63{fill:url(#linear-gradient-49);}.cls-64{fill:url(#linear-gradient-50);}.cls-65{fill:url(#linear-gradient-51);}.cls-66{fill:url(#linear-gradient-52);}.cls-67{fill:url(#linear-gradient-53);}.cls-68{fill:url(#linear-gradient-54);}.cls-69{fill:url(#linear-gradient-55);}.cls-70{fill:url(#linear-gradient-56);}.cls-71{fill:url(#linear-gradient-57);}.cls-72{fill:url(#linear-gradient-58);}.cls-73{fill:url(#linear-gradient-59);}.cls-74{fill:url(#linear-gradient-60);}.cls-75{fill:url(#linear-gradient-61);}.cls-76{fill:url(#linear-gradient-62);}.cls-77{fill:url(#linear-gradient-63);}.cls-78{fill:url(#linear-gradient-64);}.cls-79{fill:url(#linear-gradient-65);}.cls-80{fill:url(#linear-gradient-66);}.cls-81{fill:none;}</style><linearGradient id="linear-gradient" x1="1102.14" y1="-394.13" x2="523.91" y2="988.13" gradientUnits="userSpaceOnUse"><stop offset="0" stop-color="#12e079"/><stop offset="1" stop-color="#067f43"/></linearGradient><linearGradient id="linear-gradient-2" x1="631.78" y1="832.05" x2="1184.07" y2="832.05" gradientUnits="userSpaceOnUse"><stop offset="0" stop-color="#067f43"/><stop offset="1" stop-color="#12e079"/></linearGradient><linearGradient id="linear-gradient-3" x1="594.81" y1="653.98" x2="1677.39" y2="653.98" xlink:href="#linear-gradient-2"/><linearGradient id="linear-gradient-4" x1="790.81" y1="153.12" x2="501.55" y2="697.18" gradientUnits="userSpaceOnUse"><stop offset="0" stop-color="#fff"/><stop offset="1" stop-color="#baf7d5"/></linearGradient><linearGradient id="linear-gradient-5" x1="801.56" y1="158.83" x2="512.3" y2="702.89" xlink:href="#linear-gradient-4"/><linearGradient id="linear-gradient-6" x1="762.79" y1="246.87" x2="651.29" y2="404.05" gradientUnits="userSpaceOnUse"><stop offset="0" stop-color="#fed330"/><stop offset="1" stop-color="#febe40"/></linearGradient><linearGradient id="linear-gradient-7" x1="950.76" y1="807.91" x2="1213.72" y2="895.39" gradientUnits="userSpaceOnUse"><stop offset="0" stop-color="#067f43" stop-opacity="0"/><stop offset="1" stop-color="#067f43"/></linearGradient><linearGradient id="linear-gradient-8" x1="842.71" y1="817.58" x2="1098.77" y2="911.84" xlink:href="#linear-gradient-7"/><linearGradient id="linear-gradient-9" x1="1000.82" y1="837.29" x2="1107.67" y2="731.45" gradientUnits="userSpaceOnUse"><stop offset="0" stop-color="#baf7d5"/><stop offset="1" stop-color="#fff"/></linearGradient><linearGradient id="linear-gradient-10" x1="1005.36" y1="833.18" x2="1069.82" y2="833.18" gradientUnits="userSpaceOnUse"><stop offset="0" stop-color="#febe40"/><stop offset="1" stop-color="#fed330"/></linearGradient><linearGradient id="linear-gradient-11" x1="1061.16" y1="842.47" x2="1126.43" y2="842.47" xlink:href="#linear-gradient-10"/><linearGradient id="linear-gradient-12" x1="1115.38" y1="610.33" x2="963.38" y2="742.26" xlink:href="#linear-gradient"/><linearGradient id="linear-gradient-13" x1="907.51" y1="833.22" x2="1010.84" y2="756.97" xlink:href="#linear-gradient-9"/><linearGradient id="linear-gradient-14" x1="893.97" y1="838.36" x2="958.43" y2="838.36" xlink:href="#linear-gradient-10"/><linearGradient id="linear-gradient-15" x1="939.99" y1="848.77" x2="1005.26" y2="848.77" xlink:href="#linear-gradient-10"/><linearGradient id="linear-gradient-16" x1="1061.64" y1="613.97" x2="909.65" y2="745.9" xlink:href="#linear-gradient"/><linearGradient id="linear-gradient-17" x1="1019.15" y1="648.55" x2="997.81" y2="736.35" gradientUnits="userSpaceOnUse"><stop offset="0" stop-color="#067f43"/><stop offset="1" stop-color="#17aa60" stop-opacity="0"/></linearGradient><linearGradient id="linear-gradient-18" x1="1023.41" y1="660.24" x2="1047.59" y2="594.14" gradientTransform="translate(88.9 -112.2) rotate(7.7)" xlink:href="#linear-gradient-2"/><linearGradient id="linear-gradient-19" x1="928.55" y1="756.07" x2="960.06" y2="695.11" xlink:href="#linear-gradient-2"/><linearGradient id="linear-gradient-20" x1="982.81" y1="687.75" x2="908.93" y2="722.32" xlink:href="#linear-gradient"/><linearGradient id="linear-gradient-21" x1="942.34" y1="789.34" x2="993.51" y2="735.16" xlink:href="#linear-gradient-2"/><linearGradient id="linear-gradient-22" x1="1036.68" y1="787.44" x2="1060.76" y2="690.75" xlink:href="#linear-gradient-2"/><linearGradient id="linear-gradient-23" x1="978.32" y1="466.79" x2="918.5" y2="338.88" xlink:href="#linear-gradient-9"/><linearGradient id="linear-gradient-24" x1="1044.94" y1="471.4" x2="976.22" y2="604.33" xlink:href="#linear-gradient-6"/><linearGradient id="linear-gradient-25" x1="980.83" y1="431.95" x2="1016.5" y2="407.93" xlink:href="#linear-gradient-9"/><linearGradient id="linear-gradient-26" x1="963.88" y1="457.4" x2="1026.52" y2="418.46" gradientUnits="userSpaceOnUse"><stop offset="0" stop-color="#fed330"/><stop offset="1" stop-color="#faf39d"/></linearGradient><linearGradient id="linear-gradient-27" x1="987.9" y1="529.71" x2="1003.7" y2="408.07" xlink:href="#linear-gradient-2"/><linearGradient id="linear-gradient-28" x1="959.8" y1="501.09" x2="998.55" y2="458.58" gradientUnits="userSpaceOnUse"><stop offset="0" stop-color="#067f43" stop-opacity="0"/><stop offset="1" stop-color="#12e079"/></linearGradient><linearGradient id="linear-gradient-29" x1="1043.94" y1="364.81" x2="1064.75" y2="307.53" gradientTransform="matrix(0.84, 0.55, -0.55, 0.84, 324.1, -405.27)" gradientUnits="userSpaceOnUse"><stop offset="0" stop-color="#067f43"/><stop offset="1" stop-color="#12e079" stop-opacity="0"/></linearGradient><linearGradient id="linear-gradient-30" x1="1008.55" y1="620.97" x2="1054.07" y2="367.39" xlink:href="#linear-gradient-2"/><linearGradient id="linear-gradient-31" x1="1018.32" y1="603.58" x2="1043.42" y2="463.77" xlink:href="#linear-gradient-2"/><linearGradient id="linear-gradient-32" x1="1019.51" y1="622.93" x2="1065.04" y2="369.36" xlink:href="#linear-gradient-2"/><linearGradient id="linear-gradient-33" x1="934.65" y1="485.99" x2="875.46" y2="359.42" xlink:href="#linear-gradient-9"/><linearGradient id="linear-gradient-34" x1="911.12" y1="375.57" x2="904.23" y2="401.66" xlink:href="#linear-gradient"/><linearGradient id="linear-gradient-35" x1="910.79" y1="375.48" x2="903.89" y2="401.57" xlink:href="#linear-gradient"/><linearGradient id="linear-gradient-36" x1="910.46" y1="375.4" x2="903.56" y2="401.48" xlink:href="#linear-gradient"/><linearGradient id="linear-gradient-37" x1="907.88" y1="374.71" x2="900.98" y2="400.8" xlink:href="#linear-gradient"/><linearGradient id="linear-gradient-38" x1="766.67" y1="575.26" x2="730.18" y2="614.77" xlink:href="#linear-gradient-4"/><linearGradient id="linear-gradient-39" x1="747.14" y1="592.89" x2="703.13" y2="634.09" xlink:href="#linear-gradient-4"/><linearGradient id="linear-gradient-40" x1="745.23" y1="590.85" x2="701.21" y2="632.04" xlink:href="#linear-gradient-4"/><linearGradient id="linear-gradient-41" x1="945.76" y1="376.2" x2="952.28" y2="396.26" xlink:href="#linear-gradient"/><linearGradient id="linear-gradient-42" x1="954.1" y1="397.87" x2="942.82" y2="366.08" gradientUnits="userSpaceOnUse"><stop offset="0" stop-color="#05c36b"/><stop offset="1" stop-color="#baf7d5"/></linearGradient><linearGradient id="linear-gradient-43" x1="984.49" y1="439.9" x2="976.96" y2="368.41" xlink:href="#linear-gradient-9"/><linearGradient id="linear-gradient-44" x1="955.2" y1="455.28" x2="988.55" y2="376.52" xlink:href="#linear-gradient"/><linearGradient id="linear-gradient-45" x1="949.15" y1="375.09" x2="955.67" y2="395.16" xlink:href="#linear-gradient"/><linearGradient id="linear-gradient-46" x1="967.35" y1="410.71" x2="980.39" y2="379.11" xlink:href="#linear-gradient-42"/><linearGradient id="linear-gradient-47" x1="972.34" y1="387.7" x2="962.56" y2="434.6" xlink:href="#linear-gradient"/><linearGradient id="linear-gradient-48" x1="981.84" y1="384.87" x2="1046.53" y2="384.87" xlink:href="#linear-gradient-6"/><linearGradient id="linear-gradient-49" x1="1042.16" y1="373.55" x2="989.87" y2="396.69" xlink:href="#linear-gradient-6"/><linearGradient id="linear-gradient-50" x1="951.86" y1="364.19" x2="1023.27" y2="364.19" xlink:href="#linear-gradient-6"/><linearGradient id="linear-gradient-51" x1="1020.22" y1="338.08" x2="967.93" y2="382.85" gradientUnits="userSpaceOnUse"><stop offset="0" stop-color="#faf39d"/><stop offset="1" stop-color="#fed330"/></linearGradient><linearGradient id="linear-gradient-52" x1="961.89" y1="393.03" x2="955.24" y2="354.28" xlink:href="#linear-gradient-6"/><linearGradient id="linear-gradient-53" x1="914.45" y1="376.32" x2="898.77" y2="391.31" xlink:href="#linear-gradient-42"/><linearGradient id="linear-gradient-54" x1="986.85" y1="590.98" x2="1006.16" y2="519.24" xlink:href="#linear-gradient-2"/><linearGradient id="linear-gradient-55" x1="982.49" y1="586.25" x2="996.41" y2="537.34" xlink:href="#linear-gradient-2"/><linearGradient id="linear-gradient-56" x1="1021.18" y1="603.98" x2="1062.94" y2="443.71" xlink:href="#linear-gradient-2"/><linearGradient id="linear-gradient-57" x1="1025.16" y1="612.19" x2="1056.14" y2="513.66" xlink:href="#linear-gradient-2"/><linearGradient id="linear-gradient-58" x1="1029.11" y1="590.73" x2="1053.01" y2="514.71" xlink:href="#linear-gradient-2"/><linearGradient id="linear-gradient-59" x1="1048.87" y1="580.76" x2="1046.36" y2="533.6" xlink:href="#linear-gradient-2"/><linearGradient id="linear-gradient-60" x1="1026.22" y1="596.75" x2="1055.6" y2="484" xlink:href="#linear-gradient-2"/><linearGradient id="linear-gradient-61" x1="992.75" y1="521.7" x2="927.65" y2="647.62" xlink:href="#linear-gradient-6"/><linearGradient id="linear-gradient-62" x1="916.37" y1="557.43" x2="860.55" y2="453.52" xlink:href="#linear-gradient-9"/><linearGradient id="linear-gradient-63" x1="952.48" y1="452.67" x2="937.48" y2="536.3" xlink:href="#linear-gradient-51"/><linearGradient id="linear-gradient-64" x1="910.79" y1="532.35" x2="934.5" y2="532.35" xlink:href="#linear-gradient-51"/><linearGradient id="linear-gradient-65" x1="935.54" y1="549.61" x2="878.35" y2="443.14" xlink:href="#linear-gradient-9"/><linearGradient id="linear-gradient-66" x1="957.95" y1="679.18" x2="1050.13" y2="585.13" xlink:href="#linear-gradient-10"/></defs><title>Artboard 22</title><g id="Layer_6" data-name="Layer 6"><path class="cls-1" d="M1288.6,0V875.9C1148,987.8,950.1,1042.7,732.3,971.6c-78-25.5-136.3-79-158.3-117.7-1.2-2.1-2.3-4.1-3.2-6.1-61.4-125.4-30.2-224.1-20.5-311.9,4-36,.5-68.7-8.6-98.8C478.2,229,142.4,148.8,115.8,0Z"/><path class="cls-2" d="M1288.6,0V793.3C1228.1,852.4,1057.7,927,960.3,940l-5,.6c-143.4,16.3-249.7-3.8-323.5-45.4A323.4,323.4,0,0,1,574,853.9c-36.9-33.2-58.6-69.7-66.2-99.8-34.2-136.8,18.7-228.6,33.8-317,.4-2.2.7-4.5,1.1-6.7C574.4,216.5,290,180.8,254.1,0Z"/><path class="cls-3" d="M955.3,940.6c-142.7,21.4-249.7-3.8-323.5-45.4V715.7Z"/><path class="cls-4" d="M1288.6,367.4V793.3C1228.1,852.4,1057.7,927,960.3,940l-5,.6L631.8,715.7Z"/><path class="cls-5" d="M541.1,558.2a16.4,16.4,0,0,1-16.3-16.3v-193a16.2,16.2,0,0,1,9-14.6L795,202.6a16.3,16.3,0,0,1,23.7,14.6V405.4a16.3,16.3,0,0,1-8.8,14.5L548.7,556.3A16.3,16.3,0,0,1,541.1,558.2ZM802.4,204.5a12.7,12.7,0,0,0-5.7,1.4L535.4,337.5a12.6,12.6,0,0,0-7,11.3v193A12.7,12.7,0,0,0,547,553.1L808.2,416.7a12.7,12.7,0,0,0,6.8-11.3V217.2a12.7,12.7,0,0,0-12.7-12.7Z"/><path class="cls-6" d="M537.9,353.5v193a14.5,14.5,0,0,0,21.2,12.9L820.3,423a14.5,14.5,0,0,0,7.8-12.9V221.9a14.5,14.5,0,0,0-21-13L545.8,340.6A14.5,14.5,0,0,0,537.9,353.5Z"/><g class="cls-7"><path class="cls-8" d="M639.1,439.4a.4.4,0,0,1,.4.4v52.8a.4.4,0,0,1-.2.4l-72,37.6h-.2a.4.4,0,0,1-.4-.4V476a.4.4,0,0,1,.2-.4l72-36.2h.2m0-2.2a2.6,2.6,0,0,0-1.2.3l-72,36.2a2.6,2.6,0,0,0-1.4,2.3v54.2a2.6,2.6,0,0,0,3.8,2.3l72-37.6a2.6,2.6,0,0,0,1.4-2.3V439.8a2.6,2.6,0,0,0-2.6-2.6Z"/><path class="cls-8" d="M564.6,465.9v21l57.7-30.2a2.4,2.4,0,0,0,1.3-2.1V437a2.4,2.4,0,0,0-3.4-2.1l-52.9,26.6A4.9,4.9,0,0,0,564.6,465.9Z"/><path class="cls-8" d="M633.4,467.4c1.5,1.9.9,6.7-.5,10.2-2,5.3-5.7,9.6-7.6,11H625a6.5,6.5,0,0,1-7.7-2.2c-1.4-1.9-2-6-.5-9.7A9.9,9.9,0,0,1,621,472l.4-.2a4.3,4.3,0,0,1,3.7-.1,14.1,14.1,0,0,1,3.7-4.1l.4-.2C631.5,466,632.7,466.6,633.4,467.4Zm-2.1,10.1c1.1-2.8,1.6-6.7.5-8s-1.4-.7-2.6,0l-.3.2a12.5,12.5,0,0,0-3.1,3.9l-.7,1.3-.7-.5a3.2,3.2,0,0,0-3.1-.3l-.3.2a5.7,5.7,0,0,0-2.5,2.9,8.7,8.7,0,0,0,.5,7.4,5.6,5.6,0,0,0,6.2,2,24.3,24.3,0,0,0,6.1-9.1"/></g><g class="cls-7"><path class="cls-8" d="M737.8,389.2a.4.4,0,0,1,.4.4v52.8a.4.4,0,0,1-.2.4l-72,37.6h-.2a.4.4,0,0,1-.4-.4V425.9a.4.4,0,0,1,.2-.4l72-36.2h.2m0-2.2a2.6,2.6,0,0,0-1.2.3l-72,36.2a2.6,2.6,0,0,0-1.4,2.3V480a2.6,2.6,0,0,0,3.8,2.3l72-37.6a2.6,2.6,0,0,0,1.4-2.3V389.6a2.6,2.6,0,0,0-2.6-2.6Z"/><path class="cls-8" d="M663.3,415.8v21L721,406.6a2.4,2.4,0,0,0,1.3-2.1V386.8a2.4,2.4,0,0,0-3.4-2.1L666,411.4A4.9,4.9,0,0,0,663.3,415.8Z"/><path class="cls-8" d="M732,417.2c1.5,1.9.9,6.7-.5,10.2-2,5.3-5.7,9.6-7.6,11h-.2a6.5,6.5,0,0,1-7.7-2.2c-1.4-1.9-2-6-.5-9.7a9.9,9.9,0,0,1,4.2-4.9l.4-.2a4.3,4.3,0,0,1,3.7-.1,14.1,14.1,0,0,1,3.7-4.1l.4-.2C730.2,415.8,731.4,416.4,732,417.2Zm-2.1,10.1c1.1-2.8,1.6-6.7.5-8s-1.4-.7-2.6,0l-.3.2a12.5,12.5,0,0,0-3.1,3.9l-.7,1.3-.7-.5a3.2,3.2,0,0,0-3.1-.3l-.3.2a5.7,5.7,0,0,0-2.5,2.9,8.7,8.7,0,0,0,.5,7.4,5.6,5.6,0,0,0,6.2,2,24.3,24.3,0,0,0,6.1-9.1"/></g><g class="cls-7"><path class="cls-8" d="M836.5,339.1a.4.4,0,0,1,.4.4v52.8a.4.4,0,0,1-.2.4l-72,37.6h-.2a.4.4,0,0,1-.4-.4V375.7a.4.4,0,0,1,.2-.4l72-36.2h.2m0-2.2a2.6,2.6,0,0,0-1.2.3l-72,36.2a2.6,2.6,0,0,0-1.4,2.3v54.2a2.6,2.6,0,0,0,3.8,2.3l72-37.6a2.6,2.6,0,0,0,1.4-2.3V339.5a2.6,2.6,0,0,0-2.6-2.6Z"/><path class="cls-8" d="M761.9,365.6v21l57.7-30.2a2.4,2.4,0,0,0,1.3-2.1V336.7a2.4,2.4,0,0,0-3.4-2.1l-52.9,26.6A4.9,4.9,0,0,0,761.9,365.6Z"/><path class="cls-8" d="M830.7,367.1c1.5,1.9.9,6.7-.5,10.2-2,5.3-5.7,9.6-7.6,11h-.2a6.5,6.5,0,0,1-7.7-2.2c-1.4-1.9-2-6-.5-9.7a9.9,9.9,0,0,1,4.2-4.9l.4-.2a4.3,4.3,0,0,1,3.7-.1,14.1,14.1,0,0,1,3.7-4.1l.4-.2C828.9,365.7,830.1,366.3,830.7,367.1Zm-2.1,10.1c1.1-2.8,1.6-6.7.5-8s-1.4-.7-2.6,0l-.3.2a12.5,12.5,0,0,0-3.1,3.9l-.7,1.3-.7-.5a3.2,3.2,0,0,0-3.1-.3l-.3.2a5.7,5.7,0,0,0-2.5,2.9,8.7,8.7,0,0,0,.5,7.4,5.6,5.6,0,0,0,6.2,2,24.3,24.3,0,0,0,6.1-9.1"/></g><g class="cls-7"><path class="cls-8" d="M639.1,343.3a.4.4,0,0,1,.4.4v52.8a.4.4,0,0,1-.2.4l-72,37.6h-.2a.4.4,0,0,1-.4-.4V379.9a.4.4,0,0,1,.2-.4l72-36.2h.2m0-2.2a2.6,2.6,0,0,0-1.2.3l-72,36.2a2.6,2.6,0,0,0-1.4,2.3v54.2a2.6,2.6,0,0,0,3.8,2.3l72-37.6a2.6,2.6,0,0,0,1.4-2.3V343.7a2.6,2.6,0,0,0-2.6-2.6Z"/><path class="cls-8" d="M564.6,369.8v21l57.7-30.2a2.4,2.4,0,0,0,1.3-2.1V340.9a2.4,2.4,0,0,0-3.4-2.1l-52.9,26.6A4.9,4.9,0,0,0,564.6,369.8Z"/><path class="cls-8" d="M633.4,371.2c1.5,1.9.9,6.7-.5,10.2-2,5.3-5.7,9.6-7.6,11H625a6.5,6.5,0,0,1-7.7-2.2c-1.4-1.9-2-6-.5-9.7a9.9,9.9,0,0,1,4.2-4.9l.4-.2a4.3,4.3,0,0,1,3.7-.1,14.1,14.1,0,0,1,3.7-4.1l.4-.2C631.5,369.8,632.7,370.5,633.4,371.2Zm-2.1,10.1c1.1-2.8,1.6-6.7.5-8s-1.4-.7-2.6,0l-.3.2a12.5,12.5,0,0,0-3.1,3.9l-.7,1.3-.7-.5a3.2,3.2,0,0,0-3.1-.3l-.3.2a5.7,5.7,0,0,0-2.5,2.9,8.7,8.7,0,0,0,.5,7.4,5.6,5.6,0,0,0,6.2,2,24.3,24.3,0,0,0,6.1-9.1"/></g><g class="cls-7"><path class="cls-8" d="M836.5,243a.4.4,0,0,1,.4.4v52.8a.4.4,0,0,1-.2.4l-72,37.6h-.2a.4.4,0,0,1-.4-.4V279.6a.4.4,0,0,1,.2-.4l72-36.2h.2m0-2.2a2.6,2.6,0,0,0-1.2.3l-72,36.2a2.6,2.6,0,0,0-1.4,2.3v54.2a2.6,2.6,0,0,0,3.8,2.3l72-37.6a2.6,2.6,0,0,0,1.4-2.3V243.4a2.6,2.6,0,0,0-2.6-2.6Z"/><path class="cls-8" d="M761.9,269.5v21l57.7-30.2a2.4,2.4,0,0,0,1.3-2.1V240.6a2.4,2.4,0,0,0-3.4-2.1l-52.9,26.6A4.9,4.9,0,0,0,761.9,269.5Z"/><path class="cls-8" d="M830.7,271c1.5,1.9.9,6.7-.5,10.2-2,5.3-5.7,9.6-7.6,11h-.2a6.5,6.5,0,0,1-7.7-2.2c-1.4-1.9-2-6-.5-9.7a9.9,9.9,0,0,1,4.2-4.9l.4-.2a4.3,4.3,0,0,1,3.7-.1,14.1,14.1,0,0,1,3.7-4.1l.4-.2C828.9,269.5,830.1,270.2,830.7,271Zm-2.1,10.1c1.1-2.8,1.6-6.7.5-8s-1.4-.7-2.6,0l-.3.2a12.5,12.5,0,0,0-3.1,3.9l-.7,1.3-.7-.5a3.2,3.2,0,0,0-3.1-.3l-.3.2a5.7,5.7,0,0,0-2.5,2.9,8.7,8.7,0,0,0,.5,7.4,5.6,5.6,0,0,0,6.2,2,24.3,24.3,0,0,0,6.1-9.1"/></g><path class="cls-9" d="M651.5,322v70.6a3.4,3.4,0,0,0,5,3l93.8-49a3.4,3.4,0,0,0,1.8-3V274.7a3.4,3.4,0,0,0-4.9-3L653.4,319A3.4,3.4,0,0,0,651.5,322Z"/><path class="cls-10" d="M651.5,308.8v27.3l75.3-39.3a3.1,3.1,0,0,0,1.7-2.7v-23a3.1,3.1,0,0,0-4.5-2.7l-68.9,34.7A6.4,6.4,0,0,0,651.5,308.8Z"/><path class="cls-11" d="M741.2,310.7c2,2.5,1.2,8.7-.6,13.3-2.6,6.8-7.4,12.5-9.9,14.4h-.3a8.5,8.5,0,0,1-10-2.9c-1.8-2.5-2.6-7.8-.7-12.6a12.9,12.9,0,0,1,5.4-6.4l.5-.3a5.6,5.6,0,0,1,4.8-.2,18.4,18.4,0,0,1,4.8-5.4l.5-.3C738.8,308.9,740.4,309.7,741.2,310.7Zm-2.7,13.2c1.4-3.7,2.1-8.7.7-10.5s-1.8-.9-3.3,0l-.4.2c-1.7,1.1-3.5,4-4,5l-.9,1.7-.9-.7a4.2,4.2,0,0,0-4.1-.4l-.4.2a7.5,7.5,0,0,0-3.3,3.8c-1.4,3.4-.7,7.7.7,9.7a7.3,7.3,0,0,0,8,2.6,31.7,31.7,0,0,0,8-11.8"/><polygon class="cls-12" points="905.5 821.8 1053.9 855 1070.8 833.3 960.2 782.1 905.5 821.8"/><polygon class="cls-13" points="797.7 831 949.3 863.1 963.1 842.5 852.4 791.2 797.7 831"/><path class="cls-14" d="M903.5,478.4l29.7-18.2a3.5,3.5,0,0,0,1.4-4.3l-22.4-46.8a2.7,2.7,0,0,0-4-1L879,425.4a3.5,3.5,0,0,0-1.5,4.3l22,47.7A2.7,2.7,0,0,0,903.5,478.4Z"/><path class="cls-11" d="M920.7,442.7l-23.7,14a1.3,1.3,0,0,1-1.9-.5h0a1.7,1.7,0,0,1,.7-2.1l23.7-14a1.3,1.3,0,0,1,1.9.5h0A1.7,1.7,0,0,1,920.7,442.7Z"/><path class="cls-11" d="M916.1,435.2l-22,13a2.2,2.2,0,0,1-3.2-.8l-6.8-14.7a2.8,2.8,0,0,1,1.2-3.4l22-13a2.2,2.2,0,0,1,3.2.8l6.8,14.7A2.8,2.8,0,0,1,916.1,435.2Z"/><path class="cls-15" d="M923,447.8l-23.7,14a1.3,1.3,0,0,1-1.9-.5h0a1.7,1.7,0,0,1,.7-2.1l23.7-14a1.3,1.3,0,0,1,1.9.5h0A1.7,1.7,0,0,1,923,447.8Z"/><path class="cls-16" d="M919.8,456.2l-18.3,10.8a1.2,1.2,0,0,1-1.7-.4v-.3a1.5,1.5,0,0,1,.6-1.8l18.3-10.8a1.2,1.2,0,0,1,1.7.4v.3A1.5,1.5,0,0,1,919.8,456.2Z"/><path class="cls-17" d="M921.9,461.2l-18,10.7a1.3,1.3,0,0,1-1.9-.5h0a1.7,1.7,0,0,1,.7-2.1l18-10.7a1.3,1.3,0,0,1,1.9.5h0A1.7,1.7,0,0,1,921.9,461.2Z"/><polygon class="cls-18" points="1072.4 831.6 1072.4 844.4 1065.6 848.5 1017.5 829 1024.6 826 1051.7 824.5 1046.6 807.7 1024.6 735.7 1055.4 724 1069.2 811.3 1072.4 831.6"/><path class="cls-19" d="M1048.2,812.9h0l.5,1.6,3.5,1.8a3.4,3.4,0,0,1,1.8,2.5l1.6,9.6,6.2,3.6,2.1-4.1a7.9,7.9,0,0,1,3.7-3.6l3.4-1.6,1.4,1a7.5,7.5,0,0,1,3.3,6.2v14.5l-13.7,9L1011.4,828h0a16.5,16.5,0,0,1,14.6-9.1l22.3-.3-.9-3.7A1.4,1.4,0,0,1,1048.2,812.9Z"/><path class="cls-20" d="M1012.2,831.6l-.8-3.6,42.5,21.3a16,16,0,0,0,16-1l5.9-3.9h0a5.7,5.7,0,0,1-1.6,7.6l-2.3,1.6a17.5,17.5,0,0,1-18.1,1.4l-38.7-19.6A5.7,5.7,0,0,1,1012.2,831.6Z"/><polygon class="cls-21" points="981.6 637.5 1026.8 758.3 1061.8 745.8 1053.4 695.8 1047.5 617.5 981.6 637.5"/><polygon class="cls-22" points="973.3 746.2 963.2 835 963.2 851.2 956.3 855.3 908.6 832 916.5 827.5 945.2 829.1 942.9 748.1 973.3 746.2"/><path class="cls-23" d="M968.6,838.1v12.7l-6.1,4a15.7,15.7,0,0,1-15.7.9l-42.7-21.3a16.5,16.5,0,0,1,14.6-9.1h23.4l1.6-5,1.2-.7v1.3c2.1,1.6,3.4,3.5,3.4,6.1v8.1l6.2,3.6,2-3.9a8.5,8.5,0,0,1,4-3.8l3.3-1.5a10.8,10.8,0,0,1,4.7,8.9Z"/><path class="cls-24" d="M904.9,838l-.8-3.6,42.3,21.1a16.5,16.5,0,0,0,16.5-1l5.7-3.8h0a5.7,5.7,0,0,1-1.6,7.6l-1.7,1.2a18.6,18.6,0,0,1-19.3,1.5l-38.1-19.3A5.7,5.7,0,0,1,904.9,838Z"/><polygon class="cls-25" points="950 628.1 935 710.8 940.2 771 972.6 774 983.5 719.9 1022.6 633 950 628.1"/><polygon class="cls-26" points="1012.7 720.6 1009 663.3 999.3 684.8 1012.7 720.6"/><path class="cls-27" d="M938.3,825.1a29.8,29.8,0,0,0-7.1,5.6,1.1,1.1,0,0,1-.9.4,1.2,1.2,0,0,1-.7-.3,1.1,1.1,0,0,1-.1-1.6,30.2,30.2,0,0,1,4.6-4.1A3.5,3.5,0,0,1,938.3,825.1Z"/><path class="cls-27" d="M931.8,825.1a29.3,29.3,0,0,0-6.3,5.1,1.1,1.1,0,0,1-.9.4,1.1,1.1,0,0,1-.9-1.9,29.1,29.1,0,0,1,3.9-3.6A4.6,4.6,0,0,1,931.8,825.1Z"/><path class="cls-27" d="M1043.9,818.7a29.8,29.8,0,0,0-7.1,5.6,1.1,1.1,0,0,1-.9.4,1.2,1.2,0,0,1-.7-.3,1.1,1.1,0,0,1-.1-1.6,30.2,30.2,0,0,1,4.6-4.1A3.5,3.5,0,0,1,1043.9,818.7Z"/><path class="cls-27" d="M1037.4,818.8a29.3,29.3,0,0,0-6.3,5.1,1.1,1.1,0,0,1-.9.4,1.1,1.1,0,0,1-.9-1.9,29.1,29.1,0,0,1,3.9-3.6A4.6,4.6,0,0,1,1037.4,818.8Z"/><path class="cls-28" d="M1038.4,754.8a.4.4,0,0,1-.4-.3l-.6-2.2a.4.4,0,0,1,.7-.2l.6,2.2a.4.4,0,0,1-.3.5Zm-1.7-5.8a.4.4,0,0,1-.4-.3l-.6-2.2a.4.4,0,1,1,.7-.2l.6,2.2a.4.4,0,0,1-.3.5Zm-1.6-5.8a.4.4,0,0,1-.4-.3l-.6-2.2a.4.4,0,0,1,.7-.2l.6,2.2a.4.4,0,0,1-.3.5Zm-1.6-5.8a.4.4,0,0,1-.4-.3l-.6-2.2a.4.4,0,1,1,.7-.2l.6,2.2a.4.4,0,0,1-.3.5Zm-1.6-5.8a.4.4,0,0,1-.4-.3l-.6-2.2a.4.4,0,1,1,.7-.2l.6,2.2a.4.4,0,0,1-.3.5Zm-1.5-5.8a.4.4,0,0,1-.4-.3l-.6-2.2a.4.4,0,1,1,.7-.2l.6,2.2a.4.4,0,0,1-.3.5Zm-1.5-5.8a.4.4,0,0,1-.4-.3l-.6-2.2a.4.4,0,1,1,.7-.2l.6,2.2a.4.4,0,0,1-.3.5Zm-1.5-5.8a.4.4,0,0,1-.4-.3l-.5-2.2a.4.4,0,1,1,.7-.2l.5,2.2a.4.4,0,0,1-.3.5Zm-1.4-5.9a.4.4,0,0,1-.4-.3l-.5-2.2a.4.4,0,0,1,.7-.2l.5,2.2a.4.4,0,0,1-.3.5Zm-1.4-5.9a.4.4,0,0,1-.4-.3l-.5-2.2a.4.4,0,0,1,.7-.2l.5,2.2a.4.4,0,0,1-.3.5Zm-1.4-5.9a.4.4,0,0,1-.4-.3l-.5-2.2a.4.4,0,0,1,.7-.2l.5,2.2a.4.4,0,0,1-.3.4Zm-1.3-5.9a.4.4,0,0,1-.4-.3l-.5-2.2a.4.4,0,0,1,.7-.2l.5,2.2a.4.4,0,0,1-.3.4Zm-1.3-5.9a.4.4,0,0,1-.4-.3l-.5-2.2a.4.4,0,1,1,.7-.2l.5,2.2a.4.4,0,0,1-.3.4Zm-1.2-5.9a.4.4,0,0,1-.4-.3l-.4-2.2a.4.4,0,1,1,.7-.1l.4,2.2a.4.4,0,0,1-.3.4Zm-1.1-5.9a.4.4,0,0,1-.4-.3l-.4-2.2a.4.4,0,1,1,.7-.1l.4,2.2a.4.4,0,0,1-.3.4Zm-1.1-5.9a.4.4,0,0,1-.4-.3l-.4-2.2a.4.4,0,0,1,.7-.1l.4,2.2a.4.4,0,0,1-.3.4Zm-1-5.9a.4.4,0,0,1-.4-.3l-.4-2.2a.4.4,0,1,1,.7-.1l.4,2.2a.4.4,0,0,1-.3.4Zm-.9-6a.4.4,0,0,1-.4-.3l-.3-2.2a.4.4,0,0,1,.7-.1l.3,2.2a.4.4,0,0,1-.3.4Zm-.8-6a.4.4,0,0,1-.4-.3l-.2-1.3a.4.4,0,0,1,.7-.1l.2,1.3a.4.4,0,0,1-.3.4Z"/><path class="cls-28" d="M951.1,773.2a.4.4,0,0,1-.4-.4v-2.3a.4.4,0,0,1,.4-.4.4.4,0,0,1,.4.4v2.3a.4.4,0,0,1-.4.4Zm-.3-6a.4.4,0,0,1-.4-.4v-2.3a.4.4,0,0,1,.4-.4.4.4,0,0,1,.4.4v2.3a.4.4,0,0,1-.4.4Zm-.3-6a.4.4,0,0,1-.4-.4v-2.3a.4.4,0,0,1,.4-.4.4.4,0,0,1,.4.4v2.3a.4.4,0,0,1-.4.4Zm-.3-6a.4.4,0,0,1-.4-.4v-2.3a.4.4,0,0,1,.4-.4.4.4,0,0,1,.4.4v2.3a.4.4,0,0,1-.4.4Zm-.3-6a.4.4,0,0,1-.4-.4v-2.3a.4.4,0,0,1,.4-.4.4.4,0,0,1,.4.4v2.3a.4.4,0,0,1-.4.4Zm-.3-6a.4.4,0,0,1-.4-.4v-2.3a.4.4,0,0,1,.4-.4.4.4,0,0,1,.4.4v2.3a.4.4,0,0,1-.4.4Zm-.3-6a.4.4,0,0,1-.4-.4v-2.3a.4.4,0,0,1,.4-.4.4.4,0,0,1,.4.4v2.3a.4.4,0,0,1-.4.4Zm-.3-6a.4.4,0,0,1-.4-.4v-2.3a.4.4,0,0,1,.4-.4.4.4,0,0,1,.4.4v2.3a.4.4,0,0,1-.4.4Zm-.3-6a.4.4,0,0,1-.4-.4v-.9q0-.7-.1-1.4a.4.4,0,0,1,.4-.4.4.4,0,0,1,.4.4q0,.7.1,1.4v.9a.4.4,0,0,1-.4.4Zm-.1-6h0a.4.4,0,0,1-.4-.4c0-.8.1-1.5.2-2.3a.4.4,0,0,1,.4-.3.4.4,0,0,1,.3.4c-.1.7-.1,1.5-.2,2.2A.4.4,0,0,1,948.2,719.1Zm.7-6h-.1a.4.4,0,0,1-.3-.4l.4-2.2a.4.4,0,0,1,.7.2l-.4,2.2A.4.4,0,0,1,948.9,713.1Zm1.4-5.8h-.1a.4.4,0,0,1-.2-.5l.7-2.2a.4.4,0,0,1,.7.2l-.7,2.1A.4.4,0,0,1,950.3,707.2Zm1.8-5.7H952a.4.4,0,0,1-.2-.5l.7-2.1a.4.4,0,0,1,.7.2l-.7,2.1A.4.4,0,0,1,952.1,701.5Zm1.8-5.7h-.1a.4.4,0,0,1-.2-.5l.7-2.1a.4.4,0,0,1,.7.2l-.7,2.1A.4.4,0,0,1,954,695.8Zm1.8-5.7h-.1a.4.4,0,0,1-.2-.5l.7-2.1a.4.4,0,0,1,.7.2l-.7,2.1A.4.4,0,0,1,955.8,690Zm1.8-5.7h-.1a.4.4,0,0,1-.2-.5l.7-2.1a.4.4,0,0,1,.7.2l-.7,2.1A.4.4,0,0,1,957.7,684.3Zm1.8-5.7h-.1a.4.4,0,0,1-.2-.5l.7-2.1a.4.4,0,0,1,.7.2l-.7,2.1A.4.4,0,0,1,959.5,678.6Zm1.8-5.7h-.1a.4.4,0,0,1-.2-.5l.7-2.1a.4.4,0,1,1,.7.2l-.7,2.1A.4.4,0,0,1,961.4,672.9Zm1.8-5.7h-.1a.4.4,0,0,1-.2-.5l.7-2.1a.4.4,0,1,1,.7.2l-.7,2.1A.4.4,0,0,1,963.2,667.1Zm1.8-5.7H965a.4.4,0,0,1-.2-.5l.7-2.1a.4.4,0,1,1,.7.2l-.7,2.1A.4.4,0,0,1,965.1,661.4Zm1.8-5.7h-.1a.4.4,0,0,1-.2-.5l.7-2.1a.4.4,0,1,1,.7.2l-.7,2.1A.4.4,0,0,1,966.9,655.7Zm1.8-5.7h-.1a.4.4,0,0,1-.2-.5l.7-2.1a.4.4,0,0,1,.7.2l-.7,2.1A.4.4,0,0,1,968.8,649.9Z"/><path class="cls-29" d="M1015.5,638.6l4,27.5a4.9,4.9,0,0,0,6.9,3.7l16.6-7.8a4.9,4.9,0,0,0,2.8-4.3l1.1-31Z"/><path class="cls-30" d="M959.4,714.1l-3.9,26.1c-.4,2.9-1.8,4.7-5,3.6L935,737.8c-1.1-.4-2-1.3-2-3.5l2-27.9Z"/><path class="cls-31" d="M938.8,689.7h0c-.7,3.9-.5,6.6,3.1,8.1l19.9,8.1a1.9,1.9,0,0,1,1.1,2.2l-1.9,7a3.6,3.6,0,0,1-4.6,2.5l-20.3-6.4c-3.6-1.1-4.4-3.1-3.7-6.8l1.9-8.2C936.5,690.5,938.8,689.7,938.8,689.7Z"/><ellipse class="cls-10" cx="943.4" cy="707.1" rx="2.3" ry="3.4"/><path class="cls-32" d="M941.9,769.7l29,2.8a3.7,3.7,0,0,1,3.4,3.9h0a3.7,3.7,0,0,1-4,3.5l-29-2.5a3.7,3.7,0,0,1-3.4-3.7v-.3A3.7,3.7,0,0,1,941.9,769.7Z"/><path class="cls-33" d="M1060.4,745.3l-33.2,11.4a3.4,3.4,0,0,0-2.1,4.4l.2.5a3.4,3.4,0,0,0,4.4,2.1l33-11.8a3.4,3.4,0,0,0,2.1-4.3h0A3.4,3.4,0,0,0,1060.4,745.3Z"/><polygon class="cls-34" points="1015.9 435.4 896.1 376.1 890.5 390.8 992.1 463.6 1015.9 435.4"/><path class="cls-35" d="M1058,631.2a60.6,60.6,0,0,1-1.4,9.1s-36.9,39.4-82.9,27.9c-38.5-10.5-38-24.2-38-24.2s.6-2,1.7-5.7c6-21.2,25.3-98.2,11.8-173.3l51.7-33.2a26.8,26.8,0,0,1,41.3,21.9c.9,40.1,3.4,94.6,9.9,119.8C1059.2,600.8,1059.1,620.6,1058,631.2Z"/><path class="cls-36" d="M998.8,417.7v15.4c0,14.1-23.6,16.7-26.1,16.9V417.7Z"/><path class="cls-37" d="M969.1,452.2c-.3-2.9.3-6,1.7-7.5,0,0,22.7,2.3,28-15,1.2,0,2.7.6,3.1,1.6S1005.6,453,969.1,452.2Z"/><path class="cls-38" d="M953.6,462.1s30.5,8.6,43.5,41.7l40.6-23.5s-4.1-42.4-22.2-52.3c-5.2-3.7-14.2.1-13.5,2.8,0,0,13.6,11.3,14.8,35.7l-13.5,8S990,459,965.8,454.3C960.6,453.1,951.5,459.2,953.6,462.1Z"/><path class="cls-39" d="M1002.7,500.6a71.6,71.6,0,0,0-47.2-41.3l.2-.7a72.4,72.4,0,0,1,47.7,41.7Z"/><path class="cls-40" d="M1021.9,489.8a71.6,71.6,0,0,0-16.8-60.4h0a2.3,2.3,0,0,1,2.1.8c7.2,8.5,20.8,29.3,15.4,59.8Z"/><path class="cls-41" d="M981.2,597.5V505.8a24.2,24.2,0,0,1,12.1-20.9l41.4-24a21.5,21.5,0,0,1,32.3,18.6v86.1L1000,607.8A12.3,12.3,0,0,1,981.2,597.5Z"/><path class="cls-42" d="M1000.7,600.3a5.5,5.5,0,0,1-2.7-.7,5.4,5.4,0,0,1-2.8-4.8V506.7a15.4,15.4,0,0,1,7.7-13.3l44.4-25.7A13.2,13.2,0,0,1,1067,479v80.4h-.2l-63.2,40A5.5,5.5,0,0,1,1000.7,600.3Zm53.2-133.7a12.4,12.4,0,0,0-6.2,1.7L1003.2,494a14.7,14.7,0,0,0-7.3,12.7v88.1a4.7,4.7,0,0,0,7.3,4l63.1-39.9V479a12.5,12.5,0,0,0-12.4-12.4Z"/><path class="cls-43" d="M1014.5,609.8H994.3l54.5-30.2h0a5.1,5.1,0,0,1,2.7,9.5Z"/><rect class="cls-44" x="1011.7" y="544.1" width="8.4" height="43.54"/><path class="cls-45" d="M899,380.7l-2.9-4.6-5.9-10a7.1,7.1,0,0,0-6.5-3.5l-3.7.2L864,352.6a2.1,2.1,0,0,0-2.7.3h0a2.1,2.1,0,0,0,.1,3.1l12.9,11.6-2.3,2a6.3,6.3,0,0,0-1.8,7.1l1.2,3.1a11.8,11.8,0,0,0,7.1,6.9l12,4.2Z"/><ellipse class="cls-46" cx="908.8" cy="384.4" rx="6.5" ry="3.5"/><rect class="cls-47" x="902.3" y="381.7" width="13" height="2.68"/><ellipse class="cls-48" cx="908.8" cy="381.7" rx="6.5" ry="3.5"/><path class="cls-49" d="M904.6,401s-1-8.6,2.4-13.6l-3.4-2.3-1.3-.5a23,23,0,0,0-2.9,12.4C899.9,399.5,903,401.6,904.6,401Z"/><path class="cls-50" d="M793.8,706.9a.8.8,0,0,1-.1-1.5h1.5a.8.8,0,0,1,.2,1.5l-1.5.2Zm-3.8,0H790l-1.5-.2a.8.8,0,0,1,.2-1.5l1.5.2a.8.8,0,0,1-.1,1.5Zm8.9-.9a.8.8,0,0,1-.2-1.5l1.4-.5a.8.8,0,1,1,.5,1.4l-1.5.5Zm-14.1,0h-.2l-1.5-.5a.8.8,0,1,1,.5-1.4l1.4.4a.8.8,0,0,1-.2,1.5ZM780,704h-.3l-1.4-.8a.8.8,0,0,1,.8-1.3l1.3.7a.8.8,0,0,1-.3,1.4Zm23.8-.1a.8.8,0,0,1-.4-1.4l1.2-.8a.8.8,0,1,1,.9,1.2l-1.3.9Zm-28.2-2.7-.5-.2-1.2-1a.8.8,0,1,1,1-1.1l1.1,1a.8.8,0,0,1-.5,1.3Zm32.2-.7-.5-.2a.8.8,0,0,1-.1-1.1l.8-1.1a.8.8,0,1,1,1.3.8l-.9,1.3A.8.8,0,0,1,807.8,700.4Zm-35.9-3.1a.8.8,0,0,1-.6-.3l-.6-.8-.3-.5a.8.8,0,0,1,1.2-.8l.3.4.5.7a.8.8,0,0,1-.1,1.1Zm38.3-1.5H810a.8.8,0,0,1-.5-.9c.1-.4.2-.9.3-1.4a.8.8,0,1,1,1.5.3c-.1.5-.2,1-.4,1.5A.8.8,0,0,1,810.2,695.8Zm-41.1-2.9a.8.8,0,0,1-.7-.4l-.6-1.4a.8.8,0,1,1,1.4-.6l.6,1.3a.8.8,0,0,1-.4,1Zm41.8-2.3a.8.8,0,0,1-.8-.8c0-.5,0-1,0-1.5a.8.8,0,0,1,.7-.8.8.8,0,0,1,.8.7c0,.5,0,1,0,1.5a.8.8,0,0,1-.8.8Zm-43.5-2.7a.8.8,0,0,1-.7-.6l-.3-1.5a.8.8,0,1,1,1.5-.3l.3,1.4a.8.8,0,0,1-.6.9Zm43.1-2.5a.8.8,0,0,1-.7-.6l-.2-1.5a.8.8,0,0,1,1.5-.3l.3,1.5a.8.8,0,0,1-.6.9Zm-43.7-2.7a.8.8,0,0,1-.8-.7q0-.4,0-.8c0-.3,0-.5,0-.8a.7.7,0,0,1,.8-.7.8.8,0,0,1,.7.8c0,.2,0,.5,0,.7s0,.5,0,.7a.8.8,0,0,1-.7.8Zm42.7-2.5a.8.8,0,0,1-.7-.6l-.4-1.4a.8.8,0,1,1,1.4-.4l.4,1.5a.8.8,0,0,1-.5.9Zm-42.3-2.8H767a.8.8,0,0,1-.6-.9l.3-1.5a.8.8,0,1,1,1.5.3l-.3,1.4A.8.8,0,0,1,767.1,677.5Zm40.7-2.3a.8.8,0,0,1-.7-.5l-.5-1.4a.8.8,0,1,1,1.4-.5l.5,1.4a.8.8,0,0,1-.5,1Zm-39.3-2.8h-.3a.8.8,0,0,1-.4-1l.6-1.4a.8.8,0,0,1,1.4.6l-.6,1.3A.8.8,0,0,1,768.5,672.4Zm37.3-2.1a.8.8,0,0,1-.7-.4l-.6-1.3a.8.8,0,0,1,1.3-.7l.7,1.4a.8.8,0,0,1-.4,1ZM771,667.8h-.4a.8.8,0,0,1-.2-1l.2-.2.8-1a.8.8,0,0,1,1.2.9l-.7.9-.2.2A.8.8,0,0,1,771,667.8Zm32.4-2.1a.8.8,0,0,1-.7-.4L802,664a.8.8,0,1,1,1.3-.8l.8,1.3a.8.8,0,0,1-.3,1Zm-29-1.9-.5-.2a.8.8,0,0,1,0-1.1l1.1-1a.8.8,0,1,1,1,1.1l-1.1,1Zm26.2-2.6a.8.8,0,0,1-.6-.3l-.9-1.2a.8.8,0,1,1,1.2-.9l.9,1.2a.8.8,0,0,1-.2,1Zm-22-.7a.8.8,0,0,1-.4-1.4l1.3-.8a.8.8,0,0,1,.8,1.3l-1.2.8Zm4.6-2.6a.8.8,0,0,1-.3-1.4l1.4-.6a.8.8,0,1,1,.6,1.4l-1.3.6Zm14.3-1a.8.8,0,0,1-.6-.3l-.9-1.2a.8.8,0,1,1,1.2-1l1,1.2a.8.8,0,0,1-.1,1.1Zm54.4-1h-.2l-1.4-.4a.8.8,0,1,1,.4-1.5l1.5.4a.8.8,0,0,1-.2,1.5ZM788,656a.8.8,0,0,1-.2-1.5l1.4-.5a.8.8,0,0,1,.5,1.4l-1.4.5Zm58.8-1.3h-.2l-1.5-.3a.8.8,0,0,1,.3-1.5l1.5.3a.8.8,0,0,1-.2,1.5Zm-53.7-.2a.8.8,0,0,1-.2-1.5l.6-.2h-.1l-1-1.1a.8.8,0,1,1,1.1-1l1,1.1a1.3,1.3,0,0,0,.7,1.5.8.8,0,0,1-.6.9l-1.4.3Zm48.6-.9h-.1l-1.5-.3a.8.8,0,1,1,.3-1.5l1.5.3a.8.8,0,0,1-.1,1.5Zm-43.4-.2a.8.8,0,0,1-.1-1.5l1.5-.3a.8.8,0,1,1,.2,1.5l-1.5.3Zm38.2-.6h-.1l-1.5-.2a.8.8,0,0,1,.2-1.5l1.5.2a.8.8,0,0,1-.1,1.5Zm-33-.2a.8.8,0,0,1-.1-1.5l1.5-.2a.8.8,0,1,1,.2,1.5l-1.5.2Zm27.8-.5h-1.6a.8.8,0,0,1-.7-.8.7.7,0,0,1,.8-.7h1.5a.8.8,0,0,1-.1,1.5Zm-22.5-.1a.8.8,0,0,1-.1-1.5h1.5a.8.8,0,0,1,.1,1.5h-1.6Zm17.3-.3h-1.5a.8.8,0,0,1,0-1.5H826a.8.8,0,0,1,0,1.5Zm-12-.1a.8.8,0,0,1,0-1.5h1.5a.8.8,0,0,1,0,1.5h-1.5Zm6.8-.1h-1.5a.8.8,0,1,1,0-1.5h1.5a.8.8,0,0,1,0,1.5Zm-30.4-2.3-.5-.2-1.1-1a.8.8,0,1,1,1-1.1l1.1,1a.8.8,0,0,1,0,1.1Zm-4-3.5-.5-.2-1.2-.9a.8.8,0,1,1,.9-1.2l1.2,1a.8.8,0,0,1-.5,1.3Zm-4.2-3.2h-.4l-1.2-.9a.8.8,0,0,1,.9-1.2l1.2.9a.8.8,0,0,1-.4,1.4Zm-4.4-3h-.4l-1.3-.8a.8.8,0,0,1,.8-1.3l1.3.8a.8.8,0,0,1-.4,1.4Zm-4.5-2.7h-.4l-1.3-.7a.8.8,0,0,1,.7-1.3l1.3.7a.8.8,0,0,1-.4,1.4Zm-4.6-2.5h-.3l-1.3-.7a.8.8,0,1,1,.7-1.3l1.4.7a.8.8,0,0,1-.3,1.4Zm-4.7-2.3h-.3l-1.4-.6a.8.8,0,0,1,.6-1.4l1.4.6a.8.8,0,0,1-.3,1.4Z"/><path class="cls-11" d="M1113.5,429.2a.8.8,0,0,1-.7-.7v-.7a.8.8,0,1,1,1.5-.2v.7a.8.8,0,0,1-.7.8Z"/><path class="cls-11" d="M1113,424.8a.8.8,0,0,1-.7-.7v-1.5a.8.8,0,0,1,.7-.8.7.7,0,0,1,.8.7v1.5a.8.8,0,0,1-.7.8Zm-.4-5.2a.8.8,0,0,1-.8-.7q0-.8-.1-1.5a.8.8,0,0,1,.7-.8.7.7,0,0,1,.8.7q0,.7.1,1.5a.8.8,0,0,1-.7.8Zm-.1-5.3h0a.8.8,0,0,1-.7-.8q0-.8.1-1.5a.8.8,0,1,1,1.5.1c0,.5,0,1-.1,1.5A.8.8,0,0,1,1112.5,414.2Zm.4-5.2h-.1a.8.8,0,0,1-.6-.8l.2-1.3v-.3a.8.8,0,0,1,1.5.3v.2l-.2,1.2A.8.8,0,0,1,1112.8,409Zm1.1-5.2h-.2a.8.8,0,0,1-.5-.9l.5-1.5a.8.8,0,0,1,1.4.5l-.4,1.4A.8.8,0,0,1,1113.9,403.8Zm1.9-4.9h-.3a.8.8,0,0,1-.4-1l.7-1.4a.8.8,0,1,1,1.3.7l-.7,1.3A.8.8,0,0,1,1115.8,398.9Zm2.7-4.5-.5-.2a.8.8,0,0,1-.1-1.1l1-1.2a.8.8,0,1,1,1.1,1l-.9,1.1A.8.8,0,0,1,1118.5,394.4Zm3.7-3.8a.8.8,0,0,1-.5-1.3l1.3-.9a.8.8,0,0,1,.9,1.2l-1.2.9Zm4.5-2.7a.8.8,0,0,1-.3-1.4l1.4-.6a.8.8,0,1,1,.5,1.4l-1.3.6Zm5-1.6a.8.8,0,0,1-.2-1.5l1.5-.3a.8.8,0,1,1,.3,1.5l-1.4.3Zm5.2-.8a.8.8,0,0,1-.1-1.5h1.5a.8.8,0,0,1,.1,1.5h-1.6Zm5.3-.3a.8.8,0,0,1,0-1.5h1.5a.8.8,0,0,1,0,1.5h-1.5Zm5.3-.2a.8.8,0,0,1,0-1.5h1.5a.7.7,0,0,1,.8.7.8.8,0,0,1-.7.8h-1.5Zm5.3-.3a.8.8,0,0,1-.1-1.5h1.5a.8.8,0,1,1,.2,1.5h-1.6Zm5.2-.7a.8.8,0,0,1-.1-1.5l1.4-.3a.8.8,0,0,1,.4,1.5l-1.5.3Zm5-1.5a.8.8,0,0,1-.3-1.5l1.3-.6a.8.8,0,1,1,.6,1.4l-1.4.6Zm4.6-2.5a.8.8,0,0,1-.4-1.4l1.1-.9a.8.8,0,0,1,1,1.1l-1.2,1Zm3.8-3.6-.5-.2a.8.8,0,0,1-.1-1.1l.9-1.1a.8.8,0,1,1,1.2.9l-1,1.2A.7.7,0,0,1,1171.3,376.5Zm2.9-4.4h-.4a.8.8,0,0,1-.3-1l.7-1.3a.8.8,0,0,1,1.4.6l-.7,1.4A.8.8,0,0,1,1174.2,372.1Zm2.1-4.8h-.2a.8.8,0,0,1-.5-1l.4-1.4a.8.8,0,1,1,1.4.4l-.5,1.5A.8.8,0,0,1,1176.3,367.3Zm1.3-5.1h-.1a.8.8,0,0,1-.6-.9l.2-1.5a.8.8,0,0,1,1.5.2l-.2,1.5A.8.8,0,0,1,1177.6,362.2Zm.6-5.2h0a.8.8,0,0,1-.7-.8q0-.7.1-1.5a.8.8,0,1,1,1.5,0q0,.8-.1,1.5A.8.8,0,0,1,1178.1,356.9Zm0-5.3a.8.8,0,0,1-.8-.7q0-.7-.1-1.5a.8.8,0,0,1,1.5-.1q0,.8.1,1.5a.8.8,0,0,1-.7.8Zm-.3-5.3a.8.8,0,0,1-.7-.7v-1.5a.8.8,0,0,1,1.5-.1v1.5a.8.8,0,0,1-.7.8Z"/><path class="cls-11" d="M1177.4,341.1a.8.8,0,0,1-.7-.7v-.7a.8.8,0,1,1,1.5-.2v.8a.8.8,0,0,1-.7.8Z"/><path class="cls-27" d="M1177,292a14.1,14.1,0,0,0-14.1,14.1c0,14.5,14.1,25.8,14.1,25.8s14.1-11.2,14.1-25.8A14.1,14.1,0,0,0,1177,292Zm0,20.8a6.7,6.7,0,1,1,6.7-6.7A6.7,6.7,0,0,1,1177,312.8Z"/><polygon class="cls-51" points="750.9 615.7 752.2 634 745.8 623.2 745.8 623.2 716.6 600.5 709 594.6 750.9 615.7"/><polygon class="cls-52" points="729.9 617.2 752.2 634 745.8 623.2 729.9 610.9 729.9 617.2"/><polygon class="cls-53" points="736.6 636.8 709 594.6 716.6 600.5 745.8 623.2 745.8 623.2 736.6 636.8"/><polygon class="cls-54" points="750.9 615.7 709 594.6 760.1 602.1 750.9 615.7"/><path class="cls-55" d="M957.2,379v12a3,3,0,0,1-1.5,2.6l-9.2,5.7a3,3,0,0,1-4.6-2.6V384.1a3,3,0,0,1,1.6-2.7l9.2-5.1a3,3,0,0,1,4.2,1.3A2.9,2.9,0,0,1,957.2,379Z"/><path class="cls-56" d="M956.7,378.1v12.1a2.6,2.6,0,0,1-1.2,2.2l-7.9,4.9a2.6,2.6,0,0,1-4-2.2v-9.6l12.9-7.1Z"/><path class="cls-57" d="M976.4,359.4,953,365.8s-7.9,25.9,0,47.1,31.5,20,40.9,15.1c0,0,18.8-18.6,14.2-50.6Z"/><path class="cls-58" d="M952.2,369s17.1,10.2,11.4,29c0,0,7.9-9.4,13.3-2.8,3.2,3.9,1.4,11.6-4.8,16.6,0,0,7.1,19,23.9,16.1s21-24,21-41V374.2s-22.6-18.8-36.4-21.2S952.2,369,952.2,369Z"/><polygon class="cls-59" points="941.9 385.9 964.6 396.9 966.5 395.2 942.5 382.2 941.9 385.9"/><circle class="cls-60" cx="970.9" cy="402" r="2.8"/><path class="cls-61" d="M953.8,414.7c-1.6,12.5,9.2,17.2,8.9,26.7,0,0,5.3-10.7,13.5-10.8h0a12.2,12.2,0,0,1-9.8-12v-8.6S964.7,422,953.8,414.7Z"/><path class="cls-62" d="M981.8,386s25.3,23.3,48.6,13.7,16.9-15.8,8.9-20.1c-14.7-8.1-19.7-11.9-19.7-11.9Z"/><path class="cls-63" d="M981.8,383.4s25.3,23.3,48.6,13.7,16.9-15.8,8.9-20.1c-14.7-8.1-19.7-11.9-19.7-11.9Z"/><path class="cls-64" d="M1023.2,373.2a7.6,7.6,0,0,1-3.5,7.7c-7.9,4.8-18.7,7.2-30.6,6.2s-23.9-5.8-31.8-12.4a40.4,40.4,0,0,1-3.8-3.6,5.8,5.8,0,0,1-1.1-6.1l.6-1.4a38.2,38.2,0,0,1,5.5-9,36.4,36.4,0,0,1,27-13.4c18.7-.6,34.6,13.2,37.7,31.8Z"/><path class="cls-65" d="M1023.1,372.9c-8,6-20,9.3-33.4,8.1-11.7-1-22.3-5.2-30.2-11.1a40.8,40.8,0,0,1-6.7-6.3l1.1-2.4.5-.9a36.9,36.9,0,0,1,3.3-4.9l.6-.8a36.4,36.4,0,0,1,27-13.4C1004.1,340.5,1020,354.3,1023.1,372.9Z"/><path class="cls-66" d="M960.5,362.9a20.1,20.1,0,0,1-1,6.9,40.8,40.8,0,0,1-6.7-6.3l1.1-2.4.5-.9a36.9,36.9,0,0,1,3.3-4.9l.6-.8A20.1,20.1,0,0,1,960.5,362.9Z"/><path class="cls-27" d="M991.8,343.6l-.6-.5.5-.6.5.5Z"/><path class="cls-27" d="M977.7,377h-.7l.2-1.5h.7Zm.4-3h-.7l.3-1.5h.7Zm.5-3h-.7l.3-1.5.7.2Zm.7-3-.7-.2.4-1.5.7.2Zm.8-3-.7-.2.5-1.5.7.2Zm1-2.9-.7-.3.5-1.5.7.3Zm1.1-2.9-.7-.3.6-1.4.7.3Zm1.2-2.8-.7-.3.7-1.4.7.3Zm1.4-2.7-.7-.4.8-1.4.7.4Zm1.5-2.7-.6-.4.8-1.3.6.4Zm1.7-2.6-.6-.4.9-1.3.6.4Zm1.8-2.5-.6-.5,1-1.2.6.5Z"/><ellipse class="cls-27" cx="992.7" cy="342.3" rx="2.2" ry="4" transform="translate(506.8 1273.2) rotate(-81.5)"/><ellipse class="cls-67" cx="908.8" cy="381.7" rx="4.7" ry="2.5"/><path class="cls-10" d="M981.2,552.7s-3.4.8-3.4,3.1,3.4,6,3.4,6Z"/><path class="cls-68" d="M1003,555.8v44.1c-11,6.1-25.3,4-25.3,0V555.8C978.7,559.1,990.4,560.7,1003,555.8Z"/><path class="cls-69" d="M1003,555.8v5.5c-10.9,6.1-25.3,4-25.3,0v-5.5C978.7,559.1,990.4,560.7,1003,555.8Z"/><path class="cls-70" d="M1003,601V516.2c0-7,4.2-13.5,11-17l42.7-22c7-3.6,15.8.9,15.8,8.1v78.1a24.3,24.3,0,0,1-12.2,21.1l-41.9,24C1011.8,612.3,1003,608,1003,601Z"/><path class="cls-71" d="M1067.6,530.6v30.8a6.1,6.1,0,0,1-3,5.2l-37.7,22.5a6.1,6.1,0,0,1-9.2-5.2V551.8a6.1,6.1,0,0,1,3.1-5.3l37.7-21.2A6.1,6.1,0,0,1,1067.6,530.6Z"/><path class="cls-72" d="M1067.6,530.6v13a6.1,6.1,0,0,1-3,5.2l-37.7,22.5a6.1,6.1,0,0,1-9.2-5.2V551.8a6.1,6.1,0,0,1,3.1-5.3l37.7-21.2A6.1,6.1,0,0,1,1067.6,530.6Z"/><path class="cls-73" d="M1050.9,563.3l-4.8,3.1a1.7,1.7,0,0,1-2.7-1.5V548.6a1.7,1.7,0,0,1,.8-1.5l4.8-3.1a1.7,1.7,0,0,1,2.7,1.5v16.3A1.7,1.7,0,0,1,1050.9,563.3Z"/><path class="cls-74" d="M1022.5,594.9a.4.4,0,0,1-.1-.7,8.2,8.2,0,0,0,2-.7.4.4,0,0,1,.3.7,8.9,8.9,0,0,1-2.2.7Zm-3.7-.1h-.1a9,9,0,0,1-2.2-.9.4.4,0,1,1,.4-.7,8.3,8.3,0,0,0,2,.8.4.4,0,0,1-.1.7Zm9.1-2.4-.3-.2a.4.4,0,0,1,.1-.5l2-1.1a.4.4,0,1,1,.4.7l-2,1.1Zm-14-.9-.3-.2a6.8,6.8,0,0,1-.9-2.2.4.4,0,1,1,.7-.2,6,6,0,0,0,.8,2,.4.4,0,0,1-.1.5Zm19.2-2.1-.3-.2a.4.4,0,0,1,.1-.5l2-1.1a.4.4,0,0,1,.4.7l-2,1.1Zm-20.2-1.4a.4.4,0,0,1-.4-.4v-2.3a.4.4,0,1,1,.8,0v2.3A.4.4,0,0,1,1012.9,588Zm25.4-1.6-.3-.2a.4.4,0,0,1,.1-.5l2-1.1a.4.4,0,0,1,.4.7l-2,1.1Zm5.2-3-.3-.2a.4.4,0,0,1,.1-.5l2-1.1a.4.4,0,1,1,.4.7l-2,1.1Zm-30.6-1.4a.4.4,0,0,1-.4-.4v-2.3a.4.4,0,1,1,.8,0v2.3A.4.4,0,0,1,1012.9,582Zm35.9-1.6-.3-.2a.4.4,0,0,1,.1-.5l2-1.1a.4.4,0,1,1,.4.7l-2,1.1Zm5.2-3-.3-.2a.4.4,0,0,1,.1-.5l2-1.1a.4.4,0,1,1,.4.7l-2,1.1Zm-41.1-1.4a.4.4,0,0,1-.4-.4v-2.3a.4.4,0,1,1,.8,0v2.3A.4.4,0,0,1,1012.9,575.9Zm46.3-1.5-.3-.2a.4.4,0,0,1,.1-.5l2-1.1a.4.4,0,0,1,.4.7l-2,1.1Zm5.2-3-.3-.2a.4.4,0,0,1,.1-.5,8.6,8.6,0,0,0,1.6-1.5.4.4,0,0,1,.6.5,9.4,9.4,0,0,1-1.7,1.6Zm-51.5-1.4a.4.4,0,0,1-.4-.4v-2.3a.4.4,0,1,1,.8,0v2.3A.4.4,0,0,1,1012.9,569.9Zm54.9-3.4h-.1a.4.4,0,0,1-.3-.5,8.6,8.6,0,0,0,.3-2.1.4.4,0,0,1,.4-.4h0a.4.4,0,0,1,.4.4,9.4,9.4,0,0,1-.3,2.3A.4.4,0,0,1,1067.8,566.5Zm-54.9-2.6a.4.4,0,0,1-.4-.4v-2.3a.4.4,0,1,1,.8,0v2.3A.4.4,0,0,1,1012.9,563.9Zm55.2-3.4a.4.4,0,0,1-.4-.4v-2.3a.4.4,0,0,1,.8,0v2.3A.4.4,0,0,1,1068.1,560.5Zm-55.2-2.6a.4.4,0,0,1-.4-.4v-2.3a.4.4,0,1,1,.8,0v2.3A.4.4,0,0,1,1012.9,557.9Zm55.2-3.4a.4.4,0,0,1-.4-.4v-2.3a.4.4,0,1,1,.8,0v2.3A.4.4,0,0,1,1068.1,554.5Zm-55.2-2.6a.4.4,0,0,1-.4-.4v-2.3a.4.4,0,1,1,.8,0v2.3A.4.4,0,0,1,1012.9,551.9Zm55.2-3.4a.4.4,0,0,1-.4-.4v-2.3a.4.4,0,0,1,.8,0v2.3A.4.4,0,0,1,1068.1,548.5Zm-55.2-2.6a.4.4,0,0,1-.4-.4v-2.3a.4.4,0,1,1,.8,0v2.3A.4.4,0,0,1,1012.9,545.8Zm55.2-3.4a.4.4,0,0,1-.4-.4v-2.3a.4.4,0,1,1,.8,0v2.3A.4.4,0,0,1,1068.1,542.4Zm-55.2-2.6a.4.4,0,0,1-.4-.4v-2.3a.4.4,0,1,1,.8,0v2.3A.4.4,0,0,1,1012.9,539.8Zm55.2-3.4a.4.4,0,0,1-.4-.4v-2.3a.4.4,0,1,1,.8,0V536A.4.4,0,0,1,1068.1,536.4Zm-55.2-2.6a.4.4,0,0,1-.4-.4v-2.3a.4.4,0,1,1,.8,0v2.3A.4.4,0,0,1,1012.9,533.8Zm55.2-3.4a.4.4,0,0,1-.4-.4v-2.3a.4.4,0,0,1,.8,0V530A.4.4,0,0,1,1068.1,530.4Zm-55.2-2.6a.4.4,0,0,1-.4-.4v-2.3a.4.4,0,1,1,.8,0v2.3A.4.4,0,0,1,1012.9,527.8Zm55.2-3.4a.4.4,0,0,1-.4-.4v-2.3a.4.4,0,1,1,.8,0V524A.4.4,0,0,1,1068.1,524.4Zm-55.2-2.6a.4.4,0,0,1-.4-.4v-1.1c0-.4,0-.8.1-1.2a.4.4,0,0,1,.4-.3.4.4,0,0,1,.3.4q0,.6,0,1.2v1.1A.4.4,0,0,1,1012.9,521.8Zm55.2-3.4a.4.4,0,0,1-.4-.4v-2.3a.4.4,0,0,1,.8,0V518A.4.4,0,0,1,1068.1,518.4Zm-54.3-2.5h-.1a.4.4,0,0,1-.2-.5,15.2,15.2,0,0,1,1-2.1.4.4,0,0,1,.7.4,14.3,14.3,0,0,0-.9,2A.4.4,0,0,1,1013.8,515.8Zm54.3-3.5a.4.4,0,0,1-.4-.4v-2.3a.4.4,0,0,1,.8,0V512A.4.4,0,0,1,1068.1,512.3Zm-51.2-1.6h-.3a.4.4,0,0,1,0-.5l1.7-1.6a.4.4,0,1,1,.5.6l-1.6,1.5Zm4.8-3.6-.3-.2a.4.4,0,0,1,.2-.5l2-1a.4.4,0,0,1,.3.7l-2,1Zm46.4-.8a.4.4,0,0,1-.4-.4v-2.3a.4.4,0,0,1,.8,0v2.3A.4.4,0,0,1,1068.1,506.3Zm-41-1.9-.3-.2a.4.4,0,0,1,.2-.5l2-1a.4.4,0,1,1,.3.7l-2,1Zm5.3-2.8-.3-.2a.4.4,0,0,1,.2-.5l2-1a.4.4,0,1,1,.3.7l-2,1Zm35.7-1.3a.4.4,0,0,1-.4-.4v-2.3a.4.4,0,0,1,.8,0v2.3A.4.4,0,0,1,1068.1,500.3Zm-30.4-1.5-.3-.2a.4.4,0,0,1,.2-.5l2-1a.4.4,0,0,1,.3.7l-2,1Zm5.3-2.8-.3-.2a.4.4,0,0,1,.2-.5l2-1a.4.4,0,0,1,.3.7l-2,1Zm25-1.8a.4.4,0,0,1-.4-.4v-1.1a10.6,10.6,0,0,0-.1-1.2.4.4,0,0,1,.7-.1,11.4,11.4,0,0,1,.1,1.2v1.1A.4.4,0,0,1,1068.1,494.3Zm-19.7-1-.3-.2a.4.4,0,0,1,.2-.5l2-1a.4.4,0,0,1,.3.7l-2,1Zm5.3-2.8-.3-.2a.4.4,0,0,1,.2-.5l2-1a.4.4,0,0,1,.3.7l-2,1Zm13-2h-.3a4,4,0,0,0-1.6-1.2.4.4,0,0,1,.3-.7,4.8,4.8,0,0,1,1.9,1.5.4.4,0,0,1-.1.5Zm-7.6-.8-.3-.2a.4.4,0,0,1,.2-.5l2.2-.8a.4.4,0,0,1,.2.7l-2.1.7Z"/><path class="cls-75" d="M950.8,659.5l-1.4-.6v-.3l1.4.6Zm1.7-3.8-1.4-.6,1.4-3.5,1.4.5Zm2.7-7.1-1.4-.5,1.1-3.6,1.4.4Zm2.2-7.2-1.4-.4,1-3.6,1.5.4Zm1.9-7.3-1.5-.4.8-3.7,1.5.3Zm1.7-7.4-1.5-.3.7-3.7,1.5.3Zm1.4-7.4-1.5-.3.7-3.7,1.5.3Zm1.3-7.4-1.5-.2.6-3.7,1.5.2Zm1.1-7.5-1.5-.2.5-3.7,1.5.2Zm1-7.5-1.5-.2.4-3.7,1.5.2Zm.9-7.5-1.5-.2.4-3.7,1.5.2Zm.8-7.5h-1.5l.3-3.7h1.5Zm.7-7.5h-1.5l.3-3.8h1.5Zm.6-7.5h-1.5l.3-3.8h1.5Zm.5-7.5h-1.5l.2-3.8h1.5Zm.4-7.5h-1.5l.2-3.8h1.5Zm.4-7.5h-1.5l.2-3.8h1.5Zm.3-7.5h-1.5q.1-1.9.1-3.8h1.5Q970.4,534.9,970.3,536.8Zm.2-7.5H969q.1-2,.1-3.8h1.5Q970.6,527.3,970.5,529.2Zm.2-7.5h-1.5c0-1.4,0-2.6.1-3.8h1.5C970.7,519.1,970.7,520.3,970.7,521.7Zm.1-7.6h-1.5c0-1.2,0-2.2,0-2.8v-1h1.5v1C970.8,512,970.8,512.9,970.8,514.1Z"/><path class="cls-27" d="M927,555.8c-11.8,7.7-22.3-30.8-16.2-40.6C933.7,520,927,555.8,927,555.8Z"/><path class="cls-76" d="M913.4,514l-5.2,7.3-13.8-48.7-14.3,3.9,2.5,64.8c.8,20.6,26.1,30,40.2,14.9l4.7-5.1S935.9,519.7,913.4,514Z"/><path class="cls-77" d="M970.8,520.4,927,555.8s6.8-35.7-16.2-40.6l4.8-6.2,33.7-44S981.2,467,970.8,520.4Z"/><path class="cls-78" d="M934.4,548.5l-7.4,7.3s6.8-35.7-16.2-40.6l4.8-6.2C932.6,513.4,935.1,533.3,934.4,548.5Z"/><path class="cls-79" d="M894.4,472.5l1.5-2.6a30,30,0,0,0,3.8-13.5v-2.6a2.5,2.5,0,0,0-3-2.6h0a2.5,2.5,0,0,0-1.8,1.2l-3.8,6.5L882.1,438l-.5.3a12.5,12.5,0,0,0-5.2,8.5l-1.6,11.7a17.1,17.1,0,0,0,1.5,9.6l3.9,8.2,8.8,1.7Z"/><path class="cls-80" d="M1058,631.2a60.6,60.6,0,0,1-1.4,9.1s-36.9,39.4-82.9,27.9c-38.5-10.5-38-24.2-38-24.2s.6-2,1.7-5.7c13.2,15.7,32.2,23.9,53.9,23.8C1019.4,661.9,1048.1,639.7,1058,631.2Z"/><rect class="cls-81" width="1288.6" height="1030"/></g></svg>