<svg xmlns="http://www.w3.org/2000/svg" xmlns:xlink="http://www.w3.org/1999/xlink" viewBox="0 0 1717.8 1147"><defs><style>.cls-1{fill:none;}.cls-2{fill:#05c36b;}.cls-3{fill:url(#linear-gradient);}.cls-4{fill:url(#linear-gradient-2);}.cls-5{opacity:0.33;}.cls-6{fill:#067f43;}.cls-7{fill:url(#linear-gradient-3);}.cls-8{fill:#fff;}.cls-9{fill:url(#linear-gradient-4);}.cls-10{fill:url(#linear-gradient-5);}.cls-11{fill:url(#linear-gradient-6);}.cls-12{fill:url(#linear-gradient-7);}.cls-13{fill:url(#linear-gradient-8);}.cls-14{fill:url(#linear-gradient-9);}.cls-15{fill:url(#linear-gradient-10);}.cls-16{fill:url(#linear-gradient-11);}.cls-17{fill:url(#linear-gradient-12);}.cls-18,.cls-19,.cls-20,.cls-21{fill:#17aa60;}.cls-19{opacity:0.54;}.cls-20{opacity:0.36;}.cls-21{opacity:0.26;}.cls-22{fill:url(#linear-gradient-13);}.cls-23{fill:url(#linear-gradient-14);}.cls-24{fill:url(#linear-gradient-15);}.cls-25{fill:url(#linear-gradient-16);}.cls-26{fill:url(#linear-gradient-17);}.cls-27{fill:url(#linear-gradient-18);}.cls-28{fill:url(#linear-gradient-19);}.cls-29{fill:url(#linear-gradient-20);}.cls-30{fill:url(#linear-gradient-21);}.cls-31{fill:#febe40;}.cls-32{fill:url(#linear-gradient-22);}.cls-33{fill:url(#linear-gradient-23);}.cls-34{fill:url(#linear-gradient-24);}.cls-35{fill:url(#linear-gradient-25);}.cls-36{fill:url(#linear-gradient-26);}.cls-37{fill:url(#linear-gradient-27);}.cls-38{fill:url(#linear-gradient-28);}.cls-39{fill:url(#linear-gradient-29);}.cls-40{fill:url(#linear-gradient-30);}.cls-41{fill:url(#linear-gradient-31);}.cls-42{fill:url(#linear-gradient-32);}.cls-43{fill:url(#linear-gradient-33);}.cls-44{fill:url(#linear-gradient-34);}.cls-45{fill:url(#linear-gradient-35);}.cls-46{fill:url(#linear-gradient-36);}.cls-47{fill:url(#linear-gradient-37);}.cls-48{fill:#50ef9f;}.cls-49{fill:url(#linear-gradient-38);}.cls-50{fill:url(#linear-gradient-39);}.cls-51{fill:url(#linear-gradient-40);}.cls-52{fill:url(#linear-gradient-41);}.cls-53{fill:url(#linear-gradient-42);}.cls-54{fill:url(#linear-gradient-43);}.cls-55{fill:url(#linear-gradient-44);}.cls-56{fill:url(#linear-gradient-45);}.cls-57{fill:url(#linear-gradient-46);}.cls-58{fill:url(#linear-gradient-47);}.cls-59{fill:url(#linear-gradient-48);}.cls-60{fill:url(#linear-gradient-49);}.cls-61{fill:url(#linear-gradient-50);}.cls-62{fill:url(#linear-gradient-51);}.cls-63{fill:url(#linear-gradient-52);}.cls-64{fill:url(#linear-gradient-53);}.cls-65{fill:url(#linear-gradient-54);}.cls-66{fill:url(#linear-gradient-55);}.cls-67{fill:url(#linear-gradient-56);}.cls-68{fill:url(#linear-gradient-57);}.cls-69{fill:url(#linear-gradient-58);}.cls-70{fill:url(#linear-gradient-59);}.cls-71{fill:url(#linear-gradient-60);}.cls-72{fill:url(#linear-gradient-61);}.cls-73{fill:url(#linear-gradient-62);}.cls-74{fill:url(#linear-gradient-63);}.cls-75{fill:url(#linear-gradient-64);}.cls-76{fill:url(#linear-gradient-65);}.cls-77{fill:url(#linear-gradient-66);}.cls-78{fill:url(#linear-gradient-67);}.cls-79{fill:url(#linear-gradient-68);}.cls-80{fill:url(#linear-gradient-69);}.cls-81{fill:url(#linear-gradient-70);}.cls-82{fill:url(#linear-gradient-71);}.cls-83{fill:url(#linear-gradient-72);}.cls-84{isolation:isolate;}.cls-85{fill:url(#linear-gradient-73);}.cls-86{fill:url(#linear-gradient-74);}.cls-87{fill:url(#linear-gradient-75);}.cls-88{clip-path:url(#clip-path);}.cls-89{fill:url(#linear-gradient-76);}.cls-90{fill:url(#linear-gradient-77);}.cls-91{fill:url(#linear-gradient-78);}.cls-92{clip-path:url(#clip-path-2);}.cls-93{fill:url(#linear-gradient-79);}.cls-94{fill:url(#linear-gradient-80);}.cls-95{fill:url(#linear-gradient-81);}.cls-96{fill:url(#linear-gradient-82);}.cls-97{fill:url(#linear-gradient-83);}.cls-98{fill:url(#linear-gradient-84);}.cls-99{fill:url(#linear-gradient-85);}.cls-100{fill:url(#linear-gradient-86);}.cls-101{fill:url(#linear-gradient-87);}.cls-102{fill:url(#linear-gradient-88);}.cls-103{fill:url(#linear-gradient-89);}.cls-104{fill:url(#linear-gradient-90);}.cls-105{fill:url(#linear-gradient-91);}.cls-106{fill:url(#linear-gradient-92);}.cls-107{fill:url(#linear-gradient-93);}.cls-108{fill:url(#linear-gradient-94);}.cls-109{fill:url(#linear-gradient-95);}.cls-110{fill:url(#linear-gradient-96);}.cls-111{fill:url(#linear-gradient-97);}.cls-112{fill:url(#linear-gradient-98);}.cls-113{fill:url(#linear-gradient-99);}.cls-114{fill:url(#linear-gradient-100);}.cls-115{fill:url(#linear-gradient-101);}.cls-116{fill:url(#linear-gradient-102);}.cls-117{fill:url(#linear-gradient-103);}.cls-118{fill:url(#linear-gradient-104);}.cls-119{fill:url(#linear-gradient-105);}.cls-120{fill:url(#linear-gradient-106);}.cls-121{fill:url(#linear-gradient-107);}.cls-122{fill:url(#linear-gradient-108);}.cls-123{fill:url(#linear-gradient-109);}.cls-124{fill:url(#linear-gradient-110);}.cls-125{fill:url(#linear-gradient-111);}.cls-126{fill:url(#linear-gradient-112);}.cls-127{fill:url(#linear-gradient-113);}.cls-128{fill:url(#linear-gradient-114);}.cls-129{fill:url(#linear-gradient-115);}</style><linearGradient id="linear-gradient" x1="1004.19" y1="860.05" x2="1233.77" y2="282.21" gradientUnits="userSpaceOnUse"><stop offset="0" stop-color="#067f43" stop-opacity="0"/><stop offset="1" stop-color="#12e079"/></linearGradient><linearGradient id="linear-gradient-2" x1="1124.97" y1="799.64" x2="1175.44" y2="391.66" gradientUnits="userSpaceOnUse"><stop offset="0" stop-color="#e5e6e7"/><stop offset="1" stop-color="#fff"/></linearGradient><linearGradient id="linear-gradient-3" x1="1247.11" y1="485.74" x2="1148.7" y2="624.46" gradientUnits="userSpaceOnUse"><stop offset="0" stop-color="#fed330"/><stop offset="1" stop-color="#febe40"/></linearGradient><linearGradient id="linear-gradient-4" x1="927.09" y1="1066.31" x2="1318.8" y2="1066.31" gradientUnits="userSpaceOnUse"><stop offset="0" stop-color="#067f43"/><stop offset="1" stop-color="#12e079"/></linearGradient><linearGradient id="linear-gradient-5" x1="660.82" y1="879.56" x2="1825.07" y2="879.56" xlink:href="#linear-gradient-4"/><linearGradient id="linear-gradient-6" x1="881.09" y1="965.76" x2="844.19" y2="1005.7" gradientTransform="matrix(-1.21, 0.18, 0.22, 0.79, 2043.45, -25.86)" xlink:href="#linear-gradient-3"/><linearGradient id="linear-gradient-7" x1="1198.28" y1="960.53" x2="1215.64" y2="960.53" gradientTransform="matrix(1.23, 0.03, -0.1, 0.81, -150.3, 113.72)" xlink:href="#linear-gradient-3"/><linearGradient id="linear-gradient-8" x1="861.34" y1="983.58" x2="816.83" y2="1025.24" gradientTransform="matrix(-1.21, 0.18, 0.22, 0.79, 2043.45, -25.86)" gradientUnits="userSpaceOnUse"><stop offset="0" stop-color="#faf39d"/><stop offset="1" stop-color="#fed330"/></linearGradient><linearGradient id="linear-gradient-9" x1="859.41" y1="981.51" x2="814.9" y2="1023.17" xlink:href="#linear-gradient-8"/><linearGradient id="linear-gradient-10" x1="1375.83" y1="1016.78" x2="1582.5" y2="1085.53" gradientUnits="userSpaceOnUse"><stop offset="0" stop-color="#067f43" stop-opacity="0"/><stop offset="1" stop-color="#067f43"/></linearGradient><linearGradient id="linear-gradient-11" x1="1277.71" y1="1025.56" x2="1474.98" y2="1098.18" xlink:href="#linear-gradient-10"/><linearGradient id="linear-gradient-12" x1="1343.29" y1="748.57" x2="1333.12" y2="668.31" xlink:href="#linear-gradient-4"/><linearGradient id="linear-gradient-13" x1="1421.28" y1="1043.46" x2="1518.3" y2="947.35" gradientUnits="userSpaceOnUse"><stop offset="0" stop-color="#baf7d5"/><stop offset="1" stop-color="#fff"/></linearGradient><linearGradient id="linear-gradient-14" x1="1425.4" y1="1039.72" x2="1483.94" y2="1039.72" gradientUnits="userSpaceOnUse"><stop offset="0" stop-color="#febe40"/><stop offset="1" stop-color="#fed330"/></linearGradient><linearGradient id="linear-gradient-15" x1="1476.08" y1="1048.16" x2="1535.35" y2="1048.16" xlink:href="#linear-gradient-14"/><linearGradient id="linear-gradient-16" x1="1525.31" y1="837.36" x2="1387.29" y2="957.16" gradientUnits="userSpaceOnUse"><stop offset="0" stop-color="#12e079"/><stop offset="1" stop-color="#067f43"/></linearGradient><linearGradient id="linear-gradient-17" x1="1336.55" y1="1039.76" x2="1430.38" y2="970.52" xlink:href="#linear-gradient-13"/><linearGradient id="linear-gradient-18" x1="1324.25" y1="1044.43" x2="1382.79" y2="1044.43" xlink:href="#linear-gradient-14"/><linearGradient id="linear-gradient-19" x1="1366.04" y1="1053.88" x2="1425.31" y2="1053.88" xlink:href="#linear-gradient-14"/><linearGradient id="linear-gradient-20" x1="1476.51" y1="840.67" x2="1338.49" y2="960.46" xlink:href="#linear-gradient-16"/><linearGradient id="linear-gradient-21" x1="1437.93" y1="872.06" x2="1418.55" y2="951.8" gradientUnits="userSpaceOnUse"><stop offset="0" stop-color="#067f43"/><stop offset="1" stop-color="#17aa60" stop-opacity="0"/></linearGradient><linearGradient id="linear-gradient-22" x1="1783.62" y1="830.06" x2="1805.58" y2="770.04" gradientTransform="matrix(0.99, 0.13, -0.13, 0.99, -222.49, -161.75)" xlink:href="#linear-gradient-4"/><linearGradient id="linear-gradient-23" x1="1355.65" y1="969.7" x2="1384.27" y2="914.35" xlink:href="#linear-gradient-4"/><linearGradient id="linear-gradient-24" x1="1404.93" y1="907.66" x2="1337.84" y2="939.06" xlink:href="#linear-gradient-16"/><linearGradient id="linear-gradient-25" x1="1368.18" y1="999.91" x2="1414.64" y2="950.72" xlink:href="#linear-gradient-4"/><linearGradient id="linear-gradient-26" x1="1453.85" y1="998.18" x2="1475.71" y2="910.39" xlink:href="#linear-gradient-4"/><linearGradient id="linear-gradient-27" x1="1400.85" y1="707.02" x2="1346.54" y2="590.87" xlink:href="#linear-gradient-13"/><linearGradient id="linear-gradient-28" x1="1433.58" y1="653.25" x2="1387.67" y2="685.85" gradientTransform="matrix(1, 0, 0, 1, 0, 0)" xlink:href="#linear-gradient-8"/><linearGradient id="linear-gradient-29" x1="1461.34" y1="711.21" x2="1398.94" y2="831.91" xlink:href="#linear-gradient-3"/><linearGradient id="linear-gradient-30" x1="1403.13" y1="675.39" x2="1435.52" y2="653.57" xlink:href="#linear-gradient-13"/><linearGradient id="linear-gradient-31" x1="1387.74" y1="698.49" x2="1444.62" y2="663.13" gradientUnits="userSpaceOnUse"><stop offset="0" stop-color="#fed330"/><stop offset="1" stop-color="#faf39d"/></linearGradient><linearGradient id="linear-gradient-32" x1="1409.55" y1="764.16" x2="1423.89" y2="653.7" xlink:href="#linear-gradient-4"/><linearGradient id="linear-gradient-33" x1="1384.03" y1="738.16" x2="1419.22" y2="699.56" xlink:href="#linear-gradient"/><linearGradient id="linear-gradient-34" x1="2845.12" y1="66.69" x2="2864.02" y2="14.67" gradientTransform="translate(-924.1 -905.4) rotate(33.3)" gradientUnits="userSpaceOnUse"><stop offset="0" stop-color="#067f43"/><stop offset="1" stop-color="#12e079" stop-opacity="0"/></linearGradient><linearGradient id="linear-gradient-35" x1="1428.3" y1="847.02" x2="1469.64" y2="616.76" xlink:href="#linear-gradient-4"/><linearGradient id="linear-gradient-36" x1="1437.17" y1="831.24" x2="1459.96" y2="704.28" xlink:href="#linear-gradient-4"/><linearGradient id="linear-gradient-37" x1="1438.26" y1="848.81" x2="1479.59" y2="618.55" xlink:href="#linear-gradient-4"/><linearGradient id="linear-gradient-38" x1="1361.19" y1="724.45" x2="1307.44" y2="609.52" xlink:href="#linear-gradient-13"/><linearGradient id="linear-gradient-39" x1="1339.83" y1="624.19" x2="1333.57" y2="647.87" xlink:href="#linear-gradient-16"/><linearGradient id="linear-gradient-40" x1="1339.53" y1="624.11" x2="1333.27" y2="647.79" xlink:href="#linear-gradient-16"/><linearGradient id="linear-gradient-41" x1="1339.23" y1="624.03" x2="1332.97" y2="647.72" xlink:href="#linear-gradient-16"/><linearGradient id="linear-gradient-42" x1="1336.89" y1="623.41" x2="1330.63" y2="647.1" xlink:href="#linear-gradient-16"/><linearGradient id="linear-gradient-43" x1="1371.28" y1="624.76" x2="1377.21" y2="642.98" xlink:href="#linear-gradient-16"/><linearGradient id="linear-gradient-44" x1="1378.86" y1="644.44" x2="1368.61" y2="615.57" gradientUnits="userSpaceOnUse"><stop offset="0" stop-color="#05c36b"/><stop offset="1" stop-color="#baf7d5"/></linearGradient><linearGradient id="linear-gradient-45" x1="1406.45" y1="682.6" x2="1399.62" y2="617.69" xlink:href="#linear-gradient-13"/><linearGradient id="linear-gradient-46" x1="1379.85" y1="696.57" x2="1410.14" y2="625.05" xlink:href="#linear-gradient-16"/><linearGradient id="linear-gradient-47" x1="1374.36" y1="623.75" x2="1380.29" y2="641.97" xlink:href="#linear-gradient-16"/><linearGradient id="linear-gradient-48" x1="1390.89" y1="656.1" x2="1402.73" y2="627.4" xlink:href="#linear-gradient-44"/><linearGradient id="linear-gradient-49" x1="1395.42" y1="635.2" x2="1386.54" y2="677.79" xlink:href="#linear-gradient-16"/><linearGradient id="linear-gradient-50" x1="1404.05" y1="632.63" x2="1462.79" y2="632.63" xlink:href="#linear-gradient-3"/><linearGradient id="linear-gradient-51" x1="1458.82" y1="622.35" x2="1411.34" y2="643.36" xlink:href="#linear-gradient-3"/><linearGradient id="linear-gradient-52" x1="1376.83" y1="613.85" x2="1441.67" y2="613.85" xlink:href="#linear-gradient-3"/><linearGradient id="linear-gradient-53" x1="1438.9" y1="590.14" x2="1391.41" y2="630.8" gradientTransform="matrix(1, 0, 0, 1, 0, 0)" xlink:href="#linear-gradient-8"/><linearGradient id="linear-gradient-54" x1="1385.93" y1="640.04" x2="1379.9" y2="604.86" xlink:href="#linear-gradient-3"/><linearGradient id="linear-gradient-55" x1="1342.85" y1="624.87" x2="1328.62" y2="638.48" xlink:href="#linear-gradient-44"/><linearGradient id="linear-gradient-56" x1="1408.59" y1="819.79" x2="1426.13" y2="754.65" xlink:href="#linear-gradient-4"/><linearGradient id="linear-gradient-57" x1="1404.64" y1="815.5" x2="1417.28" y2="771.09" xlink:href="#linear-gradient-4"/><linearGradient id="linear-gradient-58" x1="1439.77" y1="831.6" x2="1477.69" y2="686.06" xlink:href="#linear-gradient-4"/><linearGradient id="linear-gradient-59" x1="1443.39" y1="839.05" x2="1471.51" y2="749.58" xlink:href="#linear-gradient-4"/><linearGradient id="linear-gradient-60" x1="1446.97" y1="819.56" x2="1468.67" y2="750.53" xlink:href="#linear-gradient-4"/><linearGradient id="linear-gradient-61" x1="1464.91" y1="810.51" x2="1462.64" y2="767.69" xlink:href="#linear-gradient-4"/><linearGradient id="linear-gradient-62" x1="1444.35" y1="825.03" x2="1471.02" y2="722.65" xlink:href="#linear-gradient-4"/><linearGradient id="linear-gradient-63" x1="1413.95" y1="756.88" x2="1354.84" y2="871.22" xlink:href="#linear-gradient-3"/><linearGradient id="linear-gradient-64" x1="1344.59" y1="789.32" x2="1293.91" y2="694.97" xlink:href="#linear-gradient-13"/><linearGradient id="linear-gradient-65" x1="1377.39" y1="694.19" x2="1363.77" y2="770.14" gradientTransform="matrix(1, 0, 0, 1, 0, 0)" xlink:href="#linear-gradient-8"/><linearGradient id="linear-gradient-66" x1="1339.53" y1="766.55" x2="1361.06" y2="766.55" gradientTransform="matrix(1, 0, 0, 1, 0, 0)" xlink:href="#linear-gradient-8"/><linearGradient id="linear-gradient-67" x1="1362" y1="782.22" x2="1310.07" y2="685.54" xlink:href="#linear-gradient-13"/><linearGradient id="linear-gradient-68" x1="1382.36" y1="899.89" x2="1466.06" y2="814.48" xlink:href="#linear-gradient-14"/><linearGradient id="linear-gradient-69" x1="1660.82" y1="930.2" x2="1568.81" y2="822.42" xlink:href="#linear-gradient-2"/><linearGradient id="linear-gradient-70" x1="1622.6" y1="882.46" x2="1538.48" y2="768.2" xlink:href="#linear-gradient-2"/><linearGradient id="linear-gradient-71" x1="1567.11" y1="944.84" x2="1462.54" y2="822.34" gradientTransform="matrix(-1, 0, 0, 1, 2476.14, 0)" xlink:href="#linear-gradient-2"/><linearGradient id="linear-gradient-72" x1="1523.68" y1="890.58" x2="1428.07" y2="760.71" gradientTransform="matrix(-1, 0, 0, 1, 2476.14, 0)" xlink:href="#linear-gradient-2"/><linearGradient id="linear-gradient-73" x1="1539.2" y1="349.63" x2="1479.19" y2="381.56" xlink:href="#linear-gradient-2"/><linearGradient id="linear-gradient-74" x1="1539.09" y1="349.42" x2="1479.08" y2="381.36" xlink:href="#linear-gradient-2"/><linearGradient id="linear-gradient-75" x1="1378.74" y1="508.23" x2="1545.72" y2="324.93" xlink:href="#linear-gradient-2"/><clipPath id="clip-path"><path class="cls-1" d="M1116.1,775.5v60.3c0,4.9,3.5,6.8,7.7,4.4l24.9-14.4,4.9,4.6c.9.8,2.2.7,3.5,0a9.3,9.3,0,0,0,3.5-4.1l4.9-10.2,27.9-16.1a16.9,16.9,0,0,0,7.7-13.2V726.4c0-4.9-3.5-6.8-7.7-4.4l-60,34.7-9.6,5.6A16.8,16.8,0,0,0,1116.1,775.5Z"/></clipPath><linearGradient id="linear-gradient-76" x1="405.53" y1="746.89" x2="362.61" y2="809.81" gradientTransform="translate(785.3)" xlink:href="#linear-gradient-8"/><linearGradient id="linear-gradient-77" x1="381.86" y1="730.75" x2="338.95" y2="793.67" gradientTransform="translate(785.3)" xlink:href="#linear-gradient-8"/><linearGradient id="linear-gradient-78" x1="359.28" y1="755.03" x2="326.54" y2="801.59" gradientTransform="translate(785.3)" xlink:href="#linear-gradient-8"/><clipPath id="clip-path-2"><path class="cls-1" d="M1598.9,599.4v60.3c0,4.9-3.5,6.8-7.7,4.4l-24.9-14.4-4.9,4.6c-.9.8-2.2.7-3.5,0a9.3,9.3,0,0,1-3.5-4.1l-4.9-10.2-27.9-16.1a16.9,16.9,0,0,1-7.7-13.2V550.4c0-4.9,3.5-6.8,7.7-4.4l60,34.7,9.6,5.6A16.8,16.8,0,0,1,1598.9,599.4Z"/></clipPath><linearGradient id="linear-gradient-79" x1="-619.81" y1="645.85" x2="-574.37" y2="574.87" gradientTransform="translate(2176.8)" xlink:href="#linear-gradient-4"/><linearGradient id="linear-gradient-80" x1="-619.73" y1="645.9" x2="-574.28" y2="574.93" gradientTransform="translate(2176.8)" xlink:href="#linear-gradient-4"/><linearGradient id="linear-gradient-81" x1="-621.35" y1="644.86" x2="-575.91" y2="573.89" gradientTransform="translate(2176.8)" xlink:href="#linear-gradient-4"/><linearGradient id="linear-gradient-82" x1="-621.43" y1="644.81" x2="-575.99" y2="573.83" gradientTransform="translate(2176.8)" xlink:href="#linear-gradient-4"/><linearGradient id="linear-gradient-83" x1="1622.87" y1="600.17" x2="1550.32" y2="635.13" xlink:href="#linear-gradient-4"/><linearGradient id="linear-gradient-84" x1="-628.4" y1="640.34" x2="-582.96" y2="569.37" gradientTransform="translate(2176.8)" xlink:href="#linear-gradient-4"/><linearGradient id="linear-gradient-85" x1="-629.05" y1="639.93" x2="-583.6" y2="568.96" gradientTransform="translate(2176.8)" xlink:href="#linear-gradient-4"/><linearGradient id="linear-gradient-86" x1="-629.33" y1="639.75" x2="-583.89" y2="568.77" gradientTransform="translate(2176.8)" xlink:href="#linear-gradient-4"/><linearGradient id="linear-gradient-87" x1="-629.58" y1="639.59" x2="-584.14" y2="568.62" gradientTransform="translate(2176.8)" xlink:href="#linear-gradient-4"/><linearGradient id="linear-gradient-88" x1="-629.92" y1="639.37" x2="-584.48" y2="568.4" gradientTransform="translate(2176.8)" xlink:href="#linear-gradient-4"/><linearGradient id="linear-gradient-89" x1="-629.33" y1="639.75" x2="-583.89" y2="568.78" gradientTransform="translate(2176.8)" xlink:href="#linear-gradient-4"/><linearGradient id="linear-gradient-90" x1="-630.04" y1="639.29" x2="-584.6" y2="568.32" gradientTransform="translate(2176.8)" xlink:href="#linear-gradient-4"/><linearGradient id="linear-gradient-91" x1="-630.95" y1="638.71" x2="-585.51" y2="567.74" gradientTransform="translate(2176.8)" xlink:href="#linear-gradient-4"/><linearGradient id="linear-gradient-92" x1="-631.04" y1="638.66" x2="-585.6" y2="567.68" gradientTransform="translate(2176.8)" xlink:href="#linear-gradient-4"/><linearGradient id="linear-gradient-93" x1="-629.75" y1="639.48" x2="-584.31" y2="568.51" gradientTransform="translate(2176.8)" xlink:href="#linear-gradient-4"/><linearGradient id="linear-gradient-94" x1="-627.89" y1="640.67" x2="-582.45" y2="569.7" gradientTransform="translate(2176.8)" xlink:href="#linear-gradient-4"/><linearGradient id="linear-gradient-95" x1="-632.86" y1="637.49" x2="-587.42" y2="566.51" gradientTransform="translate(2176.8)" xlink:href="#linear-gradient-4"/><linearGradient id="linear-gradient-96" x1="-627.56" y1="640.88" x2="-582.12" y2="569.91" gradientTransform="translate(2176.8)" xlink:href="#linear-gradient-4"/><linearGradient id="linear-gradient-97" x1="1623.67" y1="601.83" x2="1551.12" y2="636.8" xlink:href="#linear-gradient-4"/><linearGradient id="linear-gradient-98" x1="-633.19" y1="637.28" x2="-587.75" y2="566.3" gradientTransform="translate(2176.8)" xlink:href="#linear-gradient-4"/><linearGradient id="linear-gradient-99" x1="-635.7" y1="635.67" x2="-590.26" y2="564.7" gradientTransform="translate(2176.8)" xlink:href="#linear-gradient-4"/><linearGradient id="linear-gradient-100" x1="1647.46" y1="607.2" x2="1449.08" y2="642.25" xlink:href="#linear-gradient-4"/><linearGradient id="linear-gradient-101" x1="-638.93" y1="633.6" x2="-593.48" y2="562.63" gradientTransform="translate(2176.8)" xlink:href="#linear-gradient-4"/><linearGradient id="linear-gradient-102" x1="-636.68" y1="635.04" x2="-591.24" y2="564.07" gradientTransform="translate(2176.8)" xlink:href="#linear-gradient-4"/><linearGradient id="linear-gradient-103" x1="1643.57" y1="595.24" x2="1540" y2="574.21" xlink:href="#linear-gradient-4"/><linearGradient id="linear-gradient-104" x1="1646.92" y1="604.14" x2="1448.54" y2="639.19" xlink:href="#linear-gradient-4"/><linearGradient id="linear-gradient-105" x1="1646.75" y1="603.14" x2="1448.37" y2="638.19" xlink:href="#linear-gradient-4"/><linearGradient id="linear-gradient-106" x1="-640.66" y1="632.49" x2="-595.22" y2="561.52" gradientTransform="translate(2176.8)" xlink:href="#linear-gradient-4"/><linearGradient id="linear-gradient-107" x1="-640.6" y1="632.53" x2="-595.16" y2="561.56" gradientTransform="translate(2176.8)" xlink:href="#linear-gradient-4"/><linearGradient id="linear-gradient-108" x1="1635.48" y1="635.08" x2="1531.91" y2="614.05" xlink:href="#linear-gradient-4"/><linearGradient id="linear-gradient-109" x1="1635.93" y1="632.85" x2="1532.34" y2="611.82" xlink:href="#linear-gradient-4"/><linearGradient id="linear-gradient-110" x1="-642.72" y1="631.18" x2="-597.28" y2="560.2" gradientTransform="translate(2176.8)" xlink:href="#linear-gradient-4"/><linearGradient id="linear-gradient-111" x1="-642.68" y1="631.2" x2="-597.24" y2="560.23" gradientTransform="translate(2176.8)" xlink:href="#linear-gradient-4"/><linearGradient id="linear-gradient-112" x1="1639.65" y1="614.55" x2="1536.08" y2="593.52" xlink:href="#linear-gradient-4"/><linearGradient id="linear-gradient-113" x1="1638.81" y1="618.66" x2="1535.24" y2="597.63" xlink:href="#linear-gradient-4"/><linearGradient id="linear-gradient-114" x1="-553.47" y1="537.35" x2="-601.63" y2="583.37" gradientTransform="translate(2176.8)" xlink:href="#linear-gradient-8"/><linearGradient id="linear-gradient-115" x1="-596.41" y1="574.16" x2="-624.4" y2="606.42" gradientTransform="translate(2176.8)" xlink:href="#linear-gradient-8"/></defs><title>Asset 12</title><g id="Layer_2" data-name="Layer 2"><g id="Layer_6" data-name="Layer 6"><path class="cls-2" d="M1717.8,0V1097c-81.5,23.8-156.9,37.8-221.3,42.8-554.8,42.6-839.4-113.4-1154.8-176.4l-24-4.6C206,938.3,100.6,935.3,0,945.1V0Z"/><path class="cls-3" d="M1013.1,490.1V660.5a12.8,12.8,0,0,0,18.7,11.4l230.6-120.4a12.8,12.8,0,0,0,6.9-11.4V374a12.8,12.8,0,0,0-18.6-11.4L1020.2,478.7A12.8,12.8,0,0,0,1013.1,490.1Z"/><path class="cls-4" d="M1030.6,502.3V672.7a12.8,12.8,0,0,0,18.7,11.4l230.6-120.4a12.8,12.8,0,0,0,6.9-11.4V386.2a12.8,12.8,0,0,0-18.6-11.4L1037.6,490.9A12.8,12.8,0,0,0,1030.6,502.3Z"/><g class="cls-5"><path class="cls-6" d="M1119.9,578.1a.4.4,0,0,1,.4.4v46.6a.4.4,0,0,1-.2.3l-63.5,33.2h-.2a.4.4,0,0,1-.4-.4V610.4a.4.4,0,0,1,.2-.3l63.5-32h.2m0-1.9-1,.2-63.5,32a2.3,2.3,0,0,0-1.3,2.1v47.8a2.3,2.3,0,0,0,2.3,2.3l1.1-.3,63.5-33.2a2.3,2.3,0,0,0,1.2-2V578.5a2.3,2.3,0,0,0-2.3-2.3Z"/><path class="cls-6" d="M1054.2,601.5V620l51-26.6a2.1,2.1,0,0,0,1.1-1.8V576a2.1,2.1,0,0,0-3-1.9l-46.7,23.5A4.3,4.3,0,0,0,1054.2,601.5Z"/><path class="cls-6" d="M1114.8,602.8c1.3,1.7.8,5.9-.4,9-1.8,4.6-5,8.5-6.7,9.7h-.2a5.8,5.8,0,0,1-6.8-1.9c-1.2-1.7-1.8-5.3-.5-8.5a8.7,8.7,0,0,1,3.7-4.3l.3-.2a3.8,3.8,0,0,1,3.3-.1,12.4,12.4,0,0,1,3.3-3.7l.3-.2C1113.2,601.6,1114.3,602.1,1114.8,602.8Zm-1.9,8.9c.9-2.5,1.4-5.9.4-7.1s-1.2-.6-2.3,0l-.3.2a11.1,11.1,0,0,0-2.7,3.4l-.6,1.2-.6-.4a2.8,2.8,0,0,0-2.7-.2h-.3a5.1,5.1,0,0,0-2.2,2.6,7.7,7.7,0,0,0,.5,6.6,4.9,4.9,0,0,0,5.4,1.8,21.4,21.4,0,0,0,5.4-8"/></g><g class="cls-5"><path class="cls-6" d="M1207,452.2a.4.4,0,0,1,.4.4v46.6a.4.4,0,0,1-.2.3l-63.5,33.2h-.2a.4.4,0,0,1-.4-.4V484.6a.4.4,0,0,1,.2-.3l63.5-32h.2m0-1.9-1,.2-63.5,32a2.3,2.3,0,0,0-1.3,2.1v47.8a2.3,2.3,0,0,0,2.3,2.3l1.1-.3,63.5-33.2a2.3,2.3,0,0,0,1.2-2V452.6a2.3,2.3,0,0,0-2.3-2.3Z"/><path class="cls-6" d="M1141.2,475.6v18.5l51-26.6a2.1,2.1,0,0,0,1.1-1.8V450.1a2.1,2.1,0,0,0-3-1.9l-46.7,23.5A4.3,4.3,0,0,0,1141.2,475.6Z"/><path class="cls-6" d="M1201.9,476.9c1.3,1.7.8,5.9-.4,9-1.8,4.6-5,8.5-6.7,9.7h-.2a5.8,5.8,0,0,1-6.8-1.9c-1.2-1.7-1.8-5.3-.5-8.5a8.7,8.7,0,0,1,3.7-4.3l.3-.2a3.8,3.8,0,0,1,3.3-.1,12.4,12.4,0,0,1,3.3-3.7l.3-.2C1200.3,475.7,1201.4,476.2,1201.9,476.9Zm-1.9,8.9c.9-2.5,1.4-5.9.4-7.1s-1.2-.6-2.3,0l-.3.2a11.1,11.1,0,0,0-2.7,3.4l-.6,1.2-.6-.4a2.8,2.8,0,0,0-2.7-.2h-.3a5.1,5.1,0,0,0-2.2,2.6,7.7,7.7,0,0,0,.5,6.6,4.9,4.9,0,0,0,5.4,1.8,21.4,21.4,0,0,0,5.4-8"/></g><g class="cls-5"><path class="cls-6" d="M1294.1,489.6a.4.4,0,0,1,.4.4v46.6a.4.4,0,0,1-.2.3L1230.8,570h-.2a.4.4,0,0,1-.4-.4V521.9a.4.4,0,0,1,.2-.3l63.5-32h.2m0-1.9-1,.2-63.5,32a2.3,2.3,0,0,0-1.3,2.1v47.8a2.3,2.3,0,0,0,2.3,2.3l1.1-.3,63.5-33.2a2.3,2.3,0,0,0,1.2-2V489.9a2.3,2.3,0,0,0-2.3-2.3Z"/><path class="cls-6" d="M1228.3,513v18.5l51-26.6a2.1,2.1,0,0,0,1.1-1.8V487.5a2.1,2.1,0,0,0-3-1.9l-46.7,23.5A4.3,4.3,0,0,0,1228.3,513Z"/><path class="cls-6" d="M1289,514.3c1.3,1.7.8,5.9-.4,9-1.8,4.6-5,8.5-6.7,9.7h-.2a5.8,5.8,0,0,1-6.8-1.9c-1.2-1.7-1.8-5.3-.5-8.5a8.7,8.7,0,0,1,3.7-4.3l.3-.2a3.8,3.8,0,0,1,3.3-.1,12.4,12.4,0,0,1,3.3-3.7l.3-.2C1287.4,513,1288.5,513.6,1289,514.3Zm-1.9,8.9c.9-2.5,1.4-5.9.4-7.1s-1.2-.6-2.3,0l-.3.2a11.1,11.1,0,0,0-2.7,3.4l-.6,1.2-.6-.4a2.8,2.8,0,0,0-2.7-.2h-.3a5.1,5.1,0,0,0-2.2,2.6,7.7,7.7,0,0,0,.5,6.6,4.9,4.9,0,0,0,5.4,1.8,21.4,21.4,0,0,0,5.4-8"/></g><g class="cls-5"><path class="cls-6" d="M1119.9,493.3a.4.4,0,0,1,.4.4v46.6a.4.4,0,0,1-.2.3l-63.5,33.2h-.2a.4.4,0,0,1-.4-.4V525.6a.4.4,0,0,1,.2-.3l63.5-32h.2m0-1.9-1,.2-63.5,32a2.3,2.3,0,0,0-1.3,2.1v47.8a2.3,2.3,0,0,0,2.3,2.3l1.1-.3,63.5-33.2a2.3,2.3,0,0,0,1.2-2V493.6a2.3,2.3,0,0,0-2.3-2.3Z"/><path class="cls-6" d="M1054.2,516.7v18.5l51-26.6a2.1,2.1,0,0,0,1.1-1.8V491.2a2.1,2.1,0,0,0-3-1.9l-46.7,23.5A4.3,4.3,0,0,0,1054.2,516.7Z"/><path class="cls-6" d="M1114.8,518c1.3,1.7.8,5.9-.4,9-1.8,4.6-5,8.5-6.7,9.7h-.2a5.8,5.8,0,0,1-6.8-1.9c-1.2-1.7-1.8-5.3-.5-8.5a8.7,8.7,0,0,1,3.7-4.3l.3-.2a3.8,3.8,0,0,1,3.3-.1,12.4,12.4,0,0,1,3.3-3.7l.3-.2C1113.2,516.7,1114.3,517.3,1114.8,518Zm-1.9,8.9c.9-2.5,1.4-5.9.4-7.1s-1.2-.6-2.3,0l-.3.2a11.1,11.1,0,0,0-2.7,3.4l-.6,1.2-.6-.4a2.8,2.8,0,0,0-2.7-.2h-.3a5.1,5.1,0,0,0-2.2,2.6,7.7,7.7,0,0,0,.5,6.6,4.9,4.9,0,0,0,5.4,1.8,21.4,21.4,0,0,0,5.4-8"/></g><g class="cls-5"><path class="cls-6" d="M1294.1,404.8a.4.4,0,0,1,.4.4v46.6a.4.4,0,0,1-.2.3l-63.5,33.2h-.2a.4.4,0,0,1-.4-.4V437.1a.4.4,0,0,1,.2-.3l63.5-32h.2m0-1.9-1,.2-63.5,32a2.3,2.3,0,0,0-1.3,2.1v47.8a2.3,2.3,0,0,0,2.3,2.3l1.1-.3,63.5-33.2a2.3,2.3,0,0,0,1.2-2V405.1a2.3,2.3,0,0,0-2.3-2.3Z"/><path class="cls-6" d="M1228.3,428.2v18.5l51-26.6a2.1,2.1,0,0,0,1.1-1.8V402.6a2.1,2.1,0,0,0-3-1.9l-46.7,23.5A4.3,4.3,0,0,0,1228.3,428.2Z"/><path class="cls-6" d="M1289,429.5c1.3,1.7.8,5.9-.4,9-1.8,4.6-5,8.5-6.7,9.7h-.2a5.8,5.8,0,0,1-6.8-1.9c-1.2-1.7-1.8-5.3-.5-8.5a8.7,8.7,0,0,1,3.7-4.3l.3-.2a3.8,3.8,0,0,1,3.3-.1,12.4,12.4,0,0,1,3.3-3.7l.3-.2C1287.4,428.2,1288.5,428.8,1289,429.5Zm-1.9,8.9c.9-2.5,1.4-5.9.4-7.1s-1.2-.6-2.3,0l-.3.2a11.1,11.1,0,0,0-2.7,3.4l-.6,1.2-.6-.4a2.8,2.8,0,0,0-2.7-.2h-.3a5.1,5.1,0,0,0-2.2,2.6,7.7,7.7,0,0,0,.5,6.6,4.9,4.9,0,0,0,5.4,1.8,21.4,21.4,0,0,0,5.4-8"/></g><path class="cls-7" d="M1148.9,552v62.3a3,3,0,0,0,4.4,2.7l82.8-43.2a3,3,0,0,0,1.6-2.7V510.3a3,3,0,0,0-4.3-2.7l-82.8,41.7A3,3,0,0,0,1148.9,552Z"/><path class="cls-2" d="M1148.9,540.4v24.1l66.4-34.7a2.7,2.7,0,0,0,1.5-2.4V507.1a2.7,2.7,0,0,0-3.9-2.4L1152,535.3A5.7,5.7,0,0,0,1148.9,540.4Z"/><path class="cls-8" d="M1228,542.1c-.7-.9-2.1-1.6-4.8-.1l-.4.3a16.2,16.2,0,0,0-4.3,4.8,4.9,4.9,0,0,0-4.3.1l-.4.2a11.3,11.3,0,0,0-4.8,5.6c-1.7,4.2-1,8.9.6,11.1a7.5,7.5,0,0,0,8.8,2.5h.3c2.3-1.6,6.5-6.7,8.8-12.7C1229.1,549.8,1229.8,544.3,1228,542.1Z"/><path class="cls-9" d="M1240.9,1145.9h-.5a2049.7,2049.7,0,0,1-229-20.2V986.7l13.5,9.4Z"/><path class="cls-10" d="M1717.8,612.1V1097c-81.5,23.8-157,37.8-221.3,42.8a2338.6,2338.6,0,0,1-255.6,6.1h-.5L1025,996.1l-13.5-9.4Z"/><path class="cls-8" d="M1190.6,1029.5H1189a.8.8,0,0,1,0-1.5h1.5a.8.8,0,0,1,.1,1.5Zm3-1.1a.8.8,0,0,1,.6-.9l1.4-.3a.8.8,0,0,1,.4,1.5l-1.5.4h-.1A.8.8,0,0,1,1193.6,1028.4Zm-8.5.8-1.5-.3a.8.8,0,1,1,.4-1.5l1.4.3a.8.8,0,0,1,0,1.5Zm13.6-2.3a.8.8,0,0,1,.4-1l1.3-.6a.8.8,0,0,1,.7,1.4l-1.4.7h-.2A.8.8,0,0,1,1198.7,1026.9Zm4.7-2.4a.8.8,0,0,1,.2-1.1l1.2-.9a.8.8,0,0,1,.9,1.2l-1.3.9h-.3A.8.8,0,0,1,1203.4,1024.4Zm-23.6,3.2-1.4-.7a.8.8,0,1,1,.7-1.3l1.3.6a.8.8,0,0,1-.2,1.4Zm27.7-6.5a.8.8,0,0,1,0-1.1l1-1.1a.8.8,0,1,1,1.2,1l-1,1.2-.5.2A.8.8,0,0,1,1207.5,1021.1Zm-32.4,3.5-1.1-1.2a.8.8,0,1,1,1.2-1l1,1a.8.8,0,0,1,0,1.1l-.5.2A.8.8,0,0,1,1175.2,1024.6Zm35.7-7.6a.8.8,0,0,1-.3-1l.5-.8.3-.5a.8.8,0,0,1,1.4.7l-.3.5-.5.8a.8.8,0,0,1-.6.4Zm-39,3-.6-1.5a.8.8,0,1,1,1.4-.5l.5,1.4a.8.8,0,0,1-.4,1h-.2A.8.8,0,0,1,1171.9,1020Zm41.3-7.8a.8.8,0,0,1-.5-1l.4-1.4a.8.8,0,1,1,1.5.4l-.4,1.5a.8.8,0,0,1-.6.5Zm-41.9,3.1a.8.8,0,0,1-.9-.7c-.1-.5-.1-1-.2-1.6a.8.8,0,0,1,.7-.8.8.8,0,0,1,.8.7q.1.7.1,1.5a.8.8,0,0,1-.7.8Zm43.1-8.3a.8.8,0,0,1-.7-.8q.1-.7.1-1.5a.8.8,0,0,1,1.5.1q0,.8-.1,1.6a.8.8,0,0,1-.7.7Zm-43.5,2.9a.8.8,0,0,1-.7-.8q0-.8.1-1.5a.8.8,0,0,1,1.5.1q0,.8-.1,1.5a.8.8,0,0,1-.7.7Zm43.6-8.3a.8.8,0,0,1-.8-.7v-1.5a.8.8,0,0,1,.6-.9.7.7,0,0,1,.9.6v1.6a.8.8,0,0,1-.7.8Zm-43.3,3a.8.8,0,0,1-.7-.9l.2-1.5a.8.8,0,0,1,1.5.2l-.2,1.5a.8.8,0,0,1-.7.7Zm41.4-8.7-.5-1.4a.8.8,0,1,1,1.4-.5l.5,1.5a.8.8,0,0,1-.5,1h-.1A.8.8,0,0,1,1212.8,996Zm-40.6,3.4a.8.8,0,0,1-.6-.9l.4-1.5a.8.8,0,0,1,1.5.4l-.3,1.5a.8.8,0,0,1-.6.6Zm38.6-8.2-.8-1.3a.8.8,0,1,1,1.3-.8l.8,1.3a.8.8,0,0,1-.3,1h-.3A.8.8,0,0,1,1210.8,991.3Zm-37.2,3a.8.8,0,0,1-.5-1l.5-1.5a.8.8,0,1,1,1.4.5l-.5,1.4a.8.8,0,0,1-.6.5Zm34.3-7.2-.2-.2-.8-.9a.8.8,0,0,1,1.1-1.1l.9.9.2.2a.8.8,0,0,1-.1,1.1l-.4.2A.8.8,0,0,1,1207.8,987.1Zm-32.5,2.2a.8.8,0,0,1-.4-1l.6-1.4a.8.8,0,1,1,1.4.6l-.6,1.4a.8.8,0,0,1-.6.5Zm28.6-5.7-1.2-.8a.8.8,0,1,1,.8-1.3l1.3.9a.8.8,0,0,1,.2,1.1l-.5.3Zm-26.5.8a.8.8,0,0,1-.3-1l.7-1.4a.8.8,0,0,1,1.3.7l-.7,1.3a.8.8,0,0,1-.6.4Zm22-3.5-1.3-.6a.8.8,0,0,1,.6-1.4l1.4.7a.8.8,0,0,1-.2,1.4Zm-4.8-2-1.4-.4a.8.8,0,1,1,.4-1.5l1.5.5a.8.8,0,0,1-.1,1.5Zm-14.6.8a.8.8,0,0,1-.2-1l.8-1.3a.8.8,0,1,1,1.3.8l-.8,1.3a.8.8,0,0,1-.6.4Zm-55,5.6a.8.8,0,0,1,.4-1l1.4-.6a.8.8,0,0,1,.6,1.4l-1.4.6h-.2A.8.8,0,0,1,1125.1,985.3Zm64.6-7.7-1.5-.3a.8.8,0,1,1,.3-1.5l1.5.3a.8.8,0,0,1-.1,1.5Zm-59.7,5.7a.8.8,0,0,1,.4-1l1.4-.5a.8.8,0,1,1,.5,1.4l-1.4.5h-.2A.8.8,0,0,1,1130,983.3Zm54.5-6.6-1.5-.2a17.6,17.6,0,0,1-.1-2.4l.9-1.2a.8.8,0,1,1,1.2.9l-.9,1.2h.6a.8.8,0,0,1,0,1.5Zm-49.5,4.8a.8.8,0,0,1,.5-1l1.5-.5a.8.8,0,0,1,.4,1.5l-1.4.5h-.1A.8.8,0,0,1,1135,981.6Zm44.2-5.2h-1.5a.8.8,0,0,1,.1-1.5h1.5a.8.8,0,0,1,.1,1.5Zm-39.1,3.7a.8.8,0,0,1,.5-.9l1.5-.4a.8.8,0,1,1,.4,1.5l-1.5.4h-.1A.8.8,0,0,1,1140.1,980Zm33.8-3.8h-1.5a.8.8,0,1,1,0-1.5h1.5a.8.8,0,0,1,.1,1.5Zm-28.7,2.5a.8.8,0,0,1,.6-.9l1.5-.3a.7.7,0,0,1,.9.6.8.8,0,0,1-.6.9l-1.5.3h-.1A.8.8,0,0,1,1145.3,978.7Zm23.4-2.4h-1.5a.8.8,0,1,1-.1-1.5h1.5a.8.8,0,0,1,.1,1.5Zm-18.2,1.3a.8.8,0,0,1,.6-.9l1.5-.3h0a.8.8,0,0,1,.2,1.5l-1.5.3h0A.8.8,0,0,1,1150.5,977.6Zm12.9-1h-1.5a.8.8,0,0,1-.2-1.5h1.6a.8.8,0,0,1,.2,1.5Zm-7.6.1a.8.8,0,0,1,.6-.9l1.4-.2h.1a.8.8,0,1,1,.2,1.5h-.1l-1.4.2h0A.8.8,0,0,1,1155.7,976.7Zm30.5-5.7a.8.8,0,0,1-.1-1.1l1-1.2a.8.8,0,0,1,1.1,1l-1,1.1-.5.3Zm3.5-4a.8.8,0,0,1,0-1.1l1.1-1.1a.8.8,0,1,1,1.1,1.1l-1,1.1-.5.2A.8.8,0,0,1,1189.7,967Zm3.7-3.8a.8.8,0,0,1,0-1.1l1.1-1a.8.8,0,1,1,1,1.1l-1.1,1-.4.2A.8.8,0,0,1,1193.5,963.2Zm4-3.6a.8.8,0,0,1,.1-1.1l1.2-1a.8.8,0,0,1,1,1.2l-1.2,1-.4.2A.8.8,0,0,1,1197.4,959.7Zm4.1-3.3a.8.8,0,0,1,.1-1.1l1.2-.9a.8.8,0,0,1,.9,1.2l-1.2.9h-.4A.8.8,0,0,1,1201.6,956.3Zm4.3-3.1a.8.8,0,0,1,.2-1.1l1.3-.9a.8.8,0,1,1,.8,1.3l-1.3.8h-.3A.8.8,0,0,1,1205.9,953.2Zm4.4-2.9a.8.8,0,0,1,.2-1l1.3-.8a.8.8,0,0,1,.8,1.3l-1.3.8h-.3A.8.8,0,0,1,1210.3,950.3Z"/><polygon class="cls-11" points="1217.6 928.6 1220.1 943.6 1225.5 933.7 1225.5 933.7 1256.2 910.2 1264.3 904.1 1217.6 928.6"/><polygon class="cls-12" points="1243.6 926 1220.1 943.6 1225.5 933.7 1242.2 920.9 1243.6 926"/><polygon class="cls-13" points="1239.8 942.9 1264.3 904.1 1256.2 910.2 1225.5 933.7 1225.5 933.7 1239.8 942.9"/><polygon class="cls-14" points="1217.6 928.6 1264.3 904.1 1203.3 919.5 1217.6 928.6"/><polygon class="cls-15" points="1334.7 1029.4 1469.5 1059.6 1484.9 1039.9 1384.4 993.3 1334.7 1029.4"/><polygon class="cls-16" points="1236.9 1037.7 1374.5 1066.9 1387 1048.2 1286.5 1001.6 1236.9 1037.7"/><path class="cls-17" d="M1332.9,717.6l27-16.5a3.2,3.2,0,0,0,1.3-3.9l-20.3-42.5a2.5,2.5,0,0,0-3.6-.9l-26.7,15.7a3.2,3.2,0,0,0-1.4,3.9l20,43.3A2.5,2.5,0,0,0,1332.9,717.6Z"/><path class="cls-18" d="M1348.5,685.1l-21.6,12.8a1.2,1.2,0,0,1-1.7-.5h0a1.5,1.5,0,0,1,.7-1.9l21.6-12.8a1.2,1.2,0,0,1,1.7.5h0A1.5,1.5,0,0,1,1348.5,685.1Z"/><path class="cls-18" d="M1344.3,678.3l-20,11.8a2,2,0,0,1-2.9-.8l-6.2-13.4a2.5,2.5,0,0,1,1.1-3.1l20-11.8a2,2,0,0,1,2.9.8l6.2,13.4A2.5,2.5,0,0,1,1344.3,678.3Z"/><path class="cls-19" d="M1350.7,689.8l-21.6,12.8a1.2,1.2,0,0,1-1.7-.5h0a1.5,1.5,0,0,1,.7-1.9l21.6-12.8a1.2,1.2,0,0,1,1.7.5h0A1.5,1.5,0,0,1,1350.7,689.8Z"/><path class="cls-20" d="M1347.7,697.4l-16.6,9.8a1.1,1.1,0,0,1-1.5-.4v-.3a1.3,1.3,0,0,1,.6-1.7l16.6-9.8a1.1,1.1,0,0,1,1.5.4v.3A1.3,1.3,0,0,1,1347.7,697.4Z"/><path class="cls-21" d="M1349.7,701.9l-16.4,9.7a1.2,1.2,0,0,1-1.7-.5h0a1.5,1.5,0,0,1,.7-1.9l16.4-9.7a1.2,1.2,0,0,1,1.7.5h0A1.5,1.5,0,0,1,1349.7,701.9Z"/><polygon class="cls-22" points="1486.3 1038.3 1486.3 1049.9 1480.2 1053.7 1436.4 1035.9 1442.9 1033.2 1467.5 1031.8 1462.9 1016.6 1442.9 951.2 1470.8 940.6 1483.4 1019.8 1486.3 1038.3"/><path class="cls-23" d="M1464.3,1021.3h0l.4,1.4,3.2,1.6a3.1,3.1,0,0,1,1.7,2.3l1.4,8.8,5.6,3.2,1.9-3.7a7.2,7.2,0,0,1,3.4-3.2l3.1-1.4,1.3.9a6.8,6.8,0,0,1,3,5.6v13.1l-12.4,8.2-46.1-23.1h0a15,15,0,0,1,13.3-8.3l20.2-.2-.8-3.4A1.3,1.3,0,0,1,1464.3,1021.3Z"/><path class="cls-24" d="M1431.6,1038.3l-.7-3.2,38.6,19.3a14.6,14.6,0,0,0,14.5-.9l5.4-3.6h0a5.2,5.2,0,0,1-1.4,6.9l-2,1.5a15.9,15.9,0,0,1-16.4,1.3l-35.2-17.8A5.2,5.2,0,0,1,1431.6,1038.3Z"/><polygon class="cls-25" points="1403.9 862 1444.8 971.7 1476.6 960.4 1469 915 1463.6 843.9 1403.9 862"/><polygon class="cls-26" points="1396.3 960.7 1387.1 1041.4 1387.1 1056.1 1380.8 1059.8 1337.6 1038.6 1344.8 1034.5 1370.8 1036 1368.7 962.4 1396.3 960.7"/><path class="cls-27" d="M1392,1044.2v11.6l-5.5,3.7a14.3,14.3,0,0,1-14.2.9l-38.8-19.4a15,15,0,0,1,13.3-8.3H1368l1.5-4.6,1.1-.6v1.2a6.9,6.9,0,0,1,3.1,5.6v7.4l5.6,3.2,1.9-3.6a7.7,7.7,0,0,1,3.6-3.4l3-1.4a9.8,9.8,0,0,1,4.3,8.1Z"/><path class="cls-28" d="M1334.2,1044.1l-.7-3.2,38.4,19.2a15,15,0,0,0,15-.9l5.2-3.4h0a5.2,5.2,0,0,1-1.4,6.9l-1.6,1.1a16.9,16.9,0,0,1-17.5,1.4l-34.6-17.5A5.2,5.2,0,0,1,1334.2,1044.1Z"/><polygon class="cls-29" points="1375.2 853.5 1361.5 928.6 1366.3 983.3 1395.7 986 1405.6 936.8 1441.1 857.9 1375.2 853.5"/><polygon class="cls-30" points="1432 937.5 1428.7 885.4 1419.9 905 1432 937.5"/><path class="cls-31" d="M1364.5,1032.4a27.1,27.1,0,0,0-6.5,5.1,1,1,0,0,1-.8.4l-.7-.2a1,1,0,0,1-.1-1.4,27.4,27.4,0,0,1,4.2-3.7A3.2,3.2,0,0,1,1364.5,1032.4Z"/><path class="cls-31" d="M1358.6,1032.4a26.6,26.6,0,0,0-5.7,4.7,1,1,0,0,1-.8.4l-.7-.2a1,1,0,0,1-.1-1.4,26.4,26.4,0,0,1,3.6-3.3A4.2,4.2,0,0,1,1358.6,1032.4Z"/><path class="cls-31" d="M1460.4,1026.6a27.1,27.1,0,0,0-6.5,5.1,1,1,0,0,1-.8.4l-.7-.2a1,1,0,0,1-.1-1.4,27.4,27.4,0,0,1,4.2-3.7A3.2,3.2,0,0,1,1460.4,1026.6Z"/><path class="cls-31" d="M1454.5,1026.6a26.6,26.6,0,0,0-5.7,4.7,1,1,0,0,1-.8.4l-.7-.2a1,1,0,0,1-.1-1.4,26.4,26.4,0,0,1,3.6-3.3A4.2,4.2,0,0,1,1454.5,1026.6Z"/><path class="cls-18" d="M1455.4,968.6a.3.3,0,0,1-.3-.2l-.6-2a.3.3,0,1,1,.7-.2l.6,2a.3.3,0,0,1-.2.4Zm-1.5-5.3a.3.3,0,0,1-.3-.2l-.6-2a.3.3,0,0,1,.7-.2l.6,2a.3.3,0,0,1-.2.4Zm-1.5-5.3a.3.3,0,0,1-.3-.3l-.5-2a.3.3,0,1,1,.7-.2l.5,2a.3.3,0,0,1-.2.4Zm-1.5-5.3a.3.3,0,0,1-.3-.3l-.5-2a.3.3,0,0,1,.7-.2l.5,2a.3.3,0,0,1-.2.4Zm-1.4-5.3a.3.3,0,0,1-.3-.3l-.5-2a.3.3,0,1,1,.7-.2l.5,2a.3.3,0,0,1-.2.4Zm-1.4-5.3a.3.3,0,0,1-.3-.3l-.5-2a.3.3,0,0,1,.7-.2l.5,2a.3.3,0,0,1-.2.4Zm-1.4-5.3a.3.3,0,0,1-.3-.3l-.5-2a.3.3,0,0,1,.7-.2l.5,2a.3.3,0,0,1-.2.4Zm-1.3-5.3a.3.3,0,0,1-.3-.3l-.5-2a.3.3,0,1,1,.7-.2l.5,2a.3.3,0,0,1-.2.4Zm-1.3-5.3a.3.3,0,0,1-.3-.3l-.5-2a.3.3,0,1,1,.7-.2l.5,2a.3.3,0,0,1-.3.4Zm-1.3-5.3a.3.3,0,0,1-.3-.3l-.5-2a.3.3,0,1,1,.7-.2l.5,2a.3.3,0,0,1-.3.4Zm-1.2-5.3a.3.3,0,0,1-.3-.3l-.5-2a.3.3,0,1,1,.7-.1l.5,2a.3.3,0,0,1-.3.4Zm-1.2-5.3a.3.3,0,0,1-.3-.3l-.4-2a.3.3,0,0,1,.7-.1l.4,2a.3.3,0,0,1-.3.4Zm-1.1-5.3a.3.3,0,0,1-.3-.3l-.4-2a.3.3,0,0,1,.7-.1l.4,2a.3.3,0,0,1-.3.4Zm-1.1-5.4a.3.3,0,0,1-.3-.3l-.4-2a.3.3,0,0,1,.7-.1l.4,2a.3.3,0,0,1-.3.4Zm-1-5.4a.3.3,0,0,1-.3-.3l-.4-2a.3.3,0,0,1,.7-.1l.4,2a.3.3,0,0,1-.3.4Zm-1-5.4a.3.3,0,0,1-.3-.3l-.4-2a.3.3,0,1,1,.7-.1l.4,2a.3.3,0,0,1-.3.4Zm-.9-5.4a.3.3,0,0,1-.3-.3l-.3-2a.3.3,0,0,1,.7-.1l.3,2a.3.3,0,0,1-.3.4Zm-.8-5.4a.3.3,0,0,1-.3-.3l-.3-2a.3.3,0,1,1,.7-.1l.3,2a.3.3,0,0,1-.3.4Zm-.7-5.4a.3.3,0,0,1-.3-.3v-1.2a.3.3,0,1,1,.7-.1v1.2a.3.3,0,0,1-.3.4Z"/><path class="cls-18" d="M1376.1,985.2a.3.3,0,0,1-.3-.3v-2a.3.3,0,0,1,.3-.4.3.3,0,0,1,.4.3v2a.3.3,0,0,1-.3.4Zm-.3-5.5a.3.3,0,0,1-.3-.3v-2a.3.3,0,0,1,.3-.4.3.3,0,0,1,.4.3v2a.3.3,0,0,1-.3.4Zm-.3-5.5a.3.3,0,0,1-.3-.3v-2a.3.3,0,0,1,.3-.4.3.3,0,0,1,.4.3v2a.3.3,0,0,1-.3.4Zm-.3-5.5a.3.3,0,0,1-.3-.3v-2a.3.3,0,0,1,.3-.4.3.3,0,0,1,.4.3v2a.3.3,0,0,1-.3.4Zm-.3-5.5a.3.3,0,0,1-.3-.3v-2a.3.3,0,0,1,.3-.4.3.3,0,0,1,.4.3v2a.3.3,0,0,1-.3.4Zm-.3-5.5a.3.3,0,0,1-.3-.3v-2a.3.3,0,0,1,.3-.4.3.3,0,0,1,.4.3v2a.3.3,0,0,1-.3.4Zm-.3-5.5a.3.3,0,0,1-.3-.3v-2a.3.3,0,0,1,.3-.4.3.3,0,0,1,.4.3v2a.3.3,0,0,1-.3.4Zm-.3-5.5a.3.3,0,0,1-.3-.3v-2a.3.3,0,0,1,.3-.4.3.3,0,0,1,.4.3v2a.3.3,0,0,1-.3.4Zm-.3-5.5a.3.3,0,0,1-.3-.3v-.8q0-.6-.1-1.3a.3.3,0,0,1,.3-.4.4.4,0,0,1,.4.3q0,.6.1,1.2v.8a.3.3,0,0,1-.3.4Zm-.1-5.5h0a.3.3,0,0,1-.3-.4c0-.7.1-1.4.1-2.1a.3.3,0,0,1,.4-.3.3.3,0,0,1,.3.4c-.1.7-.1,1.4-.1,2A.3.3,0,0,1,1373.5,936.1Zm.6-5.4h-.1a.3.3,0,0,1-.3-.4l.4-2a.3.3,0,0,1,.7.2l-.4,2A.3.3,0,0,1,1374.1,930.7Zm1.3-5.3h-.1a.3.3,0,0,1-.2-.4l.6-2a.3.3,0,0,1,.7.2l-.6,1.9A.3.3,0,0,1,1375.4,925.4Zm1.7-5.2h-.1a.3.3,0,0,1-.2-.4l.6-2a.3.3,0,1,1,.6.2l-.6,2A.3.3,0,0,1,1377.1,920.2Zm1.7-5.2h-.1a.3.3,0,0,1-.2-.4l.6-2a.3.3,0,0,1,.6.2l-.6,2A.3.3,0,0,1,1378.7,915Zm1.7-5.2h-.1a.3.3,0,0,1-.2-.4l.6-2a.3.3,0,1,1,.6.2l-.6,2A.3.3,0,0,1,1380.4,909.8Zm1.7-5.2h-.1a.3.3,0,0,1-.2-.4l.6-2a.3.3,0,1,1,.6.2l-.6,2A.3.3,0,0,1,1382.1,904.5Zm1.7-5.2h-.1a.3.3,0,0,1-.2-.4l.6-2a.3.3,0,0,1,.6.2l-.6,2A.3.3,0,0,1,1383.8,899.3Zm1.7-5.2h-.1a.3.3,0,0,1-.2-.4l.6-2a.3.3,0,1,1,.6.2l-.6,2A.3.3,0,0,1,1385.5,894.1Zm1.7-5.2h-.1a.3.3,0,0,1-.2-.4l.6-2a.3.3,0,1,1,.6.2l-.6,2A.3.3,0,0,1,1387.1,888.9Zm1.7-5.2h-.1a.3.3,0,0,1-.2-.4l.6-2a.3.3,0,1,1,.6.2l-.6,2A.3.3,0,0,1,1388.8,883.7Zm1.7-5.2h-.1a.3.3,0,0,1-.2-.4l.6-2a.3.3,0,1,1,.6.2l-.6,2A.3.3,0,0,1,1390.5,878.5Zm1.7-5.2h-.1a.3.3,0,0,1-.2-.4l.6-2a.3.3,0,0,1,.6.2l-.6,2A.3.3,0,0,1,1392.2,873.3Z"/><path class="cls-32" d="M1434.6,863l3.6,24.9a4.5,4.5,0,0,0,6.3,3.4l15.1-7a4.5,4.5,0,0,0,2.6-3.9l1-28.1Z"/><path class="cls-33" d="M1383.7,931.6l-3.6,23.7c-.4,2.7-1.6,4.2-4.6,3.3l-14-5.5c-1-.4-1.9-1.2-1.9-3.1l1.9-25.4Z"/><path class="cls-34" d="M1365,909.4h0c-.6,3.5-.5,6,2.9,7.3l18.1,7.4a1.7,1.7,0,0,1,1,2l-1.7,6.3a3.3,3.3,0,0,1-4.2,2.3l-18.4-5.8c-3.2-1-4-2.8-3.4-6.2l1.7-7.5C1362.9,910.1,1365,909.4,1365,909.4Z"/><ellipse class="cls-2" cx="1369.2" cy="925.3" rx="2.1" ry="3.1"/><path class="cls-35" d="M1367.8,982.1l26.4,2.6a3.4,3.4,0,0,1,3,3.6h0a3.4,3.4,0,0,1-3.7,3.2l-26.4-2.3a3.4,3.4,0,0,1-3.1-3.4v-.3A3.4,3.4,0,0,1,1367.8,982.1Z"/><path class="cls-36" d="M1475.4,959.9l-30.2,10.3a3.1,3.1,0,0,0-1.9,4l.2.4a3.1,3.1,0,0,0,4,1.9l30-10.7a3.1,3.1,0,0,0,1.9-3.9h0A3.1,3.1,0,0,0,1475.4,959.9Z"/><polygon class="cls-37" points="1435 678.5 1326.2 624.7 1321.1 638 1413.3 704.1 1435 678.5"/><path class="cls-38" d="M1384.7,650.8s-7.1,9.5-3.8,30.1l28.7,26.6,36.7-33Z"/><path class="cls-39" d="M1473.2,856.3a55.1,55.1,0,0,1-1.3,8.3s-33.5,35.8-75.3,25.3c-35-9.5-34.5-22-34.5-22s.6-1.8,1.5-5.2c5.5-19.3,22.9-89.1,10.7-157.4l46.9-30.1a24.3,24.3,0,0,1,37.5,19.9c.8,36.4,3.1,85.9,9,108.8C1474.3,828.7,1474.2,846.6,1473.2,856.3Z"/><path class="cls-40" d="M1419.5,662.4v14c0,12.8-21.5,15.1-23.7,15.3V662.4Z"/><path class="cls-41" d="M1392.5,693.8c-.2-2.6.3-5.4,1.6-6.8s20.6,2.1,25.4-13.6a3.2,3.2,0,0,1,2.8,1.5S1425.6,694.5,1392.5,693.8Z"/><path class="cls-42" d="M1378.4,702.8s27.7,7.8,39.5,37.9l36.9-21.3s-3.7-38.5-20.2-47.5c-4.7-3.3-12.9.1-12.3,2.5,0,0,12.4,10.2,13.4,32.4l-12.2,7.3a63.5,63.5,0,0,0-34.1-18.4C1384.8,694.6,1376.5,700.1,1378.4,702.8Z"/><path class="cls-43" d="M1423,737.7a65,65,0,0,0-42.9-37.5l.2-.7a65.7,65.7,0,0,1,43.3,37.9Z"/><path class="cls-44" d="M1440.5,727.9a65,65,0,0,0-15.3-54.9h0a2.1,2.1,0,0,1,1.9.7c6.6,7.7,18.9,26.6,14,54.3Z"/><path class="cls-45" d="M1403.5,825.7V742.4a22,22,0,0,1,11-19l37.6-21.8a19.5,19.5,0,0,1,29.3,16.9v78.1l-60.8,38.4A11.1,11.1,0,0,1,1403.5,825.7Z"/><path class="cls-46" d="M1421.2,828.3a5,5,0,0,1-2.4-.6,4.9,4.9,0,0,1-2.6-4.4v-80a14,14,0,0,1,7-12.1l40.3-23.4a12,12,0,0,1,17.9,10.3v73h-.2l-57.4,36.3A5,5,0,0,1,1421.2,828.3Zm48.3-121.4a11.2,11.2,0,0,0-5.6,1.5l-40.3,23.4a13.3,13.3,0,0,0-6.6,11.5v80a4.3,4.3,0,0,0,6.6,3.6l57.3-36.2V718.1a11.3,11.3,0,0,0-11.3-11.3Z"/><path class="cls-47" d="M1433.7,836.8h-18.4l49.5-27.4h0a4.7,4.7,0,0,1,2.5,8.6Z"/><rect class="cls-48" x="1431.2" y="777.2" width="7.6" height="39.54"/><path class="cls-49" d="M1328.8,628.9l-2.6-4.1-5.3-9.1a6.4,6.4,0,0,0-5.9-3.2l-3.4.2-14.5-9.4a1.9,1.9,0,0,0-2.5.3h0a1.9,1.9,0,0,0,.1,2.8l11.7,10.5-2.1,1.8a5.7,5.7,0,0,0-1.6,6.4l1.1,2.8a10.7,10.7,0,0,0,6.4,6.2l10.9,3.8Z"/><ellipse class="cls-50" cx="1337.7" cy="632.2" rx="5.9" ry="3.1"/><rect class="cls-51" x="1331.8" y="629.8" width="11.8" height="2.44"/><ellipse class="cls-52" cx="1337.7" cy="629.8" rx="5.9" ry="3.1"/><path class="cls-53" d="M1333.9,647.3s-.9-7.8,2.2-12.3l-3.1-2.1-1.2-.4a20.9,20.9,0,0,0-2.6,11.3C1329.7,645.9,1332.4,647.8,1333.9,647.3Z"/><path class="cls-54" d="M1381.7,627.3v10.9a2.7,2.7,0,0,1-1.3,2.4l-8.4,5.2a2.8,2.8,0,0,1-4.2-2.4V631.9a2.8,2.8,0,0,1,1.4-2.4l8.4-4.6a2.8,2.8,0,0,1,3.8,1.2A2.7,2.7,0,0,1,1381.7,627.3Z"/><path class="cls-55" d="M1381.3,626.4v10.9a2.4,2.4,0,0,1-1.1,2l-7.2,4.4a2.4,2.4,0,0,1-3.6-2v-8.8l11.7-6.5Z"/><path class="cls-56" d="M1399.1,609.5l-21.2,5.8s-7.1,23.5,0,42.7,28.6,18.2,37.1,13.7c0,0,17-16.9,12.9-46Z"/><path class="cls-57" d="M1377.1,618.2s15.5,9.2,10.3,26.3c0,0,7.2-8.5,12.1-2.5,2.9,3.6,1.3,10.5-4.3,15.1,0,0,6.5,17.2,21.7,14.7s19.1-21.8,19.1-37.2V623s-20.5-17.1-33.1-19.2S1377.1,618.2,1377.1,618.2Z"/><polygon class="cls-58" points="1367.8 633.6 1388.4 643.5 1390.1 642 1368.3 630.2 1367.8 633.6"/><circle class="cls-59" cx="1394.1" cy="648.2" r="2.6"/><path class="cls-60" d="M1378.6,659.8c-1.5,11.4,8.3,15.7,8.1,24.3,0,0,4.8-9.7,12.3-9.8h0a11.1,11.1,0,0,1-8.9-10.9v-7.9S1388.4,666.4,1378.6,659.8Z"/><path class="cls-61" d="M1404,633.7s23,21.1,44.1,12.5,15.4-14.3,8.1-18.3c-13.4-7.3-17.9-10.8-17.9-10.8Z"/><path class="cls-62" d="M1404,631.3s23,21.1,44.1,12.5,15.4-14.3,8.1-18.3c-13.4-7.3-17.9-10.8-17.9-10.8Z"/><path class="cls-63" d="M1441.6,622a6.9,6.9,0,0,1-3.2,7c-7.1,4.3-17,6.6-27.8,5.6s-21.7-5.3-28.9-11.3a36.7,36.7,0,0,1-3.5-3.3,5.3,5.3,0,0,1-1-5.5l.5-1.3a34.7,34.7,0,0,1,5-8.2,33.1,33.1,0,0,1,24.5-12.2c17-.5,31.5,12,34.3,28.8Z"/><path class="cls-64" d="M1441.5,621.7c-7.2,5.5-18.1,8.4-30.3,7.3a53.2,53.2,0,0,1-27.4-10.1,37.1,37.1,0,0,1-6.1-5.7l1-2.1.4-.8a33.5,33.5,0,0,1,3-4.5l.6-.7a33.1,33.1,0,0,1,24.5-12.2C1424.3,592.3,1438.7,604.9,1441.5,621.7Z"/><path class="cls-65" d="M1384.7,612.7a18.2,18.2,0,0,1-.9,6.2,37.1,37.1,0,0,1-6.1-5.7l1-2.1.4-.8a33.5,33.5,0,0,1,3-4.5l.6-.7A18.2,18.2,0,0,1,1384.7,612.7Z"/><path class="cls-31" d="M1413.1,595.2l-.5-.5.5-.5.5.5Z"/><path class="cls-31" d="M1400.3,625.5h-.7l.2-1.4h.7Zm.4-2.8h-.7l.2-1.4h.7Zm.5-2.7h-.7l.3-1.4.7.2Zm.6-2.7-.7-.2.4-1.4.7.2Zm.7-2.7-.7-.2.4-1.3.6.2Zm.9-2.6-.6-.2.5-1.3.6.2Zm1-2.6-.6-.3.6-1.3.6.3Zm1.1-2.5-.6-.3.6-1.3.6.3Zm1.3-2.5-.6-.3.7-1.2.6.3Zm1.4-2.4-.6-.4.7-1.2.6.4Zm1.5-2.3-.6-.4.8-1.2.6.4Zm1.6-2.2-.5-.4.9-1.1.5.4Z"/><ellipse class="cls-31" cx="1414" cy="594" rx="2" ry="3.7" transform="translate(616.5 1904) rotate(-81.5)"/><ellipse class="cls-66" cx="1337.7" cy="629.8" rx="4.3" ry="2.3"/><path class="cls-2" d="M1403.5,785s-3.1.7-3.1,2.8,3.1,5.5,3.1,5.5Z"/><path class="cls-67" d="M1423.3,787.8v40.1c-9.9,5.5-23,3.7-22.9,0V787.8C1401.2,790.8,1411.8,792.3,1423.3,787.8Z"/><path class="cls-68" d="M1423.3,787.8v5c-9.9,5.5-22.9,3.7-22.9,0v-5C1401.2,790.8,1411.8,792.3,1423.3,787.8Z"/><path class="cls-69" d="M1423.3,828.9v-77c0-6.4,3.8-12.3,10-15.5l38.8-20c6.4-3.3,14.4.8,14.4,7.4v71a22,22,0,0,1-11.1,19.1l-38.1,21.8C1431.2,839.1,1423.3,835.3,1423.3,828.9Z"/><path class="cls-70" d="M1481.9,765v27.9a5.5,5.5,0,0,1-2.7,4.7L1445,818.1a5.5,5.5,0,0,1-8.3-4.7V784.2a5.5,5.5,0,0,1,2.8-4.8l34.2-19.3A5.5,5.5,0,0,1,1481.9,765Z"/><path class="cls-71" d="M1481.9,765v11.8a5.5,5.5,0,0,1-2.7,4.7L1445,801.9a5.5,5.5,0,0,1-8.3-4.7v-13a5.5,5.5,0,0,1,2.8-4.8l34.2-19.3A5.5,5.5,0,0,1,1481.9,765Z"/><path class="cls-72" d="M1466.7,794.6l-4.4,2.8a1.6,1.6,0,0,1-2.4-1.3V781.3a1.6,1.6,0,0,1,.7-1.3l4.4-2.8a1.6,1.6,0,0,1,2.4,1.3v14.8A1.6,1.6,0,0,1,1466.7,794.6Z"/><path class="cls-73" d="M1441,823.4a.3.3,0,0,1-.1-.7l1.9-.6a.3.3,0,1,1,.3.6l-2,.7Zm-3.4-.1h-.1l-2-.8a.3.3,0,1,1,.3-.6l1.8.7a.3.3,0,0,1-.1.7Zm8.3-2.2-.3-.2a.3.3,0,0,1,.1-.5l1.8-1a.3.3,0,1,1,.3.6l-1.8,1Zm-12.7-.8-.3-.2a6.2,6.2,0,0,1-.8-2,.3.3,0,1,1,.7-.1,5.5,5.5,0,0,0,.7,1.8.3.3,0,0,1-.1.5Zm17.4-1.9-.3-.2a.3.3,0,0,1,.1-.5l1.8-1a.3.3,0,0,1,.3.6l-1.8,1Zm-18.3-1.2a.3.3,0,0,1-.3-.3v-2a.3.3,0,1,1,.7,0v2A.3.3,0,0,1,1432.3,817.1Zm23.1-1.5-.3-.2a.3.3,0,0,1,.1-.5l1.8-1a.3.3,0,1,1,.3.6l-1.8,1Zm4.7-2.7-.3-.2a.3.3,0,0,1,.1-.5l1.8-1a.3.3,0,1,1,.3.6l-1.8,1Zm-27.8-1.3a.3.3,0,0,1-.3-.3v-2a.3.3,0,1,1,.7,0v2A.3.3,0,0,1,1432.3,811.6Zm32.6-1.4-.3-.2a.3.3,0,0,1,.1-.5l1.8-1a.3.3,0,1,1,.3.6l-1.8,1Zm4.7-2.7-.3-.2a.3.3,0,0,1,.1-.5l1.8-1a.3.3,0,0,1,.3.6l-1.8,1Zm-37.3-1.3a.3.3,0,0,1-.3-.3v-2a.3.3,0,1,1,.7,0v2A.3.3,0,0,1,1432.3,806.1Zm42.1-1.4-.3-.2a.3.3,0,0,1,.1-.5l1.8-1a.3.3,0,1,1,.3.6l-1.8,1Zm4.7-2.8h-.3a.3.3,0,0,1,.1-.5,7.8,7.8,0,0,0,1.4-1.3.3.3,0,0,1,.5.4,8.5,8.5,0,0,1-1.5,1.5Zm-46.8-1.3a.3.3,0,0,1-.3-.3v-2a.3.3,0,1,1,.7,0v2A.3.3,0,0,1,1432.3,800.7Zm49.8-3.1h-.1a.3.3,0,0,1-.2-.4,7.8,7.8,0,0,0,.3-1.9.3.3,0,0,1,.3-.3h0a.3.3,0,0,1,.3.3,8.5,8.5,0,0,1-.3,2.1A.3.3,0,0,1,1482.1,797.6Zm-49.8-2.4a.3.3,0,0,1-.3-.3v-2a.3.3,0,1,1,.7,0v2A.3.3,0,0,1,1432.3,795.2Zm50.1-3.1a.3.3,0,0,1-.3-.3v-2a.3.3,0,1,1,.7,0v2A.3.3,0,0,1,1482.4,792.1Zm-50.1-2.4a.3.3,0,0,1-.3-.3v-2a.3.3,0,1,1,.7,0v2A.3.3,0,0,1,1432.3,789.7Zm50.1-3.1a.3.3,0,0,1-.3-.3v-2a.3.3,0,1,1,.7,0v2A.3.3,0,0,1,1482.4,786.6Zm-50.1-2.4a.3.3,0,0,1-.3-.3v-2a.3.3,0,1,1,.7,0v2A.3.3,0,0,1,1432.3,784.3Zm50.1-3.1a.3.3,0,0,1-.3-.3v-2a.3.3,0,1,1,.7,0v2A.3.3,0,0,1,1482.4,781.2Zm-50.1-2.4a.3.3,0,0,1-.3-.3v-2a.3.3,0,1,1,.7,0v2A.3.3,0,0,1,1432.3,778.8Zm50.1-3.1a.3.3,0,0,1-.3-.3v-2a.3.3,0,1,1,.7,0v2A.3.3,0,0,1,1482.4,775.7Zm-50.1-2.4a.3.3,0,0,1-.3-.3v-2a.3.3,0,1,1,.7,0v2A.3.3,0,0,1,1432.3,773.3Zm50.1-3.1a.3.3,0,0,1-.3-.3v-2a.3.3,0,1,1,.7,0v2A.3.3,0,0,1,1482.4,770.2Zm-50.1-2.4a.3.3,0,0,1-.3-.3v-2a.3.3,0,1,1,.7,0v2A.3.3,0,0,1,1432.3,767.9Zm50.1-3.1a.3.3,0,0,1-.3-.3v-2a.3.3,0,1,1,.7,0v2A.3.3,0,0,1,1482.4,764.8Zm-50.1-2.4a.3.3,0,0,1-.3-.3v-2a.3.3,0,1,1,.7,0v2A.3.3,0,0,1,1432.3,762.4Zm50.1-3.1a.3.3,0,0,1-.3-.3v-2a.3.3,0,1,1,.7,0v2A.3.3,0,0,1,1482.4,759.3Zm-50.1-2.4a.3.3,0,0,1-.3-.3v-1c0-.4,0-.7,0-1.1a.3.3,0,0,1,.4-.3.3.3,0,0,1,.3.4q0,.5,0,1v1A.3.3,0,0,1,1432.3,756.9Zm50.1-3.1a.3.3,0,0,1-.3-.3v-2a.3.3,0,1,1,.7,0v2A.3.3,0,0,1,1482.4,753.9Zm-49.3-2.3h-.1a.3.3,0,0,1-.2-.4,13.8,13.8,0,0,1,.9-1.9.3.3,0,1,1,.6.3,13,13,0,0,0-.8,1.8A.3.3,0,0,1,1433.1,751.6Zm49.3-3.2a.3.3,0,0,1-.3-.3v-2a.3.3,0,1,1,.7,0v2A.3.3,0,0,1,1482.4,748.4Zm-46.5-1.4h-.2a.3.3,0,0,1,0-.5l1.5-1.4a.3.3,0,1,1,.4.5l-1.5,1.4Zm4.3-3.3-.3-.2a.3.3,0,0,1,.1-.5l1.8-.9a.3.3,0,0,1,.3.6l-1.8.9Zm42.1-.8a.3.3,0,0,1-.3-.3v-2a.3.3,0,1,1,.7,0v2A.3.3,0,0,1,1482.4,742.9Zm-37.3-1.8-.3-.2a.3.3,0,0,1,.1-.5l1.8-.9a.3.3,0,0,1,.3.6l-1.8.9Zm4.9-2.5-.3-.2a.3.3,0,0,1,.1-.5l1.8-.9a.3.3,0,0,1,.3.6l-1.8.9Zm32.4-1.2a.3.3,0,0,1-.3-.3v-2a.3.3,0,1,1,.7,0v2A.3.3,0,0,1,1482.4,737.5Zm-27.6-1.3-.3-.2a.3.3,0,0,1,.1-.5l1.8-.9a.3.3,0,0,1,.3.6l-1.8.9Zm4.9-2.5-.3-.2a.3.3,0,0,1,.1-.5l1.8-.9a.3.3,0,1,1,.3.6l-1.8.9Zm22.7-1.6a.3.3,0,0,1-.3-.3v-1a9.7,9.7,0,0,0-.1-1.1.3.3,0,0,1,.7-.1,10.3,10.3,0,0,1,.1,1.1v1A.3.3,0,0,1,1482.4,732Zm-17.9-.9-.3-.2a.3.3,0,0,1,.1-.5l1.8-.9a.3.3,0,0,1,.3.6l-1.8.9Zm4.9-2.5-.3-.2a.3.3,0,0,1,.1-.5l1.8-.9a.3.3,0,0,1,.3.6l-1.8.9Zm11.8-1.8h-.3a3.6,3.6,0,0,0-1.5-1.1.3.3,0,1,1,.3-.6,4.3,4.3,0,0,1,1.8,1.3.3.3,0,0,1-.1.5Zm-6.9-.7-.3-.2a.3.3,0,0,1,.2-.5l2-.7a.3.3,0,0,1,.2.7l-1.9.7Z"/><path class="cls-74" d="M1375.9,882l-1.2-.6v-.3l1.2.6Zm1.5-3.4-1.3-.5,1.2-3.2,1.3.5Zm2.4-6.4-1.3-.4,1-3.2,1.3.4Zm2-6.6-1.3-.4.9-3.3,1.3.3Zm1.7-6.6-1.3-.3.8-3.3,1.3.3Zm1.5-6.7-1.3-.3.7-3.3,1.3.3Zm1.3-6.7-1.3-.2.6-3.4,1.3.2Zm1.2-6.8-1.3-.2.5-3.4,1.4.2Zm1-6.8-1.4-.2.5-3.4,1.4.2Zm.9-6.8-1.4-.2.4-3.4,1.4.2Zm.8-6.8h-1.4l.4-3.4h1.4Zm.7-6.8h-1.4l.3-3.4h1.4Zm.6-6.8h-1.4l.3-3.4h1.4Zm.5-6.8h-1.4l.2-3.4h1.4Zm.5-6.8h-1.4l.2-3.4h1.4Zm.4-6.8h-1.4l.2-3.4h1.4Zm.3-6.8h-1.4V774h1.4Zm.3-6.8h-1.4q.1-1.8.1-3.4h1.4Zm.2-6.8h-1.4q0-1.8.1-3.4h1.4Q1393.8,761.9,1393.8,763.7Zm.2-6.9h-1.4c0-1.2,0-2.4.1-3.4h1.4C1394,754.5,1394,755.6,1393.9,756.9Zm.1-6.9h-1.4c0-1.1,0-2,0-2.5v-.9h1.4v.9C1394,748,1394,748.9,1394,750Z"/><path class="cls-31" d="M1354.2,787.8c-10.7,6.9-20.3-28-14.7-36.9C1360.4,755.4,1354.2,787.8,1354.2,787.8Z"/><path class="cls-75" d="M1341.9,749.9l-4.7,6.6-12.5-44.2-12.9,3.5,2.3,58.8c.7,18.7,23.7,27.3,36.5,13.5l4.3-4.6S1362.3,755,1341.9,749.9Z"/><path class="cls-76" d="M1394,755.7l-39.8,32.1s6.1-32.5-14.7-36.9l4.3-5.7,30.6-39.9S1403.5,707.3,1394,755.7Z"/><path class="cls-77" d="M1361,781.2l-6.8,6.6s6.1-32.5-14.7-36.9l4.3-5.7C1359.3,749.3,1361.6,767.4,1361,781.2Z"/><path class="cls-78" d="M1324.7,712.2l1.3-2.4a27.2,27.2,0,0,0,3.4-12.3v-2.3a2.3,2.3,0,0,0-2.7-2.4h0a2.3,2.3,0,0,0-1.6,1.1l-3.4,5.9-8.3-19-.4.3a11.4,11.4,0,0,0-4.7,7.7l-1.5,10.6a15.5,15.5,0,0,0,1.3,8.8l3.5,7.5,8,1.5Z"/><path class="cls-79" d="M1473.2,856.3a55.1,55.1,0,0,1-1.3,8.3s-33.5,35.8-75.3,25.3c-35-9.5-34.5-22-34.5-22s.6-1.8,1.5-5.2c12,14.2,29.3,21.7,48.9,21.6C1438.1,884.2,1464.2,864,1473.2,856.3Z"/><path class="cls-80" d="M1617.6,860.8c4.6,2.6,8.2,9,8.2,14.2L1566,840.5c0-8.7,6.2-12.2,13.8-7.8a26,26,0,0,1,7.7,7.1c3.2-2.3,7.8-2.3,13,.7s12.4,11.4,15.2,19.4Z"/><path class="cls-81" d="M1619.6,859.6l-2-.9c-2.9-8-8.6-15.6-15.2-19.4-4.8-2.8-9.1-3-12.3-1.2l-.7.4a25.9,25.9,0,0,0-7.6-7.1c-3.8-2.2-7.3-2.4-9.8-1l-2,1.2c2.5-1.4,5.9-1.2,9.8,1a26,26,0,0,1,7.7,7.1l1.4-.8c3.1-1.4,7.1-1,11.5,1.6,6.6,3.8,12.4,11.4,15.2,19.4l2,.9c4.6,2.6,8.2,9,8.2,14.2l2-1.2C1627.8,868.6,1624.1,862.3,1619.6,859.6Z"/><path class="cls-82" d="M958.2,865.9c-5.2,3-9.4,10.2-9.3,16.2l68-39.3c0-9.9-7-13.9-15.6-8.9a29.5,29.5,0,0,0-8.7,8.1c-3.6-2.6-8.9-2.6-14.8.8-7.5,4.3-14.1,13-17.3,22.1A10.5,10.5,0,0,0,958.2,865.9Z"/><path class="cls-83" d="M955.9,864.6a10.5,10.5,0,0,1,2.2-1c3.3-9.1,9.8-17.7,17.3-22.1,5.4-3.1,10.4-3.4,13.9-1.4l.8.5a29.5,29.5,0,0,1,8.7-8.1c4.3-2.5,8.3-2.7,11.1-1.1l2.3,1.3c-2.8-1.6-6.8-1.4-11.1,1.1a29.5,29.5,0,0,0-8.7,8.1l-1.6-1c-3.5-1.6-8.1-1.1-13.1,1.8-7.5,4.3-14.1,13-17.3,22.1a10.5,10.5,0,0,0-2.2,1c-5.2,3-9.4,10.2-9.3,16.2l-2.3-1.3C946.5,874.9,950.7,867.6,955.9,864.6Z"/><g class="cls-84"><path class="cls-85" d="M1537.1,351.1c-2.7-1.5-6.3-1.3-10.4,1a23.3,23.3,0,0,0-3.5,2.5l3.5,2a23.3,23.3,0,0,1,3.5-2.5c4.1-2.3,7.7-2.6,10.4-1Z"/><path class="cls-86" d="M1496.1,351.4c-9.1,5.3-17.3,14.6-22.9,25.2-3.9-.8-8.6.2-13.6,3.1-13.4,7.7-24.2,26.5-24.2,41.9l3.5,2c0-15.4,10.8-34.2,24.2-41.9,5-2.9,9.7-3.8,13.6-3.1l-2.2-1.3,2.2,1.3c5.6-10.6,13.8-19.9,22.9-25.2s16.2-5.3,21.7-2.1l-3.5-2C1512.3,346.1,1504.6,346.5,1496.1,351.4Z"/><path class="cls-87" d="M1530.2,354.1c8.1-4.7,14.6-.9,14.7,8.4l-105.9,61.2c0-15.4,10.8-34.2,24.2-41.9,5-2.9,9.7-3.8,13.6-3.1,5.6-10.6,13.8-19.9,22.9-25.2,11.7-6.8,21.9-5,27.1,3.2A23.3,23.3,0,0,1,1530.2,354.1Z"/></g><path class="cls-6" d="M1116.1,775.5v60.3c0,4.9,3.5,6.8,7.7,4.4l24.9-14.4,4.9,4.6c.9.8,2.2.7,3.5,0a9.3,9.3,0,0,0,3.5-4.1l4.9-10.2,27.9-16.1a16.9,16.9,0,0,0,7.7-13.2V726.4c0-4.9-3.5-6.8-7.7-4.4l-60,34.7-9.6,5.6A16.8,16.8,0,0,0,1116.1,775.5Z"/><g class="cls-88"><polygon class="cls-31" points="1158.5 801.6 1160.2 801.6 1167.8 797.2 1170 793.9 1168.3 779.1 1161 779.8 1158.8 781.8 1157.5 786.1 1157.4 790.8 1158.5 801.6"/><path class="cls-89" d="M1182.4,777.3l-18.6-16.5-5,10.4-2,4-.4.7h0l-1.6,3.3-1.8,3.6-.8,1.6-1.1,2.4-.3.6-1.9,3.9-.5.9h0l-1,2-1.7,3.5-.4.8v7.6l11.4-6.6,3.3-1.9V786.9a4.4,4.4,0,0,1,2-3.5l3.6-2.1h0l.9-.3h1.1v11.1l14.7-8.5Zm-25,18.9v1.2l-2.2,1.3-3.9,2.3v-7.1h.1l1.1-.6,4.4-2.5.7-.4v5.8Z"/><polygon class="cls-18" points="1145.5 810 1106.6 787.4 1106.6 783.6 1145.5 806.2 1145.5 810"/><polygon class="cls-90" points="1145.5 806.2 1106.6 783.6 1106.5 776 1145.5 798.6 1145.5 806.2"/><polygon class="cls-91" points="1145.5 798.6 1106.5 776 1124.9 738.2 1163.9 760.8 1145.5 798.6"/><polygon class="cls-18" points="1160.1 797.8 1160.2 801.6 1145.5 810 1145.5 806.2 1156.9 799.7 1160.1 797.8"/><polygon class="cls-18" points="1182.5 788.7 1167.8 797.2 1167.8 793.4 1182.4 784.9 1182.5 788.7"/><polygon class="cls-31" points="1157.4 790.4 1157.5 797.4 1151.3 801 1151.3 793.9 1157.4 790.4"/><polygon class="cls-31" points="1142.9 781.5 1120.5 768.4 1126.8 755.4 1149.2 768.4 1142.9 781.5"/></g><path class="cls-6" d="M1598.9,599.4v60.3c0,4.9-3.5,6.8-7.7,4.4l-24.9-14.4-4.9,4.6c-.9.8-2.2.7-3.5,0a9.3,9.3,0,0,1-3.5-4.1l-4.9-10.2-27.9-16.1a16.9,16.9,0,0,1-7.7-13.2V550.4c0-4.9,3.5-6.8,7.7-4.4l60,34.7,9.6,5.6A16.8,16.8,0,0,1,1598.9,599.4Z"/><g class="cls-92"><g class="cls-84"><path class="cls-18" d="M1572.9,593l24,13.9c1.2.7,1.9,2.2,1.9,4.2l-24-13.9C1574.8,595.1,1574.1,593.7,1572.9,593Z"/><path class="cls-93" d="M1566.3,604.3a1.9,1.9,0,0,0,1.9-.2l24,13.9a1.9,1.9,0,0,1-1.9.2Z"/><path class="cls-94" d="M1570.9,599.5a1.9,1.9,0,0,0-.8-1.7l24,13.9a1.9,1.9,0,0,1,.8,1.7,5.9,5.9,0,0,1-2.7,4.6l-24-13.9A5.9,5.9,0,0,0,1570.9,599.5Z"/><path class="cls-95" d="M1570.1,597.7l24,13.9a1.9,1.9,0,0,0-1.9.2l-24-13.9A1.9,1.9,0,0,1,1570.1,597.7Z"/><path class="cls-96" d="M1590.3,618.2l-24-13.9a1.9,1.9,0,0,1-.8-1.7,5.9,5.9,0,0,1,2.7-4.6l24,13.9a5.9,5.9,0,0,0-2.7,4.6A1.9,1.9,0,0,0,1590.3,618.2Z"/><path class="cls-8" d="M1592.2,611.9c1.5-.9,2.7-.2,2.7,1.5a5.9,5.9,0,0,1-2.7,4.6c-1.5.9-2.7.2-2.7-1.5A5.9,5.9,0,0,1,1592.2,611.9Z"/><path class="cls-18" d="M1571.7,595l24,13.9a3.5,3.5,0,0,0-3.5.3l-24-13.9A3.5,3.5,0,0,1,1571.7,595Z"/><path class="cls-18" d="M1588.7,621l-24-13.9a3.4,3.4,0,0,1-1.4-3.2,10.8,10.8,0,0,1,4.9-8.5l24,13.9a10.8,10.8,0,0,0-4.9,8.5A3.4,3.4,0,0,0,1588.7,621Z"/><path class="cls-97" d="M1592.2,609.3c2.7-1.6,4.9-.3,4.9,2.8a10.8,10.8,0,0,1-4.9,8.5c-2.7,1.6-4.9.3-4.9-2.8A10.8,10.8,0,0,1,1592.2,609.3Zm0,8.7a5.9,5.9,0,0,0,2.7-4.6c0-1.7-1.2-2.4-2.7-1.5a5.9,5.9,0,0,0-2.7,4.6c0,1.7,1.2,2.4,2.7,1.5"/><path class="cls-98" d="M1580.4,566.4l24,13.9a2.4,2.4,0,0,0-2.4.2l-24-13.9A2.4,2.4,0,0,1,1580.4,566.4Z"/><path class="cls-99" d="M1545.8,616.8l1-.4,24,13.9-1,.4Z"/><path class="cls-100" d="M1545.8,616.8c9.6,1.9,16,9.3,24,13.9h-.1l-24-13.9Z"/><path class="cls-101" d="M1545.1,616.8h.6l24,13.9h-.6Z"/><path class="cls-102" d="M1545.1,616.8l1,.6,1,.6.5.3,1.6.9,4.1,2.4,15.8,9.2h-.3l-24-13.9Z"/><path class="cls-18" d="M1551.4,605.4l24,13.9c1.2.7,1.9,2.2,1.9,4.2l-24-13.9C1553.3,607.5,1552.6,606.1,1551.4,605.4Z"/><path class="cls-103" d="M1549.4,611.9a1.9,1.9,0,0,0-.8-1.7l24,13.9a1.9,1.9,0,0,1,.8,1.7,5.9,5.9,0,0,1-2.7,4.6l-24-13.9A5.9,5.9,0,0,0,1549.4,611.9Z"/><path class="cls-104" d="M1544.8,616.7h0l24,13.9h0Z"/><path class="cls-105" d="M1548.6,610.2l24,13.9a1.9,1.9,0,0,0-1.9.2l-24-13.9A1.9,1.9,0,0,1,1548.6,610.2Z"/><path class="cls-106" d="M1568.8,630.6l-24-13.9a1.9,1.9,0,0,1-.8-1.7,5.9,5.9,0,0,1,2.7-4.6l24,13.9a5.9,5.9,0,0,0-2.7,4.6A1.9,1.9,0,0,0,1568.8,630.6Z"/><path class="cls-18" d="M1550.2,607.4l24,13.9a3.5,3.5,0,0,0-3.5.3l-24-13.9A3.5,3.5,0,0,1,1550.2,607.4Z"/><path class="cls-18" d="M1567.2,633.4l-24-13.9a3.4,3.4,0,0,1-1.4-3.2,10.8,10.8,0,0,1,4.9-8.5l24,13.9a10.8,10.8,0,0,0-4.9,8.5A3.4,3.4,0,0,0,1567.2,633.4Z"/><polygon class="cls-107" points="1557.8 625 1533.8 611.1 1581.4 583.6 1605.4 597.5 1557.8 625"/><polygon class="cls-108" points="1584.1 605.3 1560.1 591.4 1572.7 584.1 1596.7 598 1584.1 605.3"/><polygon class="cls-109" points="1584.1 594.4 1560.1 580.5 1572.7 573.2 1596.7 587.1 1584.1 594.4"/><polygon class="cls-110" points="1596.7 598 1572.7 584.1 1572.7 573.2 1596.7 587.1 1596.7 598"/><path class="cls-111" d="M1570.7,621.7c2.7-1.6,4.9-.3,4.9,2.8a10.8,10.8,0,0,1-4.9,8.5c-2.7,1.6-4.9.3-4.9-2.8A10.8,10.8,0,0,1,1570.7,621.7Zm0,8.7a5.9,5.9,0,0,0,2.7-4.6c0-1.7-1.2-2.4-2.7-1.5a5.9,5.9,0,0,0-2.7,4.6c0,1.7,1.2,2.4,2.7,1.5"/><path class="cls-8" d="M1570.7,624.3c1.5-.9,2.7-.2,2.7,1.5a5.9,5.9,0,0,1-2.7,4.6c-1.5.9-2.7.2-2.7-1.5A5.9,5.9,0,0,1,1570.7,624.3Z"/><polygon class="cls-112" points="1584.1 605.3 1560.1 591.4 1560.1 580.5 1584.1 594.4 1584.1 605.3"/><polygon class="cls-8" points="1596.7 587.1 1596.7 598 1584.1 605.3 1584.1 594.4 1596.7 587.1"/><polygon class="cls-113" points="1578.5 608.5 1554.5 594.6 1554.5 583.7 1578.5 597.6 1578.5 608.5"/><path class="cls-114" d="M1558.5,633.3l-24-13.9a2.4,2.4,0,0,1-1-2.4l24,13.9A2.4,2.4,0,0,0,1558.5,633.3Z"/><polygon class="cls-115" points="1575.1 599.6 1551.1 585.6 1554.5 583.7 1578.5 597.6 1575.1 599.6"/><polygon class="cls-116" points="1563 617.5 1539 603.6 1554.5 594.6 1578.5 608.5 1563 617.5"/><polygon class="cls-117" points="1574.5 596.5 1550.5 582.5 1578 566.7 1602 580.6 1574.5 596.5"/><path class="cls-118" d="M1605.4,597.5v5.9a7.3,7.3,0,0,1-3.3,5.8l-3.3,1.9c0-4.2-3-5.9-6.6-3.8a14.5,14.5,0,0,0-6.6,11.4l-8.3,4.8c0-4.2-3-5.9-6.6-3.8a14.5,14.5,0,0,0-6.6,11.4l-3.3,1.9c-1.9,1.1-3.5.1-3.3-2.2l.3-5.9Z"/><polygon class="cls-119" points="1557.5 630.9 1533.5 617 1533.8 611.1 1557.8 625 1557.5 630.9"/><polygon class="cls-120" points="1563 617.5 1539 603.6 1541.6 597.3 1565.6 611.2 1563 617.5"/><path class="cls-8" d="M1578.5,597.6v10.9l-15.5,9,2.6-6.3c2.1-5,5.7-9.4,9.6-11.6Z"/><path class="cls-121" d="M1565.6,611.2l-24-13.9c2.1-5,5.7-9.4,9.6-11.6l24,13.9C1571.2,601.8,1567.6,606.2,1565.6,611.2Z"/><polygon class="cls-122" points="1557.8 625 1533.8 611.1 1533.9 608.7 1557.9 622.7 1557.8 625"/><path class="cls-123" d="M1557.9,622.7l-24-13.9a6.5,6.5,0,0,1,.5-2.1l24,13.9A6.5,6.5,0,0,0,1557.9,622.7Z"/><polygon class="cls-124" points="1558.4 620.5 1534.4 606.6 1538.4 597.3 1562.4 611.2 1558.4 620.5"/><path class="cls-125" d="M1562.4,611.2l-24-13.9c2.7-6.3,7.2-11.9,12.2-14.7l24,13.9C1569.6,599.3,1565,604.9,1562.4,611.2Z"/><path class="cls-126" d="M1602,580.6c1.8-1.1,3.3-.2,3.3,1.9v15L1557.8,625v-2.4a6.5,6.5,0,0,1,.5-2.1l3.9-9.3c2.7-6.3,7.2-11.9,12.2-14.7Zm-23.6,27.9V597.6l-3.3,1.9c-3.9,2.2-7.5,6.6-9.6,11.6l-2.6,6.3,15.5-9m18.2-10.5V587.1l-12.6,7.3v10.9l12.6-7.3"/><path class="cls-127" d="M1550.5,582.5c-4.9,2.9-9.5,8.4-12.2,14.7l-3.9,9.3,24,13.9,3.9-9.3c2.7-6.3,7.2-11.9,12.2-14.7Z"/><path class="cls-8" d="M1564,603.3a37.2,37.2,0,0,0-3.8,6.9l-2.9,6.8-19.8-11.5,3.1-7.4a32.4,32.4,0,0,1,3.2-5.8Z"/></g><path class="cls-128" d="M1597.8,574.7l-23.4,13.6c-7.9,4.6-18,7.6-29,8.6v1.9c11-1,21.2-4,29-8.6l23.4-13.6a3.4,3.4,0,0,0,2-2.8v-1.9A3.4,3.4,0,0,1,1597.8,574.7Z"/><path class="cls-129" d="M1597.8,569.1c2.7,1.5,2.7,4,0,5.6l-23.4,13.6c-7.9,4.6-18,7.6-29,8.6,1.7-6.4,6.9-12.3,14.7-16.8l23.4-13.6a10.6,10.6,0,0,1,9.6,0Z"/></g></g></g></svg>