<svg xmlns="http://www.w3.org/2000/svg" xmlns:xlink="http://www.w3.org/1999/xlink" viewBox="0 0 1034.4 948.4"><defs><style>.cls-1{fill:none;}.cls-2{fill:url(#linear-gradient);}.cls-3{fill:url(#linear-gradient-2);}.cls-4{fill:url(#linear-gradient-3);}.cls-5{opacity:0.33;}.cls-6{fill:#067f43;}.cls-7{fill:url(#linear-gradient-4);}.cls-8{fill:#05c36b;}.cls-9{fill:#fff;}.cls-10{fill:url(#linear-gradient-5);}.cls-11{fill:url(#linear-gradient-6);}.cls-12{fill:url(#linear-gradient-7);}.cls-13{fill:url(#linear-gradient-8);}.cls-14{fill:url(#linear-gradient-9);}.cls-15{fill:url(#linear-gradient-10);}.cls-16{fill:url(#linear-gradient-11);}.cls-17{fill:url(#linear-gradient-12);}.cls-18{fill:url(#linear-gradient-13);}.cls-19,.cls-20,.cls-21,.cls-22{fill:#17aa60;}.cls-20{opacity:0.54;}.cls-21{opacity:0.36;}.cls-22{opacity:0.26;}.cls-23{fill:url(#linear-gradient-14);}.cls-24{fill:url(#linear-gradient-15);}.cls-25{fill:url(#linear-gradient-16);}.cls-26{fill:url(#linear-gradient-17);}.cls-27{fill:url(#linear-gradient-18);}.cls-28{fill:url(#linear-gradient-19);}.cls-29{fill:url(#linear-gradient-20);}.cls-30{fill:url(#linear-gradient-21);}.cls-31{fill:url(#linear-gradient-22);}.cls-32{fill:#febe40;}.cls-33{fill:url(#linear-gradient-23);}.cls-34{fill:url(#linear-gradient-24);}.cls-35{fill:url(#linear-gradient-25);}.cls-36{fill:url(#linear-gradient-26);}.cls-37{fill:url(#linear-gradient-27);}.cls-38{fill:url(#linear-gradient-28);}.cls-39{fill:url(#linear-gradient-29);}.cls-40{fill:url(#linear-gradient-30);}.cls-41{fill:url(#linear-gradient-31);}.cls-42{fill:url(#linear-gradient-32);}.cls-43{fill:url(#linear-gradient-33);}.cls-44{fill:url(#linear-gradient-34);}.cls-45{fill:url(#linear-gradient-35);}.cls-46{fill:url(#linear-gradient-36);}.cls-47{fill:url(#linear-gradient-37);}.cls-48{fill:url(#linear-gradient-38);}.cls-49{fill:#50ef9f;}.cls-50{fill:url(#linear-gradient-39);}.cls-51{fill:url(#linear-gradient-40);}.cls-52{fill:url(#linear-gradient-41);}.cls-53{fill:url(#linear-gradient-42);}.cls-54{fill:url(#linear-gradient-43);}.cls-55{fill:url(#linear-gradient-44);}.cls-56{fill:url(#linear-gradient-45);}.cls-57{fill:url(#linear-gradient-46);}.cls-58{fill:url(#linear-gradient-47);}.cls-59{fill:url(#linear-gradient-48);}.cls-60{fill:url(#linear-gradient-49);}.cls-61{fill:url(#linear-gradient-50);}.cls-62{fill:url(#linear-gradient-51);}.cls-63{fill:url(#linear-gradient-52);}.cls-64{fill:url(#linear-gradient-53);}.cls-65{fill:url(#linear-gradient-54);}.cls-66{fill:url(#linear-gradient-55);}.cls-67{fill:url(#linear-gradient-56);}.cls-68{fill:url(#linear-gradient-57);}.cls-69{fill:url(#linear-gradient-58);}.cls-70{fill:url(#linear-gradient-59);}.cls-71{fill:url(#linear-gradient-60);}.cls-72{fill:url(#linear-gradient-61);}.cls-73{fill:url(#linear-gradient-62);}.cls-74{fill:url(#linear-gradient-63);}.cls-75{fill:url(#linear-gradient-64);}.cls-76{fill:url(#linear-gradient-65);}.cls-77{fill:url(#linear-gradient-66);}.cls-78{fill:url(#linear-gradient-67);}.cls-79{fill:url(#linear-gradient-68);}.cls-80{fill:url(#linear-gradient-69);}.cls-81{fill:url(#linear-gradient-70);}.cls-82{fill:url(#linear-gradient-71);}.cls-83{fill:url(#linear-gradient-72);}.cls-84{fill:url(#linear-gradient-73);}.cls-85{isolation:isolate;}.cls-86{fill:url(#linear-gradient-74);}.cls-87{fill:url(#linear-gradient-75);}.cls-88{fill:url(#linear-gradient-76);}.cls-89{clip-path:url(#clip-path);}.cls-90{fill:url(#linear-gradient-77);}.cls-91{fill:url(#linear-gradient-78);}.cls-92{fill:url(#linear-gradient-79);}.cls-93{clip-path:url(#clip-path-2);}.cls-94{fill:url(#linear-gradient-80);}.cls-95{fill:url(#linear-gradient-81);}.cls-96{fill:url(#linear-gradient-82);}.cls-97{fill:url(#linear-gradient-83);}.cls-98{fill:url(#linear-gradient-84);}.cls-99{fill:url(#linear-gradient-85);}.cls-100{fill:url(#linear-gradient-86);}.cls-101{fill:url(#linear-gradient-87);}.cls-102{fill:url(#linear-gradient-88);}.cls-103{fill:url(#linear-gradient-89);}.cls-104{fill:url(#linear-gradient-90);}.cls-105{fill:url(#linear-gradient-91);}.cls-106{fill:url(#linear-gradient-92);}.cls-107{fill:url(#linear-gradient-93);}.cls-108{fill:url(#linear-gradient-94);}.cls-109{fill:url(#linear-gradient-95);}.cls-110{fill:url(#linear-gradient-96);}.cls-111{fill:url(#linear-gradient-97);}.cls-112{fill:url(#linear-gradient-98);}.cls-113{fill:url(#linear-gradient-99);}.cls-114{fill:url(#linear-gradient-100);}.cls-115{fill:url(#linear-gradient-101);}.cls-116{fill:url(#linear-gradient-102);}.cls-117{fill:url(#linear-gradient-103);}.cls-118{fill:url(#linear-gradient-104);}.cls-119{fill:url(#linear-gradient-105);}.cls-120{fill:url(#linear-gradient-106);}.cls-121{fill:url(#linear-gradient-107);}.cls-122{fill:url(#linear-gradient-108);}.cls-123{fill:url(#linear-gradient-109);}.cls-124{fill:url(#linear-gradient-110);}.cls-125{fill:url(#linear-gradient-111);}.cls-126{fill:url(#linear-gradient-112);}.cls-127{fill:url(#linear-gradient-113);}.cls-128{fill:url(#linear-gradient-114);}.cls-129{fill:url(#linear-gradient-115);}.cls-130{fill:url(#linear-gradient-116);}</style><linearGradient id="linear-gradient" x1="848" y1="-394.13" x2="269.77" y2="988.14" gradientUnits="userSpaceOnUse"><stop offset="0" stop-color="#12e079"/><stop offset="1" stop-color="#067f43"/></linearGradient><linearGradient id="linear-gradient-2" x1="367.3" y1="677.06" x2="585.63" y2="127.52" gradientUnits="userSpaceOnUse"><stop offset="0" stop-color="#067f43" stop-opacity="0"/><stop offset="1" stop-color="#12e079"/></linearGradient><linearGradient id="linear-gradient-3" x1="482.17" y1="619.61" x2="530.17" y2="231.61" gradientUnits="userSpaceOnUse"><stop offset="0" stop-color="#e5e6e7"/><stop offset="1" stop-color="#fff"/></linearGradient><linearGradient id="linear-gradient-4" x1="598.32" y1="321.08" x2="504.73" y2="453.01" gradientUnits="userSpaceOnUse"><stop offset="0" stop-color="#fed330"/><stop offset="1" stop-color="#febe40"/></linearGradient><linearGradient id="linear-gradient-5" x1="377.64" y1="832.05" x2="929.93" y2="832.05" gradientUnits="userSpaceOnUse"><stop offset="0" stop-color="#067f43"/><stop offset="1" stop-color="#12e079"/></linearGradient><linearGradient id="linear-gradient-6" x1="340.67" y1="653.98" x2="1423.25" y2="653.98" xlink:href="#linear-gradient-5"/><linearGradient id="linear-gradient-7" x1="515.73" y1="697.75" x2="480.64" y2="735.74" gradientTransform="matrix(-1.21, 0.18, 0.22, 0.79, 1001.08, 59.46)" xlink:href="#linear-gradient-4"/><linearGradient id="linear-gradient-8" x1="553.27" y1="727.45" x2="569.78" y2="727.45" gradientTransform="matrix(1.23, 0.03, -0.1, 0.81, -43.35, 128.63)" xlink:href="#linear-gradient-4"/><linearGradient id="linear-gradient-9" x1="496.95" y1="714.7" x2="454.62" y2="754.32" gradientTransform="matrix(-1.21, 0.18, 0.22, 0.79, 1001.08, 59.46)" gradientUnits="userSpaceOnUse"><stop offset="0" stop-color="#faf39d"/><stop offset="1" stop-color="#fed330"/></linearGradient><linearGradient id="linear-gradient-10" x1="495.11" y1="712.73" x2="452.78" y2="752.35" xlink:href="#linear-gradient-9"/><linearGradient id="linear-gradient-11" x1="720.74" y1="795.68" x2="917.29" y2="861.07" gradientUnits="userSpaceOnUse"><stop offset="0" stop-color="#067f43" stop-opacity="0"/><stop offset="1" stop-color="#067f43"/></linearGradient><linearGradient id="linear-gradient-12" x1="627.43" y1="804.03" x2="815.04" y2="873.1" xlink:href="#linear-gradient-11"/><linearGradient id="linear-gradient-13" x1="689.79" y1="540.6" x2="680.12" y2="464.27" xlink:href="#linear-gradient-5"/><linearGradient id="linear-gradient-14" x1="763.97" y1="821.05" x2="856.24" y2="729.65" gradientUnits="userSpaceOnUse"><stop offset="0" stop-color="#baf7d5"/><stop offset="1" stop-color="#fff"/></linearGradient><linearGradient id="linear-gradient-15" x1="767.89" y1="817.5" x2="823.55" y2="817.5" gradientUnits="userSpaceOnUse"><stop offset="0" stop-color="#febe40"/><stop offset="1" stop-color="#fed330"/></linearGradient><linearGradient id="linear-gradient-16" x1="816.08" y1="825.52" x2="872.45" y2="825.52" xlink:href="#linear-gradient-15"/><linearGradient id="linear-gradient-17" x1="862.9" y1="625.05" x2="731.64" y2="738.98" xlink:href="#linear-gradient"/><linearGradient id="linear-gradient-18" x1="683.38" y1="817.53" x2="772.62" y2="751.69" xlink:href="#linear-gradient-14"/><linearGradient id="linear-gradient-19" x1="671.69" y1="821.98" x2="727.36" y2="821.98" xlink:href="#linear-gradient-15"/><linearGradient id="linear-gradient-20" x1="711.43" y1="830.96" x2="767.8" y2="830.96" xlink:href="#linear-gradient-15"/><linearGradient id="linear-gradient-21" x1="816.49" y1="628.19" x2="685.23" y2="742.12" xlink:href="#linear-gradient"/><linearGradient id="linear-gradient-22" x1="779.8" y1="658.05" x2="761.37" y2="733.88" gradientUnits="userSpaceOnUse"><stop offset="0" stop-color="#067f43"/><stop offset="1" stop-color="#17aa60" stop-opacity="0"/></linearGradient><linearGradient id="linear-gradient-23" x1="1098.5" y1="641.64" x2="1119.38" y2="584.55" gradientTransform="translate(-226.7 -98.5) rotate(7.7)" xlink:href="#linear-gradient-5"/><linearGradient id="linear-gradient-24" x1="701.55" y1="750.91" x2="728.77" y2="698.26" xlink:href="#linear-gradient-5"/><linearGradient id="linear-gradient-25" x1="748.41" y1="691.91" x2="684.61" y2="721.77" xlink:href="#linear-gradient"/><linearGradient id="linear-gradient-26" x1="713.47" y1="779.64" x2="757.65" y2="732.86" xlink:href="#linear-gradient-5"/><linearGradient id="linear-gradient-27" x1="794.94" y1="778" x2="815.73" y2="694.5" xlink:href="#linear-gradient-5"/><linearGradient id="linear-gradient-28" x1="744.54" y1="501.09" x2="692.88" y2="390.63" xlink:href="#linear-gradient-14"/><linearGradient id="linear-gradient-29" x1="775.67" y1="449.96" x2="732" y2="480.96" gradientTransform="matrix(1, 0, 0, 1, 0, 0)" xlink:href="#linear-gradient-9"/><linearGradient id="linear-gradient-30" x1="802.07" y1="505.07" x2="742.72" y2="619.87" xlink:href="#linear-gradient-4"/><linearGradient id="linear-gradient-31" x1="746.7" y1="471.01" x2="777.5" y2="450.26" xlink:href="#linear-gradient-14"/><linearGradient id="linear-gradient-32" x1="732.07" y1="492.98" x2="786.16" y2="459.35" gradientUnits="userSpaceOnUse"><stop offset="0" stop-color="#fed330"/><stop offset="1" stop-color="#faf39d"/></linearGradient><linearGradient id="linear-gradient-33" x1="752.81" y1="555.43" x2="766.45" y2="450.38" xlink:href="#linear-gradient-5"/><linearGradient id="linear-gradient-34" x1="728.54" y1="530.71" x2="762.01" y2="494" xlink:href="#linear-gradient-2"/><linearGradient id="linear-gradient-35" x1="2105.29" y1="-3.68" x2="2123.26" y2="-53.15" gradientTransform="matrix(0.84, 0.55, -0.55, 0.84, -1001.51, -646.59)" gradientUnits="userSpaceOnUse"><stop offset="0" stop-color="#067f43"/><stop offset="1" stop-color="#12e079" stop-opacity="0"/></linearGradient><linearGradient id="linear-gradient-36" x1="770.64" y1="634.23" x2="809.96" y2="415.25" xlink:href="#linear-gradient-5"/><linearGradient id="linear-gradient-37" x1="779.08" y1="619.22" x2="800.75" y2="498.48" xlink:href="#linear-gradient-5"/><linearGradient id="linear-gradient-38" x1="780.11" y1="635.93" x2="819.42" y2="416.95" xlink:href="#linear-gradient-5"/><linearGradient id="linear-gradient-39" x1="706.82" y1="517.67" x2="655.7" y2="408.36" xlink:href="#linear-gradient-14"/><linearGradient id="linear-gradient-40" x1="686.51" y1="422.31" x2="680.55" y2="444.84" xlink:href="#linear-gradient"/><linearGradient id="linear-gradient-41" x1="686.22" y1="422.24" x2="680.26" y2="444.76" xlink:href="#linear-gradient"/><linearGradient id="linear-gradient-42" x1="685.93" y1="422.16" x2="679.98" y2="444.69" xlink:href="#linear-gradient"/><linearGradient id="linear-gradient-43" x1="683.71" y1="421.57" x2="677.75" y2="444.1" xlink:href="#linear-gradient"/><linearGradient id="linear-gradient-44" x1="716.42" y1="422.85" x2="722.05" y2="440.18" xlink:href="#linear-gradient"/><linearGradient id="linear-gradient-45" x1="723.62" y1="441.57" x2="713.88" y2="414.12" gradientUnits="userSpaceOnUse"><stop offset="0" stop-color="#05c36b"/><stop offset="1" stop-color="#baf7d5"/></linearGradient><linearGradient id="linear-gradient-46" x1="749.86" y1="477.86" x2="743.36" y2="416.13" xlink:href="#linear-gradient-14"/><linearGradient id="linear-gradient-47" x1="724.57" y1="491.15" x2="753.37" y2="423.13" xlink:href="#linear-gradient"/><linearGradient id="linear-gradient-48" x1="719.35" y1="421.9" x2="724.98" y2="439.23" xlink:href="#linear-gradient"/><linearGradient id="linear-gradient-49" x1="735.06" y1="452.66" x2="746.32" y2="425.37" xlink:href="#linear-gradient-45"/><linearGradient id="linear-gradient-50" x1="739.37" y1="432.79" x2="730.92" y2="473.29" xlink:href="#linear-gradient"/><linearGradient id="linear-gradient-51" x1="747.58" y1="430.34" x2="803.45" y2="430.34" xlink:href="#linear-gradient-4"/><linearGradient id="linear-gradient-52" x1="799.67" y1="420.57" x2="754.51" y2="440.55" xlink:href="#linear-gradient-4"/><linearGradient id="linear-gradient-53" x1="721.69" y1="412.48" x2="783.35" y2="412.48" xlink:href="#linear-gradient-4"/><linearGradient id="linear-gradient-54" x1="780.72" y1="389.94" x2="735.56" y2="428.6" gradientTransform="matrix(1, 0, 0, 1, 0, 0)" xlink:href="#linear-gradient-9"/><linearGradient id="linear-gradient-55" x1="730.35" y1="437.39" x2="724.61" y2="403.93" xlink:href="#linear-gradient-4"/><linearGradient id="linear-gradient-56" x1="689.38" y1="422.96" x2="675.84" y2="435.9" xlink:href="#linear-gradient-45"/><linearGradient id="linear-gradient-57" x1="751.9" y1="608.34" x2="768.58" y2="546.39" xlink:href="#linear-gradient-5"/><linearGradient id="linear-gradient-58" x1="748.14" y1="604.26" x2="760.16" y2="562.02" xlink:href="#linear-gradient-5"/><linearGradient id="linear-gradient-59" x1="781.55" y1="619.57" x2="817.61" y2="481.16" xlink:href="#linear-gradient-5"/><linearGradient id="linear-gradient-60" x1="784.99" y1="626.65" x2="811.74" y2="541.57" xlink:href="#linear-gradient-5"/><linearGradient id="linear-gradient-61" x1="788.4" y1="608.12" x2="809.04" y2="542.47" xlink:href="#linear-gradient-5"/><linearGradient id="linear-gradient-62" x1="805.46" y1="599.51" x2="803.3" y2="558.79" xlink:href="#linear-gradient-5"/><linearGradient id="linear-gradient-63" x1="785.9" y1="613.32" x2="811.27" y2="515.96" xlink:href="#linear-gradient-5"/><linearGradient id="linear-gradient-64" x1="757" y1="548.51" x2="700.78" y2="657.25" xlink:href="#linear-gradient-4"/><linearGradient id="linear-gradient-65" x1="691.03" y1="579.36" x2="642.84" y2="489.63" xlink:href="#linear-gradient-14"/><linearGradient id="linear-gradient-66" x1="722.22" y1="488.89" x2="709.27" y2="561.12" gradientTransform="matrix(1, 0, 0, 1, 0, 0)" xlink:href="#linear-gradient-9"/><linearGradient id="linear-gradient-67" x1="686.22" y1="557.7" x2="706.69" y2="557.7" gradientTransform="matrix(1, 0, 0, 1, 0, 0)" xlink:href="#linear-gradient-9"/><linearGradient id="linear-gradient-68" x1="707.59" y1="572.61" x2="658.2" y2="480.66" xlink:href="#linear-gradient-14"/><linearGradient id="linear-gradient-69" x1="726.95" y1="684.51" x2="806.55" y2="603.29" xlink:href="#linear-gradient-15"/><linearGradient id="linear-gradient-70" x1="991.77" y1="713.34" x2="904.27" y2="610.84" xlink:href="#linear-gradient-3"/><linearGradient id="linear-gradient-71" x1="955.43" y1="667.94" x2="875.43" y2="559.27" xlink:href="#linear-gradient-3"/><linearGradient id="linear-gradient-72" x1="814.04" y1="343.24" x2="714.59" y2="226.74" gradientTransform="matrix(-1, 0, 0, 1, 1533.34, 0)" xlink:href="#linear-gradient-3"/><linearGradient id="linear-gradient-73" x1="772.73" y1="291.64" x2="681.8" y2="168.13" gradientTransform="matrix(-1, 0, 0, 1, 1533.34, 0)" xlink:href="#linear-gradient-3"/><linearGradient id="linear-gradient-74" x1="358.16" y1="765.96" x2="301.09" y2="796.34" xlink:href="#linear-gradient-3"/><linearGradient id="linear-gradient-75" x1="358.06" y1="765.77" x2="300.99" y2="796.14" xlink:href="#linear-gradient-3"/><linearGradient id="linear-gradient-76" x1="205.56" y1="916.81" x2="364.36" y2="742.47" xlink:href="#linear-gradient-3"/><clipPath id="clip-path"><path class="cls-1" d="M473.7,566.2v57.4c0,4.6,3.3,6.5,7.3,4.2L504.9,614l4.7,4.4c.8.8,2.1.7,3.4,0a8.8,8.8,0,0,0,3.3-3.9l4.6-9.7,26.5-15.3a16,16,0,0,0,7.3-12.6V519.5c0-4.6-3.3-6.5-7.3-4.2l-57.1,33-9.2,5.3A16,16,0,0,0,473.7,566.2Z"/></clipPath><linearGradient id="linear-gradient-77" x1="-240.5" y1="539.01" x2="-281.32" y2="598.85" gradientTransform="translate(785.3)" xlink:href="#linear-gradient-9"/><linearGradient id="linear-gradient-78" x1="-263.01" y1="523.65" x2="-303.83" y2="583.49" gradientTransform="translate(785.3)" xlink:href="#linear-gradient-9"/><linearGradient id="linear-gradient-79" x1="-284.49" y1="546.75" x2="-315.62" y2="591.03" gradientTransform="translate(785.3)" xlink:href="#linear-gradient-9"/><clipPath id="clip-path-2"><path class="cls-1" d="M932.9,398.8v57.4c0,4.6-3.3,6.5-7.3,4.2l-23.7-13.7-4.7,4.4c-.8.8-2.1.7-3.4,0a8.8,8.8,0,0,1-3.3-3.9l-4.6-9.7-26.5-15.3a16,16,0,0,1-7.3-12.6V352.1c0-4.6,3.3-6.5,7.3-4.2l57.1,33,9.2,5.3A16,16,0,0,1,932.9,398.8Z"/></clipPath><linearGradient id="linear-gradient-80" x1="-1283.77" y1="442.91" x2="-1240.55" y2="375.41" gradientTransform="translate(2176.8)" xlink:href="#linear-gradient-5"/><linearGradient id="linear-gradient-81" x1="-1283.69" y1="442.96" x2="-1240.47" y2="375.46" gradientTransform="translate(2176.8)" xlink:href="#linear-gradient-5"/><linearGradient id="linear-gradient-82" x1="-1285.23" y1="441.97" x2="-1242.02" y2="374.48" gradientTransform="translate(2176.8)" xlink:href="#linear-gradient-5"/><linearGradient id="linear-gradient-83" x1="-1285.31" y1="441.92" x2="-1242.1" y2="374.43" gradientTransform="translate(2176.8)" xlink:href="#linear-gradient-5"/><linearGradient id="linear-gradient-84" x1="955.69" y1="399.47" x2="886.69" y2="432.72" xlink:href="#linear-gradient-5"/><linearGradient id="linear-gradient-85" x1="-1291.94" y1="437.68" x2="-1248.72" y2="370.18" gradientTransform="translate(2176.8)" xlink:href="#linear-gradient-5"/><linearGradient id="linear-gradient-86" x1="-1292.56" y1="437.29" x2="-1249.34" y2="369.79" gradientTransform="translate(2176.8)" xlink:href="#linear-gradient-5"/><linearGradient id="linear-gradient-87" x1="-1292.83" y1="437.11" x2="-1249.61" y2="369.61" gradientTransform="translate(2176.8)" xlink:href="#linear-gradient-5"/><linearGradient id="linear-gradient-88" x1="-1293.06" y1="436.96" x2="-1249.85" y2="369.46" gradientTransform="translate(2176.8)" xlink:href="#linear-gradient-5"/><linearGradient id="linear-gradient-89" x1="-1293.39" y1="436.75" x2="-1250.17" y2="369.26" gradientTransform="translate(2176.8)" xlink:href="#linear-gradient-5"/><linearGradient id="linear-gradient-90" x1="-1292.83" y1="437.11" x2="-1249.61" y2="369.61" gradientTransform="translate(2176.8)" xlink:href="#linear-gradient-5"/><linearGradient id="linear-gradient-91" x1="-1293.51" y1="436.68" x2="-1250.29" y2="369.18" gradientTransform="translate(2176.8)" xlink:href="#linear-gradient-5"/><linearGradient id="linear-gradient-92" x1="-1294.37" y1="436.12" x2="-1251.15" y2="368.63" gradientTransform="translate(2176.8)" xlink:href="#linear-gradient-5"/><linearGradient id="linear-gradient-93" x1="-1294.45" y1="436.07" x2="-1251.23" y2="368.58" gradientTransform="translate(2176.8)" xlink:href="#linear-gradient-5"/><linearGradient id="linear-gradient-94" x1="-1293.22" y1="436.86" x2="-1250.01" y2="369.36" gradientTransform="translate(2176.8)" xlink:href="#linear-gradient-5"/><linearGradient id="linear-gradient-95" x1="-1291.46" y1="437.99" x2="-1248.24" y2="370.49" gradientTransform="translate(2176.8)" xlink:href="#linear-gradient-5"/><linearGradient id="linear-gradient-96" x1="-1296.19" y1="434.96" x2="-1252.97" y2="367.46" gradientTransform="translate(2176.8)" xlink:href="#linear-gradient-5"/><linearGradient id="linear-gradient-97" x1="-1291.14" y1="438.19" x2="-1247.93" y2="370.69" gradientTransform="translate(2176.8)" xlink:href="#linear-gradient-5"/><linearGradient id="linear-gradient-98" x1="956.45" y1="401.05" x2="887.45" y2="434.3" xlink:href="#linear-gradient-5"/><linearGradient id="linear-gradient-99" x1="-1296.5" y1="434.76" x2="-1253.28" y2="367.26" gradientTransform="translate(2176.8)" xlink:href="#linear-gradient-5"/><linearGradient id="linear-gradient-100" x1="-1298.88" y1="433.23" x2="-1255.67" y2="365.74" gradientTransform="translate(2176.8)" xlink:href="#linear-gradient-5"/><linearGradient id="linear-gradient-101" x1="979.07" y1="406.16" x2="790.41" y2="439.49" xlink:href="#linear-gradient-5"/><linearGradient id="linear-gradient-102" x1="-1301.95" y1="431.27" x2="-1258.74" y2="363.77" gradientTransform="translate(2176.8)" xlink:href="#linear-gradient-5"/><linearGradient id="linear-gradient-103" x1="-1299.82" y1="432.64" x2="-1256.6" y2="365.14" gradientTransform="translate(2176.8)" xlink:href="#linear-gradient-5"/><linearGradient id="linear-gradient-104" x1="975.37" y1="394.78" x2="876.87" y2="374.78" xlink:href="#linear-gradient-5"/><linearGradient id="linear-gradient-105" x1="978.56" y1="403.25" x2="789.89" y2="436.58" xlink:href="#linear-gradient-5"/><linearGradient id="linear-gradient-106" x1="978.39" y1="402.3" x2="789.73" y2="435.63" xlink:href="#linear-gradient-5"/><linearGradient id="linear-gradient-107" x1="-1303.6" y1="430.21" x2="-1260.38" y2="362.72" gradientTransform="translate(2176.8)" xlink:href="#linear-gradient-5"/><linearGradient id="linear-gradient-108" x1="-1303.54" y1="430.25" x2="-1260.33" y2="362.75" gradientTransform="translate(2176.8)" xlink:href="#linear-gradient-5"/><linearGradient id="linear-gradient-109" x1="967.68" y1="432.67" x2="869.18" y2="412.67" xlink:href="#linear-gradient-5"/><linearGradient id="linear-gradient-110" x1="968.11" y1="430.55" x2="869.59" y2="410.55" xlink:href="#linear-gradient-5"/><linearGradient id="linear-gradient-111" x1="-1305.56" y1="428.96" x2="-1262.34" y2="361.46" gradientTransform="translate(2176.8)" xlink:href="#linear-gradient-5"/><linearGradient id="linear-gradient-112" x1="-1305.52" y1="428.98" x2="-1262.3" y2="361.49" gradientTransform="translate(2176.8)" xlink:href="#linear-gradient-5"/><linearGradient id="linear-gradient-113" x1="971.64" y1="413.15" x2="873.14" y2="393.15" xlink:href="#linear-gradient-5"/><linearGradient id="linear-gradient-114" x1="970.85" y1="417.06" x2="872.35" y2="397.06" xlink:href="#linear-gradient-5"/><linearGradient id="linear-gradient-115" x1="-1220.68" y1="339.73" x2="-1266.48" y2="383.5" gradientTransform="translate(2176.8)" xlink:href="#linear-gradient-9"/><linearGradient id="linear-gradient-116" x1="-1261.52" y1="374.73" x2="-1288.14" y2="405.42" gradientTransform="translate(2176.8)" xlink:href="#linear-gradient-9"/></defs><title>Asset 8</title><g id="Layer_2" data-name="Layer 2"><g id="Layer_6" data-name="Layer 6"><path class="cls-2" d="M1034.4,0V793.3C974,852.4,803.5,927,706.1,940l-5,.6c-143.4,16.3-249.7-3.8-323.5-45.4a323.4,323.4,0,0,1-57.8-41.3c-36.9-33.2-58.6-69.7-66.2-99.8-34.2-136.8,18.7-228.6,33.8-317,.4-2.2.7-4.5,1.1-6.7C320.3,216.5,35.8,180.8,0,0Z"/><path class="cls-3" d="M375.8,325.3v162a12.2,12.2,0,0,0,17.8,10.8L612.9,383.6a12.2,12.2,0,0,0,6.5-10.8v-158a12.2,12.2,0,0,0-17.7-10.9L382.5,314.4A12.2,12.2,0,0,0,375.8,325.3Z"/><path class="cls-4" d="M392.4,336.9v162a12.2,12.2,0,0,0,17.8,10.8L629.5,395.2a12.2,12.2,0,0,0,6.5-10.8v-158a12.2,12.2,0,0,0-17.7-10.9L399.1,326A12.2,12.2,0,0,0,392.4,336.9Z"/><g class="cls-5"><path class="cls-6" d="M477.4,408.9a.3.3,0,0,1,.3.3v44.3a.3.3,0,0,1-.2.3l-60.4,31.5H417a.3.3,0,0,1-.3-.3V439.7a.3.3,0,0,1,.2-.3L477.2,409h.1m0-1.8-1,.2L416,437.7a2.2,2.2,0,0,0-1.2,2v45.5a2.2,2.2,0,0,0,2.2,2.2l1-.3,60.4-31.5a2.2,2.2,0,0,0,1.2-1.9V409.3a2.2,2.2,0,0,0-2.2-2.2Z"/><path class="cls-6" d="M414.8,431.2v17.6l48.5-25.3a2,2,0,0,0,1.1-1.8V406.9a2,2,0,0,0-2.9-1.8l-44.4,22.4A4.1,4.1,0,0,0,414.8,431.2Z"/><path class="cls-6" d="M472.5,432.4c1.3,1.6.7,5.6-.4,8.6a23.2,23.2,0,0,1-6.4,9.3h-.2a5.5,5.5,0,0,1-6.4-1.9c-1.1-1.6-1.7-5-.4-8.1a8.3,8.3,0,0,1,3.5-4.1l.3-.2a3.6,3.6,0,0,1,3.1-.1,11.8,11.8,0,0,1,3.1-3.5l.3-.2C471,431.2,472,431.8,472.5,432.4Zm-1.8,8.5c.9-2.4,1.3-5.6.4-6.8s-1.1-.6-2.1,0l-.3.2a10.5,10.5,0,0,0-2.6,3.2l-.6,1.1-.6-.4a2.7,2.7,0,0,0-2.6-.2h-.3a4.8,4.8,0,0,0-2.1,2.4,7.3,7.3,0,0,0,.5,6.2,4.7,4.7,0,0,0,5.2,1.7,20.4,20.4,0,0,0,5.1-7.6"/></g><g class="cls-5"><path class="cls-6" d="M560.2,289.2a.3.3,0,0,1,.3.3v44.3a.3.3,0,0,1-.2.3L500,365.7h-.2a.3.3,0,0,1-.3-.3V320a.3.3,0,0,1,.2-.3l60.4-30.4h.1m0-1.8-1,.2L498.8,318a2.2,2.2,0,0,0-1.2,2v45.5a2.2,2.2,0,0,0,2.2,2.2l1-.3,60.4-31.5a2.2,2.2,0,0,0,1.2-1.9V289.5a2.2,2.2,0,0,0-2.2-2.2Z"/><path class="cls-6" d="M497.6,311.5v17.6l48.5-25.3a2,2,0,0,0,1.1-1.8V287.2a2,2,0,0,0-2.9-1.8l-44.4,22.4A4.1,4.1,0,0,0,497.6,311.5Z"/><path class="cls-6" d="M555.4,312.7c1.3,1.6.7,5.6-.4,8.6a23.2,23.2,0,0,1-6.4,9.3h-.2a5.5,5.5,0,0,1-6.4-1.9c-1.1-1.6-1.7-5-.4-8.1a8.3,8.3,0,0,1,3.5-4.1l.3-.2a3.6,3.6,0,0,1,3.1-.1,11.8,11.8,0,0,1,3.1-3.5l.3-.2C553.8,311.5,554.8,312,555.4,312.7Zm-1.8,8.5c.9-2.4,1.3-5.6.4-6.8s-1.1-.6-2.1,0l-.3.2a10.5,10.5,0,0,0-2.6,3.2l-.6,1.1-.6-.4a2.7,2.7,0,0,0-2.6-.2H545a4.8,4.8,0,0,0-2.1,2.4,7.3,7.3,0,0,0,.5,6.2,4.7,4.7,0,0,0,5.2,1.7,20.4,20.4,0,0,0,5.1-7.6"/></g><g class="cls-5"><path class="cls-6" d="M643,324.7a.3.3,0,0,1,.3.3v44.3a.3.3,0,0,1-.2.3l-60.4,31.5h-.2a.3.3,0,0,1-.3-.3V355.5a.3.3,0,0,1,.2-.3l60.4-30.4h.1m0-1.8-1,.2-60.4,30.4a2.2,2.2,0,0,0-1.2,2V401a2.2,2.2,0,0,0,2.2,2.2l1-.3,60.4-31.5a2.2,2.2,0,0,0,1.2-1.9V325.1a2.2,2.2,0,0,0-2.2-2.2Z"/><path class="cls-6" d="M580.5,347v17.6l48.5-25.3a2,2,0,0,0,1.1-1.8V322.7a2,2,0,0,0-2.9-1.8l-44.4,22.4A4.1,4.1,0,0,0,580.5,347Z"/><path class="cls-6" d="M638.2,348.2c1.3,1.6.7,5.6-.4,8.6a23.2,23.2,0,0,1-6.4,9.3h-.2a5.5,5.5,0,0,1-6.4-1.9c-1.1-1.6-1.7-5-.4-8.1a8.3,8.3,0,0,1,3.5-4.1l.3-.2a3.6,3.6,0,0,1,3.1-.1,11.8,11.8,0,0,1,3.1-3.5l.3-.2C636.6,347.1,637.7,347.6,638.2,348.2Zm-1.8,8.5c.9-2.4,1.3-5.6.4-6.8s-1.1-.6-2.1,0l-.3.2a10.5,10.5,0,0,0-2.6,3.2l-.6,1.1-.6-.4a2.7,2.7,0,0,0-2.6-.2h-.3a4.8,4.8,0,0,0-2.1,2.4,7.3,7.3,0,0,0,.5,6.2,4.7,4.7,0,0,0,5.2,1.7,20.4,20.4,0,0,0,5.1-7.6"/></g><g class="cls-5"><path class="cls-6" d="M477.4,328.2a.3.3,0,0,1,.3.3v44.3a.3.3,0,0,1-.2.3l-60.4,31.5H417a.3.3,0,0,1-.3-.3V359a.3.3,0,0,1,.2-.3l60.4-30.4h.1m0-1.8-1,.2L416,357.1a2.2,2.2,0,0,0-1.2,2v45.5a2.2,2.2,0,0,0,2.2,2.2l1-.3,60.4-31.5a2.2,2.2,0,0,0,1.2-1.9V328.6a2.2,2.2,0,0,0-2.2-2.2Z"/><path class="cls-6" d="M414.8,350.5v17.6l48.5-25.3a2,2,0,0,0,1.1-1.8V326.2a2,2,0,0,0-2.9-1.8l-44.4,22.4A4.1,4.1,0,0,0,414.8,350.5Z"/><path class="cls-6" d="M472.5,351.7c1.3,1.6.7,5.6-.4,8.6a23.2,23.2,0,0,1-6.4,9.3h-.2a5.5,5.5,0,0,1-6.4-1.9c-1.1-1.6-1.7-5-.4-8.1a8.3,8.3,0,0,1,3.5-4.1l.3-.2a3.6,3.6,0,0,1,3.1-.1,11.8,11.8,0,0,1,3.1-3.5l.3-.2C471,350.6,472,351.1,472.5,351.7Zm-1.8,8.5c.9-2.4,1.3-5.6.4-6.8s-1.1-.6-2.1,0l-.3.2a10.5,10.5,0,0,0-2.6,3.2l-.6,1.1-.6-.4a2.7,2.7,0,0,0-2.6-.2h-.3a4.8,4.8,0,0,0-2.1,2.4,7.3,7.3,0,0,0,.5,6.2,4.7,4.7,0,0,0,5.2,1.7,20.4,20.4,0,0,0,5.1-7.6"/></g><g class="cls-5"><path class="cls-6" d="M643,244.1a.3.3,0,0,1,.3.3v44.3a.3.3,0,0,1-.2.3l-60.4,31.5h-.2a.3.3,0,0,1-.3-.3V274.8a.3.3,0,0,1,.2-.3l60.4-30.4h.1m0-1.8-1,.2-60.4,30.4a2.2,2.2,0,0,0-1.2,2v45.5a2.2,2.2,0,0,0,2.2,2.2l1-.3,60.4-31.5a2.2,2.2,0,0,0,1.2-1.9V244.4a2.2,2.2,0,0,0-2.2-2.2Z"/><path class="cls-6" d="M580.5,266.3v17.6l48.5-25.3a2,2,0,0,0,1.1-1.8V242.1a2,2,0,0,0-2.9-1.8l-44.4,22.4A4.1,4.1,0,0,0,580.5,266.3Z"/><path class="cls-6" d="M638.2,267.6c1.3,1.6.7,5.6-.4,8.6a23.2,23.2,0,0,1-6.4,9.3h-.2a5.5,5.5,0,0,1-6.4-1.9c-1.1-1.6-1.7-5-.4-8.1a8.3,8.3,0,0,1,3.5-4.1l.3-.2a3.6,3.6,0,0,1,3.1-.1,11.8,11.8,0,0,1,3.1-3.5l.3-.2C636.6,266.4,637.7,266.9,638.2,267.6Zm-1.8,8.5c.9-2.4,1.3-5.6.4-6.8s-1.1-.6-2.1,0l-.3.2a10.5,10.5,0,0,0-2.6,3.2l-.6,1.1-.6-.4a2.7,2.7,0,0,0-2.6-.2h-.3a4.8,4.8,0,0,0-2.1,2.4,7.3,7.3,0,0,0,.5,6.2,4.7,4.7,0,0,0,5.2,1.7,20.4,20.4,0,0,0,5.1-7.6"/></g><path class="cls-7" d="M505,384.1v59.3a2.8,2.8,0,0,0,4.2,2.5l78.7-41.1a2.8,2.8,0,0,0,1.5-2.5V344.5a2.8,2.8,0,0,0-4.1-2.5l-78.7,39.7A2.8,2.8,0,0,0,505,384.1Z"/><path class="cls-8" d="M505,373.1V396l63.2-33a2.6,2.6,0,0,0,1.4-2.3V341.4a2.6,2.6,0,0,0-3.7-2.3l-57.9,29.1A5.4,5.4,0,0,0,505,373.1Z"/><path class="cls-9" d="M580.2,374.7c-.7-.9-2-1.5-4.6-.1l-.4.3a15.4,15.4,0,0,0-4,4.5,4.7,4.7,0,0,0-4.1.1l-.4.2a10.8,10.8,0,0,0-4.6,5.3c-1.6,4-.9,8.4.6,10.6a7.2,7.2,0,0,0,8.4,2.4h.3c2.1-1.6,6.1-6.3,8.3-12.1C581.2,382,581.8,376.8,580.2,374.7Z"/><path class="cls-10" d="M701.1,940.6c-142.7,21.4-249.7-3.8-323.5-45.4V715.7Z"/><path class="cls-11" d="M1034.4,367.4V793.3C974,852.4,803.5,927,706.1,940l-5,.6L377.6,715.7Z"/><path class="cls-9" d="M531.6,829.8h-1.5a.7.7,0,1,1,0-1.4h1.4a.7.7,0,0,1,.1,1.4Zm2.8-1a.7.7,0,0,1,.6-.9l1.4-.3a.7.7,0,1,1,.4,1.4l-1.4.3h-.1A.7.7,0,0,1,534.4,828.8Zm-8,.8-1.5-.3a.7.7,0,0,1,.3-1.4l1.4.3a.7.7,0,0,1,0,1.4Zm12.9-2.2a.7.7,0,0,1,.4-1l1.3-.6a.7.7,0,0,1,.6,1.3l-1.3.6H540A.7.7,0,0,1,539.2,827.4Zm4.5-2.3a.7.7,0,0,1,.2-1l1.1-.8a.7.7,0,0,1,.9,1.1l-1.2.9h-.3A.7.7,0,0,1,543.7,825.1Zm-22.4,3-1.4-.7a.7.7,0,1,1,.7-1.3l1.2.6a.7.7,0,0,1-.2,1.4Zm26.4-6.2a.7.7,0,0,1,0-1l.9-1a.7.7,0,1,1,1.1.9l-1,1.1-.4.2A.7.7,0,0,1,547.7,821.9Zm-30.8,3.3-1.1-1.1a.7.7,0,1,1,1.1-.9l.9,1a.7.7,0,0,1,0,1l-.4.2A.7.7,0,0,1,516.9,825.2Zm34-7.2a.7.7,0,0,1-.2-1l.4-.8.2-.5a.7.7,0,0,1,1.3.7l-.3.5-.5.8a.7.7,0,0,1-.5.3Zm-37.1,2.9-.5-1.4a.7.7,0,0,1,1.4-.4l.5,1.3a.7.7,0,0,1-.4,1h-.2A.7.7,0,0,1,513.8,820.8Zm39.3-7.4a.7.7,0,0,1-.5-.9l.4-1.3a.7.7,0,1,1,1.4.4L554,813a.7.7,0,0,1-.6.5Zm-39.8,2.9a.7.7,0,0,1-.8-.6c-.1-.5-.1-1-.1-1.5a.7.7,0,0,1,.7-.8.7.7,0,0,1,.8.7q0,.7.1,1.4a.7.7,0,0,1-.6.8Zm41-7.9a.7.7,0,0,1-.6-.8q.1-.7.1-1.4a.7.7,0,0,1,1.4.1q0,.7-.1,1.5a.7.7,0,0,1-.6.6ZM513,811.3a.7.7,0,0,1-.7-.7q0-.7.1-1.5a.7.7,0,1,1,1.4.1q0,.7-.1,1.4a.7.7,0,0,1-.6.7Zm41.5-7.9a.7.7,0,0,1-.8-.6v-1.4a.7.7,0,0,1,.6-.8.7.7,0,0,1,.8.6v1.5a.7.7,0,0,1-.6.8Zm-41.2,2.8a.7.7,0,0,1-.6-.8l.2-1.5a.7.7,0,1,1,1.4.2l-.2,1.4a.7.7,0,0,1-.6.6Zm39.4-8.3-.5-1.3a.7.7,0,1,1,1.4-.5l.5,1.4a.7.7,0,0,1-.5.9h-.1A.7.7,0,0,1,552.7,798Zm-38.6,3.3a.7.7,0,0,1-.5-.9l.3-1.4a.7.7,0,0,1,1.4.4l-.3,1.4a.7.7,0,0,1-.6.6Zm36.7-7.8-.7-1.2a.7.7,0,0,1,1.2-.8l.8,1.3a.7.7,0,0,1-.3,1h-.3A.7.7,0,0,1,550.8,793.5Zm-35.4,2.9a.7.7,0,0,1-.5-.9l.5-1.4a.7.7,0,0,1,1.4.5l-.5,1.4a.7.7,0,0,1-.6.5Zm32.6-6.9-.2-.2-.8-.8a.7.7,0,1,1,1-1l.8.9.2.2a.7.7,0,0,1-.1,1l-.4.2A.7.7,0,0,1,548,789.5Zm-30.9,2.1a.7.7,0,0,1-.4-.9l.6-1.3a.7.7,0,1,1,1.3.6l-.6,1.3a.7.7,0,0,1-.6.4Zm27.2-5.4-1.2-.8a.7.7,0,1,1,.8-1.2l1.2.8a.7.7,0,0,1,.2,1l-.5.3Zm-25.2.8a.7.7,0,0,1-.3-1l.7-1.3a.7.7,0,0,1,1.3.7l-.7,1.3a.7.7,0,0,1-.6.4Zm21-3.3-1.3-.6a.7.7,0,0,1,.6-1.3l1.3.6a.7.7,0,0,1-.2,1.4Zm-4.6-1.9-1.4-.4a.7.7,0,0,1,.4-1.4l1.4.4a.7.7,0,0,1-.1,1.4Zm-13.9.7a.7.7,0,0,1-.2-1l.8-1.2a.7.7,0,0,1,1.2.8l-.8,1.2a.7.7,0,0,1-.5.3Zm-52.3,5.3a.7.7,0,0,1,.4-.9l1.3-.6a.7.7,0,1,1,.5,1.3l-1.3.6H470A.7.7,0,0,1,469.2,787.9Zm61.4-7.3-1.4-.3a.7.7,0,0,1,.3-1.4l1.4.3a.7.7,0,0,1-.1,1.4ZM473.9,786a.7.7,0,0,1,.4-.9l1.4-.5a.7.7,0,1,1,.5,1.4l-1.4.5h-.2A.7.7,0,0,1,473.9,786Zm51.8-6.2-1.4-.2a16.8,16.8,0,0,1-.1-2.3l.9-1.2a.7.7,0,0,1,1.2.9l-.8,1.2h.6a.7.7,0,0,1,0,1.4Zm-47,4.6a.7.7,0,0,1,.5-.9l1.4-.4a.7.7,0,1,1,.4,1.4l-1.4.4h-.1A.7.7,0,0,1,478.7,784.3Zm42-5h-1.4a.7.7,0,1,1,.1-1.4h1.5a.7.7,0,0,1,.1,1.4Zm-37.2,3.5a.7.7,0,0,1,.5-.9l1.4-.4a.7.7,0,0,1,.4,1.4l-1.4.4h-.1A.7.7,0,0,1,483.6,782.8Zm32.2-3.6h-1.4a.7.7,0,1,1,0-1.4h1.5a.7.7,0,0,1,.1,1.4Zm-27.3,2.4a.7.7,0,0,1,.5-.9l1.4-.3a.7.7,0,0,1,.9.6.7.7,0,0,1-.6.9l-1.4.3h-.1A.7.7,0,0,1,488.5,781.5Zm22.2-2.3h-1.4a.7.7,0,1,1-.1-1.4h1.5a.7.7,0,0,1,.1,1.4Zm-17.3,1.2a.7.7,0,0,1,.6-.8l1.4-.3h0a.7.7,0,0,1,.2,1.4l-1.4.3h0A.7.7,0,0,1,493.4,780.5Zm12.2-.9h-1.4a.7.7,0,0,1-.2-1.4h1.5a.7.7,0,0,1,.2,1.4Zm-7.2.1a.7.7,0,0,1,.6-.8l1.3-.2h.1a.7.7,0,1,1,.2,1.4h-.1l-1.3.2h0A.7.7,0,0,1,498.4,779.7Zm29-5.4a.7.7,0,0,1-.1-1l.9-1.1a.7.7,0,0,1,1.1.9l-.9,1.1-.5.3Zm3.3-3.8a.7.7,0,0,1,0-1l1-1a.7.7,0,1,1,1,1l-1,1-.4.2A.7.7,0,0,1,530.7,770.5Zm3.6-3.6a.7.7,0,0,1,0-1l1.1-1a.7.7,0,1,1,1,1.1l-1.1,1-.4.2A.7.7,0,0,1,534.3,766.9Zm3.8-3.4a.7.7,0,0,1,.1-1l1.1-.9a.7.7,0,1,1,.9,1.1l-1.1.9-.4.2A.7.7,0,0,1,538.1,763.5Zm3.9-3.2a.7.7,0,0,1,.1-1l1.2-.9a.7.7,0,1,1,.9,1.2l-1.2.9h-.3A.7.7,0,0,1,542,760.3Zm4.1-3a.7.7,0,0,1,.2-1l1.2-.8a.7.7,0,1,1,.8,1.2l-1.2.8h-.3A.7.7,0,0,1,546.1,757.3Zm4.2-2.8a.7.7,0,0,1,.2-1l1.2-.8a.7.7,0,0,1,.7,1.2l-1.2.8H551A.7.7,0,0,1,550.3,754.5Z"/><polygon class="cls-12" points="557.2 733.9 559.6 748.1 564.8 738.8 564.7 738.8 594 716.4 601.7 710.6 557.2 733.9"/><polygon class="cls-13" points="582 731.5 559.6 748.1 564.8 738.8 580.7 726.6 582 731.5"/><polygon class="cls-14" points="578.4 747.5 601.7 710.6 594 716.4 564.7 738.8 564.8 738.8 578.4 747.5"/><polygon class="cls-15" points="557.2 733.9 601.7 710.6 543.7 725.2 557.2 733.9"/><polygon class="cls-16" points="681.7 807.7 809.8 836.4 824.4 817.6 728.9 773.4 681.7 807.7"/><polygon class="cls-17" points="588.6 815.6 719.5 843.4 731.4 825.5 635.8 781.3 588.6 815.6"/><path class="cls-18" d="M679.9,511.1l25.7-15.7a3,3,0,0,0,1.3-3.7l-19.3-40.4a2.4,2.4,0,0,0-3.4-.9l-25.4,14.9a3,3,0,0,0-1.3,3.7l19,41.2A2.4,2.4,0,0,0,679.9,511.1Z"/><path class="cls-19" d="M694.7,480.3l-20.5,12.1a1.1,1.1,0,0,1-1.7-.4h0a1.4,1.4,0,0,1,.6-1.8l20.5-12.1a1.1,1.1,0,0,1,1.7.4h0A1.4,1.4,0,0,1,694.7,480.3Z"/><path class="cls-19" d="M690.8,473.8l-19,11.2a1.9,1.9,0,0,1-2.8-.7l-5.9-12.7a2.4,2.4,0,0,1,1-3l19-11.2a1.9,1.9,0,0,1,2.8.7l5.9,12.7A2.4,2.4,0,0,1,690.8,473.8Z"/><path class="cls-20" d="M696.8,484.7l-20.5,12.1a1.1,1.1,0,0,1-1.7-.4h0a1.4,1.4,0,0,1,.6-1.8l20.5-12.1a1.1,1.1,0,0,1,1.7.4h0A1.4,1.4,0,0,1,696.8,484.7Z"/><path class="cls-21" d="M694,492l-15.8,9.3a1,1,0,0,1-1.5-.4v-.2a1.3,1.3,0,0,1,.6-1.6l15.8-9.3a1,1,0,0,1,1.5.4v.2A1.3,1.3,0,0,1,694,492Z"/><path class="cls-22" d="M695.8,496.3l-15.6,9.2a1.1,1.1,0,0,1-1.7-.4h0a1.4,1.4,0,0,1,.6-1.8l15.6-9.2a1.1,1.1,0,0,1,1.7.4h0A1.4,1.4,0,0,1,695.8,496.3Z"/><polygon class="cls-23" points="825.8 816.1 825.8 827.2 820 830.8 778.4 813.9 784.5 811.3 807.9 810 803.5 795.5 784.5 733.3 811.1 723.2 823 798.6 825.8 816.1"/><path class="cls-24" d="M804.9,800h0l.4,1.3,3,1.5a3,3,0,0,1,1.6,2.2l1.4,8.3,5.4,3.1,1.8-3.5a6.8,6.8,0,0,1,3.2-3.1l3-1.4,1.2.8a6.5,6.5,0,0,1,2.8,5.3v12.5L816.9,835l-43.9-21.9h0a14.3,14.3,0,0,1,12.6-7.9l19.3-.2-.8-3.2A1.2,1.2,0,0,1,804.9,800Z"/><path class="cls-25" d="M773.8,816.1l-.7-3.1,36.7,18.4a13.9,13.9,0,0,0,13.8-.8l5.1-3.4h0a4.9,4.9,0,0,1-1.4,6.6l-1.9,1.4a15.1,15.1,0,0,1-15.6,1.2l-33.4-16.9A4.9,4.9,0,0,1,773.8,816.1Z"/><polygon class="cls-26" points="747.4 648.5 786.4 752.8 816.6 742.1 809.4 698.9 804.2 631.3 747.4 648.5"/><polygon class="cls-27" points="740.2 742.4 731.5 819.1 731.5 833 725.5 836.6 684.4 816.5 691.2 812.6 715.9 814 713.9 744 740.2 742.4"/><path class="cls-28" d="M736.1,821.7v11l-5.3,3.5a13.6,13.6,0,0,1-13.5.8l-36.9-18.4a14.3,14.3,0,0,1,12.6-7.9h20.2l1.4-4.4,1-.6v1.1a6.5,6.5,0,0,1,2.9,5.3v7L724,822l1.8-3.4a7.3,7.3,0,0,1,3.5-3.3L732,814a9.3,9.3,0,0,1,4.1,7.7Z"/><path class="cls-29" d="M681.2,821.7l-.7-3.1L717,836.8a14.3,14.3,0,0,0,14.2-.9l4.9-3.3h0a4.9,4.9,0,0,1-1.4,6.6l-1.5,1.1a16,16,0,0,1-16.6,1.3L683.8,825A4.9,4.9,0,0,1,681.2,821.7Z"/><polygon class="cls-30" points="720.1 640.4 707.1 711.8 711.7 763.8 739.6 766.4 749 719.6 782.8 644.6 720.1 640.4"/><polygon class="cls-31" points="774.2 720.3 771 670.8 762.7 689.3 774.2 720.3"/><path class="cls-32" d="M710,810.5a25.8,25.8,0,0,0-6.2,4.9,1,1,0,0,1-.7.3l-.6-.2a1,1,0,0,1-.1-1.4,26,26,0,0,1,4-3.6A3.1,3.1,0,0,1,710,810.5Z"/><path class="cls-32" d="M704.3,810.6a25.3,25.3,0,0,0-5.4,4.4,1,1,0,0,1-.7.3l-.6-.2a1,1,0,0,1-.1-1.4,25.1,25.1,0,0,1,3.4-3.1A4,4,0,0,1,704.3,810.6Z"/><path class="cls-32" d="M801.2,805a25.8,25.8,0,0,0-6.2,4.9,1,1,0,0,1-.7.3l-.6-.2a1,1,0,0,1-.1-1.4,26,26,0,0,1,4-3.6A3.1,3.1,0,0,1,801.2,805Z"/><path class="cls-32" d="M795.5,805.1a25.3,25.3,0,0,0-5.4,4.4,1,1,0,0,1-.7.3l-.6-.2a1,1,0,0,1-.1-1.4,25.1,25.1,0,0,1,3.4-3.1A4,4,0,0,1,795.5,805.1Z"/><path class="cls-19" d="M796.5,749.8a.3.3,0,0,1-.3-.2l-.6-1.9a.3.3,0,0,1,.6-.2l.6,1.9a.3.3,0,0,1-.2.4Zm-1.5-5a.3.3,0,0,1-.3-.2l-.5-1.9a.3.3,0,0,1,.6-.2l.5,1.9a.3.3,0,0,1-.2.4Zm-1.4-5a.3.3,0,0,1-.3-.2l-.5-1.9a.3.3,0,0,1,.6-.2l.5,1.9a.3.3,0,0,1-.2.4Zm-1.4-5a.3.3,0,0,1-.3-.2l-.5-1.9a.3.3,0,0,1,.6-.2l.5,1.9a.3.3,0,0,1-.2.4Zm-1.4-5a.3.3,0,0,1-.3-.2l-.5-1.9a.3.3,0,1,1,.6-.2l.5,1.9a.3.3,0,0,1-.2.4Zm-1.3-5a.3.3,0,0,1-.3-.2l-.5-1.9a.3.3,0,1,1,.6-.2l.5,1.9a.3.3,0,0,1-.2.4Zm-1.3-5a.3.3,0,0,1-.3-.2l-.5-1.9a.3.3,0,1,1,.6-.2l.5,1.9a.3.3,0,0,1-.2.4Zm-1.3-5a.3.3,0,0,1-.3-.2l-.5-1.9a.3.3,0,1,1,.6-.2l.5,1.9a.3.3,0,0,1-.2.4Zm-1.2-5.1a.3.3,0,0,1-.3-.2l-.5-1.9a.3.3,0,0,1,.6-.2l.5,1.9a.3.3,0,0,1-.2.4Zm-1.2-5.1a.3.3,0,0,1-.3-.3l-.4-1.9a.3.3,0,1,1,.6-.1l.4,1.9a.3.3,0,0,1-.2.4Zm-1.2-5.1a.3.3,0,0,1-.3-.3l-.4-1.9a.3.3,0,0,1,.6-.1l.4,1.9a.3.3,0,0,1-.2.4Zm-1.1-5.1a.3.3,0,0,1-.3-.3l-.4-1.9a.3.3,0,1,1,.6-.1l.4,1.9a.3.3,0,0,1-.2.4Zm-1.1-5.1a.3.3,0,0,1-.3-.3l-.4-1.9a.3.3,0,1,1,.6-.1l.4,1.9a.3.3,0,0,1-.3.4Zm-1-5.1a.3.3,0,0,1-.3-.3l-.4-1.9a.3.3,0,0,1,.6-.1l.4,1.9a.3.3,0,0,1-.3.4Zm-1-5.1a.3.3,0,0,1-.3-.3l-.4-1.9a.3.3,0,0,1,.6-.1l.4,1.9a.3.3,0,0,1-.3.4Zm-.9-5.1a.3.3,0,0,1-.3-.3l-.3-1.9a.3.3,0,1,1,.6-.1l.3,1.9a.3.3,0,0,1-.3.4Zm-.9-5.1a.3.3,0,0,1-.3-.3l-.3-1.9a.3.3,0,1,1,.6-.1l.3,1.9a.3.3,0,0,1-.3.4Zm-.8-5.1a.3.3,0,0,1-.3-.3l-.3-1.9a.3.3,0,0,1,.6-.1l.3,1.9a.3.3,0,0,1-.3.4Zm-.7-5.2a.3.3,0,0,1-.3-.3v-1.1a.3.3,0,1,1,.6-.1v1.1a.3.3,0,0,1-.3.4Z"/><path class="cls-19" d="M721,765.7a.3.3,0,0,1-.3-.3v-1.9a.3.3,0,0,1,.3-.3.3.3,0,0,1,.3.3v1.9a.3.3,0,0,1-.3.3Zm-.3-5.2a.3.3,0,0,1-.3-.3v-1.9a.3.3,0,0,1,.3-.3.3.3,0,0,1,.3.3v1.9a.3.3,0,0,1-.3.3Zm-.3-5.2a.3.3,0,0,1-.3-.3V753a.3.3,0,0,1,.3-.3.3.3,0,0,1,.3.3v1.9a.3.3,0,0,1-.3.3Zm-.3-5.2a.3.3,0,0,1-.3-.3v-1.9a.3.3,0,0,1,.3-.3.3.3,0,0,1,.3.3v1.9a.3.3,0,0,1-.3.3Zm-.3-5.2a.3.3,0,0,1-.3-.3v-1.9a.3.3,0,0,1,.3-.3.3.3,0,0,1,.3.3v1.9a.3.3,0,0,1-.3.3Zm-.3-5.2a.3.3,0,0,1-.3-.3v-1.9a.3.3,0,0,1,.3-.3.3.3,0,0,1,.3.3v1.9a.3.3,0,0,1-.3.3Zm-.3-5.2a.3.3,0,0,1-.3-.3v-1.9a.3.3,0,0,1,.3-.3.3.3,0,0,1,.3.3v1.9a.3.3,0,0,1-.3.3Zm-.3-5.2a.3.3,0,0,1-.3-.3v-1.9a.3.3,0,0,1,.3-.3.3.3,0,0,1,.3.3V729a.3.3,0,0,1-.3.3Zm-.3-5.2a.3.3,0,0,1-.3-.3v-.8q0-.6-.1-1.2a.3.3,0,0,1,.3-.3.3.3,0,0,1,.3.3q0,.6.1,1.2v.8a.3.3,0,0,1-.3.3Zm-.1-5.2h0a.3.3,0,0,1-.3-.3c0-.7.1-1.3.1-2a.3.3,0,0,1,.4-.3.3.3,0,0,1,.3.4c-.1.6-.1,1.3-.1,1.9A.3.3,0,0,1,718.5,718.9Zm.6-5.2h-.1a.3.3,0,0,1-.3-.4l.4-1.9a.3.3,0,0,1,.6.1l-.4,1.9A.3.3,0,0,1,719.1,713.8Zm1.2-5h-.1a.3.3,0,0,1-.2-.4l.6-1.9a.3.3,0,0,1,.6.2l-.6,1.9A.3.3,0,0,1,720.3,708.7Zm1.6-4.9h-.1a.3.3,0,0,1-.2-.4l.6-1.9a.3.3,0,1,1,.6.2l-.6,1.9A.3.3,0,0,1,721.9,703.8Zm1.6-4.9h-.1a.3.3,0,0,1-.2-.4l.6-1.9a.3.3,0,1,1,.6.2l-.6,1.9A.3.3,0,0,1,723.5,698.8Zm1.6-4.9H725a.3.3,0,0,1-.2-.4l.6-1.9a.3.3,0,0,1,.6.2l-.6,1.9A.3.3,0,0,1,725.1,693.9Zm1.6-4.9h-.1a.3.3,0,0,1-.2-.4l.6-1.9a.3.3,0,0,1,.6.2l-.6,1.9A.3.3,0,0,1,726.7,688.9Zm1.6-4.9h-.1a.3.3,0,0,1-.2-.4l.6-1.9a.3.3,0,1,1,.6.2l-.6,1.9A.3.3,0,0,1,728.3,684Zm1.6-4.9h-.1a.3.3,0,0,1-.2-.4l.6-1.9a.3.3,0,1,1,.6.2l-.6,1.9A.3.3,0,0,1,729.9,679.1Zm1.6-4.9h-.1a.3.3,0,0,1-.2-.4l.6-1.9a.3.3,0,0,1,.6.2l-.6,1.9A.3.3,0,0,1,731.5,674.1Zm1.6-4.9H733a.3.3,0,0,1-.2-.4l.6-1.9a.3.3,0,0,1,.6.2l-.6,1.9A.3.3,0,0,1,733.1,669.2Zm1.6-4.9h-.1a.3.3,0,0,1-.2-.4l.6-1.9a.3.3,0,1,1,.6.2L735,664A.3.3,0,0,1,734.7,664.2Zm1.6-4.9h-.1a.3.3,0,0,1-.2-.4l.6-1.9a.3.3,0,1,1,.6.2l-.6,1.9A.3.3,0,0,1,736.3,659.3Z"/><path class="cls-33" d="M776.6,649.5l3.5,23.7a4.2,4.2,0,0,0,6,3.2l14.3-6.7a4.2,4.2,0,0,0,2.4-3.7l1-26.8Z"/><path class="cls-34" d="M728.2,714.7l-3.4,22.5c-.3,2.5-1.5,4-4.4,3.1l-13.4-5.2c-1-.4-1.8-1.2-1.8-3l1.8-24.1Z"/><path class="cls-35" d="M710.4,693.6h0c-.6,3.4-.5,5.7,2.7,7l17.2,7a1.6,1.6,0,0,1,1,1.9l-1.6,6a3.1,3.1,0,0,1-4,2.2l-17.5-5.5c-3.1-1-3.8-2.7-3.2-5.9l1.7-7.1C708.5,694.2,710.4,693.6,710.4,693.6Z"/><ellipse class="cls-8" cx="714.4" cy="708.6" rx="2" ry="2.9"/><path class="cls-36" d="M713.1,762.7l25.1,2.4a3.2,3.2,0,0,1,2.9,3.4h0a3.2,3.2,0,0,1-3.5,3l-25.1-2.1a3.2,3.2,0,0,1-2.9-3.2v-.3A3.2,3.2,0,0,1,713.1,762.7Z"/><path class="cls-37" d="M815.5,741.6l-28.7,9.8a3,3,0,0,0-1.8,3.8l.2.4a3,3,0,0,0,3.8,1.8l28.5-10.2a3,3,0,0,0,1.8-3.7h0A3,3,0,0,0,815.5,741.6Z"/><polygon class="cls-38" points="777 474 673.5 422.8 668.7 435.4 756.4 498.3 777 474"/><path class="cls-39" d="M729.2,447.6s-6.7,9-3.6,28.6l27.3,25.3,34.9-31.4Z"/><path class="cls-40" d="M813.4,643.1a52.4,52.4,0,0,1-1.2,7.9s-31.8,34-71.6,24.1c-33.3-9.1-32.8-20.9-32.8-20.9s.6-1.7,1.5-4.9c5.2-18.3,21.8-84.8,10.2-149.7l44.6-28.6a23.1,23.1,0,0,1,35.6,18.9c.8,34.6,2.9,81.7,8.6,103.5C814.4,616.9,814.3,633.9,813.4,643.1Z"/><path class="cls-41" d="M762.2,458.7V472c0,12.2-20.4,14.4-22.6,14.6V458.7Z"/><path class="cls-42" d="M736.6,488.5c-.2-2.5.3-5.2,1.5-6.5s19.6,2,24.2-12.9a3.1,3.1,0,0,1,2.7,1.4S768.1,489.2,736.6,488.5Z"/><path class="cls-43" d="M723.2,497.1a62.1,62.1,0,0,1,37.6,36l35.1-20.3s-3.5-36.6-19.2-45.1c-4.5-3.2-12.3.1-11.7,2.4,0,0,11.8,9.7,12.8,30.9l-11.6,6.9a60.4,60.4,0,0,0-32.4-17.5C729.3,489.2,721.4,494.5,723.2,497.1Z"/><path class="cls-44" d="M765.6,530.3a61.8,61.8,0,0,0-40.8-35.6l.2-.6a62.5,62.5,0,0,1,41.2,36Z"/><path class="cls-45" d="M782.2,521a61.8,61.8,0,0,0-14.5-52.2h0a2,2,0,0,1,1.8.7c6.3,7.3,17.9,25.3,13.3,51.6Z"/><path class="cls-46" d="M747,613.9V534.7a20.9,20.9,0,0,1,10.4-18.1L793.1,496a18.6,18.6,0,0,1,27.9,16.1v74.3l-57.8,36.5A10.6,10.6,0,0,1,747,613.9Z"/><path class="cls-47" d="M763.8,616.4a4.7,4.7,0,0,1-2.3-.6,4.7,4.7,0,0,1-2.5-4.2V535.5a13.3,13.3,0,0,1,6.6-11.5l38.4-22.2a11.4,11.4,0,0,1,17.1,9.8v69.4H821l-54.6,34.5A4.7,4.7,0,0,1,763.8,616.4Zm45.9-115.5a10.7,10.7,0,0,0-5.4,1.5L766,524.6a12.7,12.7,0,0,0-6.3,10.9v76.1a4.1,4.1,0,0,0,6.3,3.5l54.5-34.4v-69a10.8,10.8,0,0,0-10.7-10.7Z"/><path class="cls-48" d="M775.8,624.6H758.3l47.1-26h0a4.4,4.4,0,0,1,2.4,8.2Z"/><rect class="cls-49" x="773.4" y="567.9" width="7.2" height="37.6"/><path class="cls-50" d="M676,426.7l-2.5-3.9-5.1-8.6a6.1,6.1,0,0,0-5.7-3l-3.2.2-13.8-8.9a1.9,1.9,0,0,0-2.3.3h0a1.9,1.9,0,0,0,.1,2.7l11.1,10-2,1.7a5.4,5.4,0,0,0-1.5,6.1l1,2.7a10.2,10.2,0,0,0,6.1,5.9l10.4,3.7Z"/><ellipse class="cls-51" cx="684.5" cy="430" rx="5.6" ry="3"/><rect class="cls-52" x="678.9" y="427.6" width="11.2" height="2.32"/><ellipse class="cls-53" cx="684.5" cy="427.6" rx="5.6" ry="3"/><path class="cls-54" d="M680.9,444.3s-.8-7.4,2.1-11.7l-3-2-1.1-.4a19.9,19.9,0,0,0-2.5,10.7C676.9,442.9,679.5,444.8,680.9,444.3Z"/><path class="cls-55" d="M726.3,425.3v10.4a2.6,2.6,0,0,1-1.3,2.2l-8,4.9a2.6,2.6,0,0,1-4-2.2V429.7a2.6,2.6,0,0,1,1.4-2.3l8-4.4a2.6,2.6,0,0,1,3.6,1.1A2.5,2.5,0,0,1,726.3,425.3Z"/><path class="cls-56" d="M725.9,424.5v10.4a2.2,2.2,0,0,1-1.1,1.9L718,441a2.3,2.3,0,0,1-3.4-1.9v-8.3l11.1-6.2Z"/><path class="cls-57" d="M742.9,408.4l-20.2,5.5s-6.8,22.4,0,40.7,27.2,17.3,35.3,13c0,0,16.2-16.1,12.3-43.7Z"/><path class="cls-58" d="M722,416.6s14.7,8.8,9.8,25c0,0,6.8-8.1,11.5-2.4,2.8,3.4,1.2,10-4.1,14.3,0,0,6.2,16.4,20.6,13.9s18.1-20.7,18.1-35.4v-11s-19.5-16.3-31.4-18.3S722,416.6,722,416.6Z"/><polygon class="cls-59" points="713.1 431.3 732.7 440.7 734.3 439.2 713.6 428.1 713.1 431.3"/><circle class="cls-60" cx="738.2" cy="445.2" r="2.4"/><path class="cls-61" d="M723.4,456.1c-1.4,10.8,7.9,14.9,7.7,23.1,0,0,4.6-9.2,11.7-9.3h0a10.6,10.6,0,0,1-8.5-10.4v-7.5S732.7,462.4,723.4,456.1Z"/><path class="cls-62" d="M747.6,431.3s21.9,20.1,42,11.9,14.6-13.6,7.7-17.4c-12.7-7-17-10.3-17-10.3Z"/><path class="cls-63" d="M747.6,429.1s21.9,20.1,42,11.9,14.6-13.6,7.7-17.4c-12.7-7-17-10.3-17-10.3Z"/><path class="cls-64" d="M783.3,420.3a6.6,6.6,0,0,1-3.1,6.6c-6.8,4.1-16.1,6.2-26.4,5.3s-20.6-5-27.5-10.7a34.9,34.9,0,0,1-3.3-3.1,5,5,0,0,1-1-5.2l.5-1.2a33,33,0,0,1,4.8-7.8,31.4,31.4,0,0,1,23.3-11.6c16.2-.5,29.9,11.4,32.6,27.4Z"/><path class="cls-65" d="M783.2,420c-6.9,5.2-17.3,8-28.8,7a50.6,50.6,0,0,1-26.1-9.6,35.2,35.2,0,0,1-5.8-5.5l1-2,.4-.8a31.9,31.9,0,0,1,2.8-4.3l.5-.7a31.4,31.4,0,0,1,23.3-11.6C766.8,392,780.6,404,783.2,420Z"/><path class="cls-66" d="M729.1,411.4a17.3,17.3,0,0,1-.8,5.9,35.2,35.2,0,0,1-5.8-5.5l1-2,.4-.8a31.9,31.9,0,0,1,2.8-4.3l.5-.7A17.3,17.3,0,0,1,729.1,411.4Z"/><path class="cls-32" d="M756.1,394.7l-.5-.4.5-.5.5.5Z"/><path class="cls-32" d="M744,423.5h-.6l.2-1.3h.6Zm.3-2.6h-.6l.2-1.3h.6Zm.5-2.6h-.6l.3-1.3h.6Zm.6-2.6-.6-.2.3-1.3.6.2Zm.7-2.5-.6-.2.4-1.3.6.2Zm.8-2.5-.6-.2.5-1.3.6.2Zm1-2.5-.6-.2.5-1.2.6.3Zm1.1-2.4-.6-.3.6-1.2.6.3Zm1.2-2.4-.6-.3.7-1.2.6.3Zm1.3-2.3-.6-.3.7-1.1.5.4Zm1.4-2.2-.5-.4.8-1.1.5.4Zm1.6-2.1-.5-.4.8-1,.5.4Z"/><ellipse class="cls-32" cx="757" cy="393.6" rx="1.9" ry="3.5" transform="translate(255.3 1083.7) rotate(-81.5)"/><ellipse class="cls-67" cx="684.5" cy="427.6" rx="4.1" ry="2.2"/><path class="cls-8" d="M747,575.3s-3,.7-3,2.6,2.9,5.2,2.9,5.2Z"/><path class="cls-68" d="M765.9,577.9V616c-9.5,5.3-21.8,3.5-21.8,0V577.9C744.9,580.8,755,582.2,765.9,577.9Z"/><path class="cls-69" d="M765.9,577.9v4.7c-9.4,5.3-21.8,3.5-21.8,0v-4.8C744.9,580.8,755,582.2,765.9,577.9Z"/><path class="cls-70" d="M765.9,617V543.7c0-6.1,3.6-11.7,9.5-14.7l36.9-19c6.1-3.1,13.6.8,13.6,7v67.5a21,21,0,0,1-10.5,18.2l-36.2,20.7C773.4,626.7,765.9,623.1,765.9,617Z"/><path class="cls-71" d="M821.6,556.2v26.6a5.2,5.2,0,0,1-2.6,4.5l-32.5,19.5a5.2,5.2,0,0,1-7.9-4.5V574.5a5.3,5.3,0,0,1,2.7-4.6l32.5-18.3A5.2,5.2,0,0,1,821.6,556.2Z"/><path class="cls-72" d="M821.6,556.2v11.2a5.2,5.2,0,0,1-2.6,4.5l-32.5,19.5a5.2,5.2,0,0,1-7.9-4.5V574.5a5.3,5.3,0,0,1,2.7-4.6l32.5-18.3A5.2,5.2,0,0,1,821.6,556.2Z"/><path class="cls-73" d="M807.2,584.4l-4.2,2.7a1.5,1.5,0,0,1-2.3-1.3V571.7a1.5,1.5,0,0,1,.7-1.3l4.2-2.7a1.5,1.5,0,0,1,2.3,1.3v14.1A1.5,1.5,0,0,1,807.2,584.4Z"/><path class="cls-74" d="M782.7,611.7a.3.3,0,0,1-.1-.6l1.8-.6a.3.3,0,1,1,.3.6l-1.9.6Zm-3.2-.1h-.1l-1.9-.7a.3.3,0,0,1,.3-.6l1.7.7a.3.3,0,0,1-.1.6Zm7.9-2.1-.3-.2a.3.3,0,0,1,.1-.4l1.7-1a.3.3,0,0,1,.3.6l-1.7,1Zm-12.1-.8-.3-.2a5.9,5.9,0,0,1-.8-1.9.3.3,0,1,1,.6-.1,5.2,5.2,0,0,0,.7,1.7.3.3,0,0,1-.1.4Zm16.6-1.8-.3-.2a.3.3,0,0,1,.1-.4l1.7-1a.3.3,0,0,1,.3.6l-1.7,1Zm-17.4-1.2a.3.3,0,0,1-.3-.3v-1.9a.3.3,0,0,1,.6,0v1.9A.3.3,0,0,1,774.4,605.7Zm22-1.4-.3-.2a.3.3,0,0,1,.1-.4l1.7-1a.3.3,0,1,1,.3.6l-1.7,1Zm4.5-2.6-.3-.2a.3.3,0,0,1,.1-.4l1.7-1a.3.3,0,0,1,.3.6l-1.7,1Zm-26.5-1.2a.3.3,0,0,1-.3-.3v-1.9a.3.3,0,1,1,.6,0v1.9A.3.3,0,0,1,774.4,600.5Zm31-1.4-.3-.2a.3.3,0,0,1,.1-.4l1.7-1a.3.3,0,1,1,.3.6l-1.7,1Zm4.5-2.6-.3-.2a.3.3,0,0,1,.1-.4l1.7-1a.3.3,0,1,1,.3.6l-1.7,1Zm-35.5-1.3a.3.3,0,0,1-.3-.3v-1.9a.3.3,0,1,1,.6,0V595A.3.3,0,0,1,774.4,595.4Zm40-1.3-.3-.2a.3.3,0,0,1,.1-.4l1.7-1a.3.3,0,0,1,.3.6l-1.7,1Zm4.5-2.6h-.3a.3.3,0,0,1,.1-.5,7.5,7.5,0,0,0,1.4-1.3.3.3,0,0,1,.5.4,8.1,8.1,0,0,1-1.5,1.4Zm-44.5-1.2a.3.3,0,0,1-.3-.3v-1.9a.3.3,0,0,1,.6,0v1.9A.3.3,0,0,1,774.4,590.2Zm47.4-3h-.1a.3.3,0,0,1-.2-.4,7.4,7.4,0,0,0,.3-1.8.3.3,0,0,1,.3-.3h0a.3.3,0,0,1,.3.3,8.1,8.1,0,0,1-.3,2A.3.3,0,0,1,821.8,587.2ZM774.4,585a.3.3,0,0,1-.3-.3v-1.9a.3.3,0,0,1,.6,0v1.9A.3.3,0,0,1,774.4,585Zm47.7-2.9a.3.3,0,0,1-.3-.3v-1.9a.3.3,0,1,1,.6,0v1.9A.3.3,0,0,1,822.1,582Zm-47.7-2.3a.3.3,0,0,1-.3-.3v-1.9a.3.3,0,1,1,.6,0v1.9A.3.3,0,0,1,774.4,579.8Zm47.7-2.9a.3.3,0,0,1-.3-.3v-1.9a.3.3,0,0,1,.6,0v1.9A.3.3,0,0,1,822.1,576.8Zm-47.7-2.3a.3.3,0,0,1-.3-.3v-1.9a.3.3,0,0,1,.6,0v1.9A.3.3,0,0,1,774.4,574.6Zm47.7-2.9a.3.3,0,0,1-.3-.3v-1.9a.3.3,0,0,1,.6,0v1.9A.3.3,0,0,1,822.1,571.6Zm-47.7-2.3a.3.3,0,0,1-.3-.3v-1.9a.3.3,0,1,1,.6,0V569A.3.3,0,0,1,774.4,569.4Zm47.7-2.9a.3.3,0,0,1-.3-.3v-1.9a.3.3,0,1,1,.6,0v1.9A.3.3,0,0,1,822.1,566.4Zm-47.7-2.3a.3.3,0,0,1-.3-.3v-1.9a.3.3,0,0,1,.6,0v1.9A.3.3,0,0,1,774.4,564.2Zm47.7-2.9a.3.3,0,0,1-.3-.3v-1.9a.3.3,0,0,1,.6,0v1.9A.3.3,0,0,1,822.1,561.2ZM774.4,559a.3.3,0,0,1-.3-.3v-1.9a.3.3,0,0,1,.6,0v1.9A.3.3,0,0,1,774.4,559Zm47.7-2.9a.3.3,0,0,1-.3-.3v-1.9a.3.3,0,1,1,.6,0v1.9A.3.3,0,0,1,822.1,556Zm-47.7-2.3a.3.3,0,0,1-.3-.3v-1.9a.3.3,0,1,1,.6,0v1.9A.3.3,0,0,1,774.4,553.8Zm47.7-2.9a.3.3,0,0,1-.3-.3v-1.9a.3.3,0,1,1,.6,0v1.9A.3.3,0,0,1,822.1,550.8Zm-47.7-2.3a.3.3,0,0,1-.3-.3v-.9c0-.3,0-.7,0-1a.3.3,0,0,1,.4-.3.3.3,0,0,1,.3.4q0,.5,0,1v.9A.3.3,0,0,1,774.4,548.6Zm47.7-2.9a.3.3,0,0,1-.3-.3v-1.9a.3.3,0,0,1,.6,0v1.9A.3.3,0,0,1,822.1,545.6Zm-46.9-2.2h-.1a.3.3,0,0,1-.2-.4,13.1,13.1,0,0,1,.8-1.8.3.3,0,1,1,.6.3,12.3,12.3,0,0,0-.8,1.7Zm46.9-3a.3.3,0,0,1-.3-.3v-1.9a.3.3,0,1,1,.6,0v1.9A.3.3,0,0,1,822.1,540.4Zm-44.2-1.4h-.2a.3.3,0,0,1,0-.5l1.5-1.4a.3.3,0,0,1,.4.5l-1.4,1.3ZM782,536l-.3-.2a.3.3,0,0,1,.1-.4l1.7-.9a.3.3,0,1,1,.3.6l-1.7.9Zm40.1-.7a.3.3,0,0,1-.3-.3V533a.3.3,0,0,1,.6,0v1.9A.3.3,0,0,1,822.1,535.2Zm-35.4-1.7-.3-.2a.3.3,0,0,1,.1-.4l1.7-.9a.3.3,0,1,1,.3.6l-1.7.9Zm4.6-2.4-.3-.2a.3.3,0,0,1,.1-.4l1.7-.9a.3.3,0,1,1,.3.6l-1.7.9Zm30.8-1.1a.3.3,0,0,1-.3-.3v-1.9a.3.3,0,0,1,.6,0v1.9A.3.3,0,0,1,822.1,530Zm-26.2-1.3-.3-.2a.3.3,0,0,1,.1-.4l1.7-.9a.3.3,0,1,1,.3.6l-1.7.9Zm4.6-2.4-.3-.2a.3.3,0,0,1,.1-.4l1.7-.9a.3.3,0,1,1,.3.6l-1.7.9Zm21.6-1.6a.3.3,0,0,1-.3-.3v-.9a9.2,9.2,0,0,0-.1-1,.3.3,0,1,1,.6-.1,9.8,9.8,0,0,1,.1,1.1v.9A.3.3,0,0,1,822.1,524.8Zm-17-.8-.3-.2a.3.3,0,0,1,.1-.4l1.7-.9a.3.3,0,1,1,.3.6l-1.7.9Zm4.6-2.4-.3-.2a.3.3,0,0,1,.1-.4l1.7-.9a.3.3,0,1,1,.3.6l-1.7.9Zm11.2-1.7h-.3a3.5,3.5,0,0,0-1.4-1.1.3.3,0,1,1,.2-.6,4.1,4.1,0,0,1,1.7,1.3.3.3,0,0,1-.1.5Zm-6.6-.7-.3-.2a.3.3,0,0,1,.2-.4l1.9-.7a.3.3,0,0,1,.1.6l-1.8.6Z"/><path class="cls-75" d="M720.8,667.5l-1.2-.5v-.3l1.2.6Zm1.4-3.2-1.2-.5,1.2-3,1.2.5Zm2.3-6.1-1.2-.4,1-3.1,1.2.4Zm1.9-6.2-1.3-.4.8-3.1,1.3.3Zm1.6-6.3-1.3-.3.7-3.2,1.3.3Zm1.4-6.4-1.3-.3.6-3.2,1.3.2Zm1.2-6.4-1.3-.2.6-3.2,1.3.2Zm1.1-6.4-1.3-.2.5-3.2,1.3.2Zm1-6.4-1.3-.2.4-3.2,1.3.2Zm.9-6.5-1.3-.2.4-3.2,1.3.2Zm.8-6.5h-1.3l.3-3.2h1.3Zm.7-6.5h-1.3l.3-3.2h1.3Zm.6-6.5h-1.3l.3-3.2h1.3Zm.5-6.5h-1.3l.2-3.2h1.3Zm.4-6.5h-1.3l.2-3.2h1.3Zm.4-6.5h-1.3l.2-3.2h1.3Zm.3-6.5H736v-3.2h1.3Zm.3-6.5h-1.3v-3.3h1.3Zm.2-6.5h-1.3v-3.3h1.3Zm.1-6.5h-1.3c0-1.2,0-2.3,0-3.3H738C738,546.2,738,547.3,738,548.5Zm.1-6.5h-1.3c0-1.1,0-1.9,0-2.4v-.8H738v.8C738,540.1,738,540.9,738,542Z"/><path class="cls-32" d="M700.2,577.9c-10.2,6.6-19.3-26.6-14-35.1C706,547.1,700.2,577.9,700.2,577.9Z"/><path class="cls-76" d="M688.5,541.8l-4.5,6.3-11.9-42.1-12.3,3.4,2.2,56c.7,17.8,22.6,25.9,34.7,12.9l4.1-4.4S707.9,546.8,688.5,541.8Z"/><path class="cls-77" d="M738,547.4l-37.9,30.6s5.8-30.9-14-35.1l4.1-5.4,29.1-38S747,501.3,738,547.4Z"/><path class="cls-78" d="M706.6,571.6l-6.4,6.3s5.8-30.9-14-35.1l4.1-5.4C705,541.3,707.2,558.5,706.6,571.6Z"/><path class="cls-79" d="M672.1,506.1l1.3-2.3a25.9,25.9,0,0,0,3.3-11.7v-2.2a2.2,2.2,0,0,0-2.6-2.2h0a2.2,2.2,0,0,0-1.5,1.1l-3.3,5.6-7.9-18.1-.4.3a10.8,10.8,0,0,0-4.5,7.3L655.1,494a14.7,14.7,0,0,0,1.3,8.3l3.4,7.1,7.6,1.5Z"/><path class="cls-80" d="M813.4,643.1a52.4,52.4,0,0,1-1.2,7.9s-31.8,34-71.6,24.1c-33.3-9.1-32.8-20.9-32.8-20.9s.6-1.7,1.5-4.9c11.4,13.5,27.9,20.6,46.5,20.5C780,669.6,804.8,650.4,813.4,643.1Z"/><path class="cls-81" d="M950.7,647.3c4.3,2.5,7.8,8.6,7.8,13.5L901.6,628c0-8.3,5.9-11.6,13.1-7.5a24.7,24.7,0,0,1,7.3,6.8c3-2.2,7.4-2.1,12.3.7s11.8,10.9,14.5,18.5Z"/><path class="cls-82" d="M952.6,646.2l-1.9-.8c-2.7-7.6-8.2-14.8-14.5-18.5-4.6-2.6-8.7-2.9-11.7-1.1l-.7.4a24.7,24.7,0,0,0-7.3-6.7c-3.6-2.1-6.9-2.3-9.3-.9l-1.9,1.1c2.4-1.4,5.7-1.2,9.3.9a24.7,24.7,0,0,1,7.3,6.8l1.4-.8c2.9-1.3,6.8-.9,11,1.5,6.3,3.6,11.8,10.9,14.5,18.5l1.9.8c4.3,2.5,7.8,8.6,7.8,13.5l1.9-1.1C960.4,654.8,956.9,648.7,952.6,646.2Z"/><path class="cls-83" d="M766,268.2c-4.9,2.8-8.9,9.7-8.9,15.4l64.7-37.3c0-9.4-6.7-13.2-14.9-8.5a28.1,28.1,0,0,0-8.3,7.7c-3.4-2.5-8.4-2.4-14,.8-7.2,4.1-13.4,12.4-16.5,21A9.9,9.9,0,0,0,766,268.2Z"/><path class="cls-84" d="M763.9,267a9.9,9.9,0,0,1,2.1-.9c3.1-8.6,9.3-16.8,16.5-21,5.2-3,9.9-3.3,13.3-1.3l.8.5a28,28,0,0,1,8.3-7.7c4.1-2.4,7.9-2.6,10.5-1l2.1,1.2c-2.7-1.6-6.4-1.3-10.5,1a28.1,28.1,0,0,0-8.3,7.7l-1.6-.9c-3.3-1.5-7.7-1.1-12.5,1.7-7.2,4.1-13.4,12.4-16.5,21a9.9,9.9,0,0,0-2.1.9c-4.9,2.8-8.9,9.7-8.9,15.4l-2.1-1.2C755,276.7,759,269.8,763.9,267Z"/><g class="cls-85"><path class="cls-86" d="M356.1,767.3c-2.5-1.5-6-1.3-9.9,1a22.1,22.1,0,0,0-3.3,2.4l3.3,1.9a22.1,22.1,0,0,1,3.3-2.4c3.9-2.2,7.4-2.4,9.9-1Z"/><path class="cls-87" d="M317.2,767.7c-8.7,5-16.5,13.9-21.8,24-3.7-.7-8.1.2-12.9,2.9-12.8,7.4-23.1,25.2-23,39.9l3.3,1.9c0-14.6,10.3-32.5,23-39.9,4.8-2.8,9.2-3.7,12.9-2.9l-2.1-1.2,2.1,1.2c5.3-10,13.1-18.9,21.8-24s15.4-5.1,20.6-2l-3.3-1.9C332.6,762.6,325.3,763,317.2,767.7Z"/><path class="cls-88" d="M349.6,770.2c7.7-4.4,13.9-.9,13.9,7.9L262.8,836.3c0-14.6,10.3-32.5,23-39.9,4.8-2.8,9.2-3.7,12.9-2.9,5.3-10,13.1-18.9,21.8-24,11.2-6.4,20.9-4.8,25.7,3A22.1,22.1,0,0,1,349.6,770.2Z"/></g><path class="cls-6" d="M473.7,566.2v57.4c0,4.6,3.3,6.5,7.3,4.2L504.9,614l4.7,4.4c.8.8,2.1.7,3.4,0a8.8,8.8,0,0,0,3.3-3.9l4.6-9.7,26.5-15.3a16,16,0,0,0,7.3-12.6V519.5c0-4.6-3.3-6.5-7.3-4.2l-57.1,33-9.2,5.3A16,16,0,0,0,473.7,566.2Z"/><g class="cls-89"><polygon class="cls-32" points="514 591 515.6 591 522.9 586.8 524.9 583.7 523.4 569.6 516.5 570.3 514.3 572.3 513.1 576.3 513 580.8 514 591"/><path class="cls-90" d="M536.8,567.9l-17.6-15.7-4.8,9.9-1.9,3.8-.3.7h0l-1.5,3.1-1.7,3.4-.7,1.5-1.1,2.2-.3.6-1.8,3.7-.4.9h0l-.9,1.9-1.6,3.4-.4.8v7.2l10.8-6.3,3.1-1.8V577a4.2,4.2,0,0,1,1.9-3.3l3.4-2h0l.8-.3h1.1v10.5l13.9-8Zm-23.8,18v1.2l-2.1,1.2-3.7,2.1v-6.7h.1l1-.6,4.1-2.4.6-.4v5.5Z"/><polygon class="cls-19" points="501.7 599.1 464.7 577.6 464.7 573.9 501.7 595.5 501.7 599.1"/><polygon class="cls-91" points="501.7 595.5 464.7 573.9 464.6 566.7 501.7 588.2 501.7 595.5"/><polygon class="cls-92" points="501.7 588.2 464.6 566.7 482.1 530.7 519.2 552.2 501.7 588.2"/><polygon class="cls-19" points="515.6 587.4 515.6 591 501.7 599.1 501.7 595.5 512.5 589.2 515.6 587.4"/><polygon class="cls-19" points="536.8 578.8 522.9 586.8 522.9 583.2 536.8 575.2 536.8 578.8"/><polygon class="cls-32" points="513 580.4 513.1 587.1 507.2 590.4 507.2 583.7 513 580.4"/><polygon class="cls-32" points="499.2 571.9 477.9 559.5 483.9 547.1 505.2 559.5 499.2 571.9"/></g><path class="cls-6" d="M932.9,398.8v57.4c0,4.6-3.3,6.5-7.3,4.2l-23.7-13.7-4.7,4.4c-.8.8-2.1.7-3.4,0a8.8,8.8,0,0,1-3.3-3.9l-4.6-9.7-26.5-15.3a16,16,0,0,1-7.3-12.6V352.1c0-4.6,3.3-6.5,7.3-4.2l57.1,33,9.2,5.3A16,16,0,0,1,932.9,398.8Z"/><g class="cls-93"><g class="cls-85"><path class="cls-19" d="M908.1,392.6,931,405.9c1.1.7,1.8,2,1.8,4L910,396.6C910,394.7,909.3,393.3,908.1,392.6Z"/><path class="cls-94" d="M901.9,403.4a1.8,1.8,0,0,0,1.8-.2l22.8,13.3a1.8,1.8,0,0,1-1.8.2Z"/><path class="cls-95" d="M906.2,398.8a1.8,1.8,0,0,0-.7-1.6l22.8,13.3a1.8,1.8,0,0,1,.7,1.6,5.6,5.6,0,0,1-2.5,4.4l-22.8-13.3A5.6,5.6,0,0,0,906.2,398.8Z"/><path class="cls-96" d="M905.5,397.2l22.8,13.3a1.8,1.8,0,0,0-1.8.2l-22.8-13.3A1.8,1.8,0,0,1,905.5,397.2Z"/><path class="cls-97" d="M924.7,416.6l-22.8-13.3a1.8,1.8,0,0,1-.7-1.6,5.6,5.6,0,0,1,2.5-4.4l22.8,13.3A5.6,5.6,0,0,0,924,415,1.8,1.8,0,0,0,924.7,416.6Z"/><path class="cls-9" d="M926.5,410.6c1.4-.8,2.5-.2,2.6,1.5a5.6,5.6,0,0,1-2.5,4.4c-1.4.8-2.5.2-2.6-1.5A5.6,5.6,0,0,1,926.5,410.6Z"/><path class="cls-19" d="M907,394.6l22.8,13.3a3.3,3.3,0,0,0-3.3.3l-22.8-13.3A3.3,3.3,0,0,1,907,394.6Z"/><path class="cls-19" d="M923.2,419.2,900.4,406a3.3,3.3,0,0,1-1.4-3,10.3,10.3,0,0,1,4.7-8.1l22.8,13.3a10.3,10.3,0,0,0-4.7,8.1A3.3,3.3,0,0,0,923.2,419.2Z"/><path class="cls-98" d="M926.5,408.1c2.6-1.5,4.7-.3,4.7,2.7a10.3,10.3,0,0,1-4.7,8.1c-2.6,1.5-4.7.3-4.7-2.7A10.3,10.3,0,0,1,926.5,408.1Zm0,8.3a5.6,5.6,0,0,0,2.5-4.4c0-1.6-1.1-2.3-2.6-1.5A5.6,5.6,0,0,0,924,415c0,1.6,1.1,2.3,2.6,1.5"/><path class="cls-99" d="M915.3,367.4l22.8,13.3a2.2,2.2,0,0,0-2.3.2l-22.8-13.3A2.2,2.2,0,0,1,915.3,367.4Z"/><path class="cls-100" d="M882.3,415.3l.9-.3,22.8,13.3-.9.3Z"/><path class="cls-101" d="M882.3,415.3c9.1,1.8,15.2,8.8,22.8,13.3h-.1l-22.8-13.3Z"/><path class="cls-102" d="M881.7,415.3h.6l22.8,13.3h-.6Z"/><path class="cls-103" d="M881.7,415.3l.9.5,1,.6.5.3,1.5.9,3.9,2.3,15,8.7h-.3l-22.8-13.3Z"/><path class="cls-19" d="M887.7,404.4l22.8,13.3c1.1.7,1.8,2,1.8,4l-22.8-13.3C889.5,406.5,888.8,405.1,887.7,404.4Z"/><path class="cls-104" d="M885.8,410.6a1.8,1.8,0,0,0-.7-1.6l22.8,13.3a1.8,1.8,0,0,1,.7,1.6,5.6,5.6,0,0,1-2.5,4.4L883.3,415A5.6,5.6,0,0,0,885.8,410.6Z"/><path class="cls-105" d="M881.5,415.2h0l22.8,13.3h0Z"/><path class="cls-106" d="M885.1,409l22.8,13.3a1.8,1.8,0,0,0-1.8.2l-22.8-13.3A1.8,1.8,0,0,1,885.1,409Z"/><path class="cls-107" d="M904.3,428.4l-22.8-13.3a1.8,1.8,0,0,1-.7-1.6,5.6,5.6,0,0,1,2.5-4.4l22.8,13.3a5.6,5.6,0,0,0-2.5,4.4A1.8,1.8,0,0,0,904.3,428.4Z"/><path class="cls-19" d="M886.6,406.4l22.8,13.3a3.3,3.3,0,0,0-3.3.3l-22.8-13.3A3.3,3.3,0,0,1,886.6,406.4Z"/><path class="cls-19" d="M902.8,431l-22.8-13.3a3.3,3.3,0,0,1-1.4-3,10.3,10.3,0,0,1,4.7-8.1l22.8,13.3a10.3,10.3,0,0,0-4.7,8.1A3.3,3.3,0,0,0,902.8,431Z"/><polygon class="cls-108" points="893.8 423.1 871 409.9 916.3 383.7 939.1 397 893.8 423.1"/><polygon class="cls-109" points="918.8 404.4 896 391.1 908 384.2 930.8 397.4 918.8 404.4"/><polygon class="cls-110" points="918.8 394 896 380.7 907.9 373.8 930.8 387.1 918.8 394"/><polygon class="cls-111" points="930.8 397.4 908 384.2 907.9 373.8 930.8 387.1 930.8 397.4"/><path class="cls-112" d="M906.1,419.9c2.6-1.5,4.7-.3,4.7,2.7a10.3,10.3,0,0,1-4.7,8.1c-2.6,1.5-4.7.3-4.7-2.7A10.3,10.3,0,0,1,906.1,419.9Zm0,8.3a5.6,5.6,0,0,0,2.5-4.4c0-1.6-1.1-2.3-2.6-1.5a5.6,5.6,0,0,0-2.5,4.4c0,1.6,1.1,2.3,2.6,1.5"/><path class="cls-9" d="M906.1,422.4c1.4-.8,2.5-.2,2.6,1.5a5.6,5.6,0,0,1-2.5,4.4c-1.4.8-2.5.2-2.6-1.5A5.6,5.6,0,0,1,906.1,422.4Z"/><polygon class="cls-113" points="918.8 404.4 896 391.1 896 380.7 918.8 394 918.8 404.4"/><polygon class="cls-9" points="930.8 387.1 930.8 397.4 918.8 404.4 918.8 394 930.8 387.1"/><polygon class="cls-114" points="913.5 407.4 890.7 394.2 890.6 383.8 913.4 397.1 913.5 407.4"/><path class="cls-115" d="M894.4,431l-22.8-13.3a2.3,2.3,0,0,1-.9-2.3l22.8,13.3A2.3,2.3,0,0,0,894.4,431Z"/><polygon class="cls-116" points="910.3 398.9 887.5 385.6 890.6 383.8 913.4 397.1 910.3 398.9"/><polygon class="cls-117" points="898.7 416 875.9 402.7 890.7 394.2 913.5 407.4 898.7 416"/><polygon class="cls-118" points="909.7 396 886.9 382.7 913.1 367.6 935.9 380.9 909.7 396"/><path class="cls-119" d="M939.1,397v5.6a7,7,0,0,1-3.2,5.5l-3.2,1.8c0-4-2.8-5.6-6.3-3.6a13.8,13.8,0,0,0-6.3,10.8l-7.9,4.6c0-4-2.8-5.6-6.3-3.6a13.8,13.8,0,0,0-6.3,10.8l-3.1,1.8c-1.8,1.1-3.3.1-3.2-2l.3-5.6Z"/><polygon class="cls-120" points="893.5 428.7 870.7 415.4 871 409.9 893.8 423.1 893.5 428.7"/><polygon class="cls-121" points="898.7 416 875.9 402.7 878.4 396.7 901.2 410 898.7 416"/><path class="cls-9" d="M913.4,397.1v10.4L898.7,416l2.5-6c2-4.7,5.4-8.9,9.1-11.1Z"/><path class="cls-122" d="M901.2,410l-22.8-13.3c2-4.7,5.4-8.9,9.1-11.1l22.8,13.3C906.6,401,903.1,405.2,901.2,410Z"/><polygon class="cls-123" points="893.8 423.1 871 409.9 871.1 407.6 893.9 420.9 893.8 423.1"/><path class="cls-124" d="M893.9,420.9l-22.8-13.3a6.2,6.2,0,0,1,.5-2l22.8,13.3A6.2,6.2,0,0,0,893.9,420.9Z"/><polygon class="cls-125" points="894.4 418.8 871.6 405.6 875.3 396.7 898.1 410 894.4 418.8"/><path class="cls-126" d="M898.1,410l-22.8-13.3c2.5-6,6.9-11.3,11.6-14L909.7,396C905,398.7,900.7,404,898.1,410Z"/><path class="cls-127" d="M935.9,380.9c1.8-1,3.2-.2,3.2,1.8V397l-45.3,26.2v-2.3a6.2,6.2,0,0,1,.5-2l3.7-8.9c2.5-6,6.9-11.3,11.6-14Zm-22.4,26.6V397.1l-3.2,1.8c-3.7,2.1-7.1,6.3-9.1,11.1l-2.5,6,14.8-8.5m17.3-10V387.1l-12,6.9v10.4l12-6.9"/><path class="cls-128" d="M886.9,382.7c-4.7,2.7-9.1,8-11.6,14l-3.7,8.9,22.8,13.3,3.7-8.9c2.5-6,6.9-11.3,11.6-14Z"/><path class="cls-9" d="M899.7,402.5a35.4,35.4,0,0,0-3.7,6.6l-2.7,6.5-18.9-11,3-7a30.8,30.8,0,0,1,3-5.5Z"/></g><path class="cls-129" d="M931.9,375.2l-22.2,12.9c-7.5,4.3-17.1,7.2-27.6,8.2v1.8c10.5-1,20.1-3.8,27.6-8.2l22.2-12.9a3.2,3.2,0,0,0,1.9-2.6v-1.8A3.2,3.2,0,0,1,931.9,375.2Z"/><path class="cls-130" d="M931.8,369.9c2.5,1.5,2.5,3.8,0,5.3l-22.2,12.9c-7.5,4.3-17.1,7.2-27.6,8.2,1.6-6.1,6.5-11.7,14-16l22.2-12.9a10.1,10.1,0,0,1,9.1,0Z"/></g></g></g></svg>