<svg xmlns="http://www.w3.org/2000/svg" xmlns:xlink="http://www.w3.org/1999/xlink" viewBox="0 0 921.5 820.6"><defs><style>.cls-1{fill:#f5f5f5;}.cls-2{fill:url(#linear-gradient);}.cls-3{fill:url(#linear-gradient-2);}.cls-4{fill:url(#linear-gradient-3);}.cls-5{fill:#17aa60;}.cls-6{fill:url(#linear-gradient-4);}.cls-7{fill:#fff;}.cls-8{fill:url(#linear-gradient-5);}.cls-9{fill:url(#linear-gradient-6);}.cls-10{fill:url(#linear-gradient-7);}.cls-11{fill:url(#linear-gradient-8);}.cls-12{fill:url(#linear-gradient-9);}.cls-13{fill:url(#linear-gradient-10);}.cls-14{fill:url(#linear-gradient-11);}.cls-15{fill:url(#linear-gradient-12);}.cls-16{fill:url(#linear-gradient-13);}.cls-17{fill:url(#linear-gradient-14);}.cls-18{isolation:isolate;}.cls-19{fill:url(#linear-gradient-15);}.cls-20{fill:url(#linear-gradient-16);}.cls-21{fill:url(#linear-gradient-17);}.cls-22{fill:url(#linear-gradient-18);}.cls-23{fill:url(#linear-gradient-19);}.cls-24{fill:url(#linear-gradient-20);}.cls-25{fill:url(#linear-gradient-21);}.cls-26{fill:url(#linear-gradient-22);}.cls-27{fill:url(#linear-gradient-23);}.cls-28{fill:url(#linear-gradient-24);}.cls-29{fill:url(#linear-gradient-25);}.cls-30{fill:url(#linear-gradient-26);}.cls-31{fill:url(#linear-gradient-27);}.cls-32{fill:url(#linear-gradient-28);}.cls-33{fill:url(#linear-gradient-29);}.cls-34{fill:url(#linear-gradient-30);}.cls-35{fill:url(#linear-gradient-31);}.cls-36{fill:url(#linear-gradient-32);}.cls-37{fill:url(#linear-gradient-33);}.cls-38{fill:url(#linear-gradient-34);}.cls-39{fill:url(#linear-gradient-35);}.cls-40{fill:url(#linear-gradient-36);}.cls-41{fill:url(#linear-gradient-37);}.cls-42{fill:url(#linear-gradient-38);}.cls-43{fill:url(#linear-gradient-39);}.cls-44{fill:url(#linear-gradient-40);}.cls-45{fill:url(#linear-gradient-41);}.cls-46{fill:url(#linear-gradient-42);}.cls-47{fill:url(#linear-gradient-43);}.cls-48{fill:url(#linear-gradient-44);}.cls-49{fill:url(#linear-gradient-45);}.cls-50{fill:url(#linear-gradient-46);}.cls-51{fill:url(#linear-gradient-47);}.cls-52{fill:url(#linear-gradient-48);}.cls-53{fill:url(#linear-gradient-49);}.cls-54{fill:url(#linear-gradient-50);}.cls-55{fill:url(#linear-gradient-51);}.cls-56{fill:url(#linear-gradient-52);}.cls-57{fill:url(#linear-gradient-53);}.cls-58{fill:url(#linear-gradient-54);}.cls-59{fill:url(#linear-gradient-55);}.cls-60{fill:url(#linear-gradient-56);}.cls-61{fill:url(#linear-gradient-57);}.cls-62{fill:url(#linear-gradient-58);}.cls-63{fill:url(#linear-gradient-59);}.cls-64{fill:url(#linear-gradient-60);}.cls-65{fill:url(#linear-gradient-61);}.cls-66{fill:url(#linear-gradient-62);}.cls-67{fill:url(#linear-gradient-63);}.cls-68{fill:#067f43;}.cls-69{fill:url(#linear-gradient-64);}.cls-70{fill:url(#linear-gradient-65);}.cls-71{fill:url(#linear-gradient-66);}.cls-72{fill:url(#linear-gradient-67);}.cls-73{fill:url(#linear-gradient-68);}.cls-74{fill:url(#linear-gradient-69);}.cls-75{fill:url(#linear-gradient-70);}.cls-76{fill:url(#linear-gradient-71);}.cls-77{fill:url(#linear-gradient-72);}.cls-78{fill:url(#linear-gradient-73);}.cls-79{fill:url(#linear-gradient-74);}.cls-80{fill:url(#linear-gradient-75);}.cls-81{fill:url(#linear-gradient-76);}.cls-82{fill:#febe40;}.cls-83{fill:url(#linear-gradient-77);}.cls-84{fill:url(#linear-gradient-78);}.cls-85{fill:url(#linear-gradient-79);}.cls-86{fill:url(#linear-gradient-80);}.cls-87{fill:url(#linear-gradient-81);}.cls-88{fill:url(#linear-gradient-82);}.cls-89{fill:url(#linear-gradient-83);}.cls-90{fill:url(#linear-gradient-84);}.cls-91{fill:url(#linear-gradient-85);}.cls-92{fill:url(#linear-gradient-86);}.cls-93{fill:url(#linear-gradient-87);}.cls-94{fill:url(#linear-gradient-88);}.cls-95{fill:#12e079;}</style><linearGradient id="linear-gradient" x1="-215.81" y1="952.62" x2="498.19" y2="484.62" gradientUnits="userSpaceOnUse"><stop offset="0" stop-color="#e5e6e7"/><stop offset="1" stop-color="#fff"/></linearGradient><linearGradient id="linear-gradient-2" x1="313.7" y1="885.39" x2="611.7" y2="189.39" xlink:href="#linear-gradient"/><linearGradient id="linear-gradient-3" x1="636.66" y1="333.64" x2="-47.34" y2="1023.64" gradientUnits="userSpaceOnUse"><stop offset="0" stop-color="#12e079"/><stop offset="1" stop-color="#067f43"/></linearGradient><linearGradient id="linear-gradient-4" x1="394.79" y1="307.42" x2="262.81" y2="409.47" gradientTransform="translate(216.6)" gradientUnits="userSpaceOnUse"><stop offset="0" stop-color="#faf39d"/><stop offset="1" stop-color="#fed330"/></linearGradient><linearGradient id="linear-gradient-5" x1="384.8" y1="294.49" x2="252.81" y2="396.54" xlink:href="#linear-gradient-4"/><linearGradient id="linear-gradient-6" x1="412.26" y1="330.01" x2="280.27" y2="432.06" xlink:href="#linear-gradient-4"/><linearGradient id="linear-gradient-7" x1="412.26" y1="330.01" x2="280.27" y2="432.06" xlink:href="#linear-gradient-4"/><linearGradient id="linear-gradient-8" x1="390.67" y1="302.09" x2="258.69" y2="404.14" xlink:href="#linear-gradient-4"/><linearGradient id="linear-gradient-9" x1="634.39" y1="623.78" x2="769.72" y2="349.85" gradientTransform="matrix(1.06, -0.03, 0.09, 0.94, -89.74, 54.47)" gradientUnits="userSpaceOnUse"><stop offset="0" stop-color="#067f43"/><stop offset="1" stop-color="#12e079"/></linearGradient><linearGradient id="linear-gradient-10" x1="675.72" y1="452.69" x2="736.28" y2="382.1" gradientUnits="userSpaceOnUse"><stop offset="0" stop-color="#fed330"/><stop offset="1" stop-color="#faf39d"/></linearGradient><linearGradient id="linear-gradient-11" x1="677.44" y1="454.16" x2="738" y2="383.57" xlink:href="#linear-gradient-10"/><linearGradient id="linear-gradient-12" x1="726.57" y1="395.67" x2="791.07" y2="342.27" xlink:href="#linear-gradient-10"/><linearGradient id="linear-gradient-13" x1="804.95" y1="211.82" x2="951.95" y2="412.82" xlink:href="#linear-gradient-3"/><linearGradient id="linear-gradient-14" x1="847.86" y1="257.9" x2="904.42" y2="334.04" xlink:href="#linear-gradient-3"/><linearGradient id="linear-gradient-15" x1="147.54" y1="330.88" x2="62.23" y2="376.29" xlink:href="#linear-gradient-3"/><linearGradient id="linear-gradient-16" x1="147.38" y1="330.58" x2="62.07" y2="375.99" xlink:href="#linear-gradient-3"/><linearGradient id="linear-gradient-17" x1="219.78" y1="197.53" x2="-98.22" y2="617.53" xlink:href="#linear-gradient-3"/><linearGradient id="linear-gradient-18" x1="541.51" y1="-10.3" x2="443.84" y2="83.26" xlink:href="#linear-gradient-3"/><linearGradient id="linear-gradient-19" x1="531.04" y1="-21.24" x2="433.37" y2="72.33" xlink:href="#linear-gradient-3"/><linearGradient id="linear-gradient-20" x1="584.57" y1="-96.41" x2="358.57" y2="223.59" xlink:href="#linear-gradient-3"/><linearGradient id="linear-gradient-21" x1="189.39" y1="470.7" x2="153.39" y2="707.7" xlink:href="#linear-gradient-3"/><linearGradient id="linear-gradient-22" x1="227.36" y1="558.65" x2="240.86" y2="558.65" gradientTransform="matrix(1, 0, 0, 1, 0, 0)" xlink:href="#linear-gradient-4"/><linearGradient id="linear-gradient-23" x1="132.54" y1="523.25" x2="237.33" y2="523.25" gradientTransform="matrix(1, 0, 0, 1, 0, 0)" xlink:href="#linear-gradient-4"/><linearGradient id="linear-gradient-24" x1="227.43" y1="546.28" x2="240.86" y2="546.28" gradientTransform="matrix(1, 0, 0, 1, 0, 0)" xlink:href="#linear-gradient-4"/><linearGradient id="linear-gradient-25" x1="132.61" y1="509.86" x2="230.96" y2="509.86" gradientTransform="matrix(1, 0, 0, 1, 0, 0)" xlink:href="#linear-gradient-4"/><linearGradient id="linear-gradient-26" x1="144.08" y1="547.67" x2="224.08" y2="437.17" gradientTransform="matrix(1, 0, 0, 1, 0, 0)" xlink:href="#linear-gradient-4"/><linearGradient id="linear-gradient-27" x1="215.33" y1="433.65" x2="140.33" y2="510.65" gradientTransform="matrix(1, 0, 0, 1, 0, 0)" xlink:href="#linear-gradient-4"/><linearGradient id="linear-gradient-28" x1="219.78" y1="437.99" x2="144.78" y2="514.99" gradientTransform="matrix(1, 0, 0, 1, 0, 0)" xlink:href="#linear-gradient-4"/><linearGradient id="linear-gradient-29" x1="620.94" y1="242.33" x2="583.62" y2="312.97" gradientUnits="userSpaceOnUse"><stop offset="0" stop-color="#fed330"/><stop offset="1" stop-color="#febe40"/></linearGradient><linearGradient id="linear-gradient-30" x1="607.97" y1="240.59" x2="576.07" y2="286.74" xlink:href="#linear-gradient-29"/><linearGradient id="linear-gradient-31" x1="619.2" y1="241.41" x2="581.89" y2="312.05" xlink:href="#linear-gradient-29"/><linearGradient id="linear-gradient-32" x1="582.28" y1="264.26" x2="542.28" y2="340.87" xlink:href="#linear-gradient-29"/><linearGradient id="linear-gradient-33" x1="674.55" y1="271.59" x2="637.23" y2="342.22" xlink:href="#linear-gradient-29"/><linearGradient id="linear-gradient-34" x1="661.58" y1="269.85" x2="629.68" y2="315.99" xlink:href="#linear-gradient-29"/><linearGradient id="linear-gradient-35" x1="672.81" y1="270.67" x2="635.5" y2="341.31" xlink:href="#linear-gradient-29"/><linearGradient id="linear-gradient-36" x1="635.89" y1="293.52" x2="595.89" y2="370.13" xlink:href="#linear-gradient-29"/><linearGradient id="linear-gradient-37" x1="-73.77" y1="668.48" x2="37.62" y2="494.52" gradientTransform="matrix(-1, 0, 0, 1, 472.77, 0)" xlink:href="#linear-gradient-9"/><linearGradient id="linear-gradient-38" x1="-75.08" y1="667.64" x2="36.3" y2="493.68" gradientTransform="matrix(-1, 0, 0, 1, 472.77, 0)" xlink:href="#linear-gradient-9"/><linearGradient id="linear-gradient-39" x1="-74.88" y1="667.77" x2="36.51" y2="493.81" gradientTransform="matrix(-1, 0, 0, 1, 472.77, 0)" xlink:href="#linear-gradient-9"/><linearGradient id="linear-gradient-40" x1="-78.86" y1="665.23" x2="32.53" y2="491.26" gradientTransform="matrix(-1, 0, 0, 1, 472.77, 0)" xlink:href="#linear-gradient-9"/><linearGradient id="linear-gradient-41" x1="-79.06" y1="665.1" x2="32.33" y2="491.13" gradientTransform="matrix(-1, 0, 0, 1, 472.77, 0)" xlink:href="#linear-gradient-9"/><linearGradient id="linear-gradient-42" x1="-60.05" y1="655.7" x2="-17.92" y2="568.51" gradientTransform="matrix(-1, 0, 0, 1, 472.77, 0)" xlink:href="#linear-gradient-9"/><linearGradient id="linear-gradient-43" x1="-62.95" y1="654.3" x2="-20.81" y2="567.11" gradientTransform="matrix(-1, 0, 0, 1, 472.77, 0)" xlink:href="#linear-gradient-9"/><linearGradient id="linear-gradient-44" x1="-48.36" y1="684.75" x2="63.03" y2="510.79" gradientTransform="matrix(-1, 0, 0, 1, 472.77, 0)" xlink:href="#linear-gradient-9"/><linearGradient id="linear-gradient-45" x1="-96.15" y1="654.16" x2="15.24" y2="480.19" gradientTransform="matrix(-1, 0, 0, 1, 472.77, 0)" xlink:href="#linear-gradient-9"/><linearGradient id="linear-gradient-46" x1="-97.73" y1="653.14" x2="13.66" y2="479.18" gradientTransform="matrix(-1, 0, 0, 1, 472.77, 0)" xlink:href="#linear-gradient-9"/><linearGradient id="linear-gradient-47" x1="-98.43" y1="652.69" x2="12.95" y2="478.73" gradientTransform="matrix(-1, 0, 0, 1, 472.77, 0)" xlink:href="#linear-gradient-9"/><linearGradient id="linear-gradient-48" x1="-99.04" y1="652.31" x2="12.35" y2="478.34" gradientTransform="matrix(-1, 0, 0, 1, 472.77, 0)" xlink:href="#linear-gradient-9"/><linearGradient id="linear-gradient-49" x1="-99.87" y1="651.77" x2="11.52" y2="477.81" gradientTransform="matrix(-1, 0, 0, 1, 472.77, 0)" xlink:href="#linear-gradient-9"/><linearGradient id="linear-gradient-50" x1="-97.32" y1="653.4" x2="14.07" y2="479.44" gradientTransform="matrix(-1, 0, 0, 1, 472.77, 0)" xlink:href="#linear-gradient-9"/><linearGradient id="linear-gradient-51" x1="-98.43" y1="652.69" x2="12.96" y2="478.73" gradientTransform="matrix(-1, 0, 0, 1, 472.77, 0)" xlink:href="#linear-gradient-9"/><linearGradient id="linear-gradient-52" x1="-100.17" y1="651.58" x2="11.21" y2="477.61" gradientTransform="matrix(-1, 0, 0, 1, 472.77, 0)" xlink:href="#linear-gradient-9"/><linearGradient id="linear-gradient-53" x1="-102.41" y1="650.15" x2="8.98" y2="476.18" gradientTransform="matrix(-1, 0, 0, 1, 472.77, 0)" xlink:href="#linear-gradient-9"/><linearGradient id="linear-gradient-54" x1="-102.61" y1="650.02" x2="8.78" y2="476.05" gradientTransform="matrix(-1, 0, 0, 1, 472.77, 0)" xlink:href="#linear-gradient-9"/><linearGradient id="linear-gradient-55" x1="-90.84" y1="640.82" x2="-48.71" y2="553.63" gradientTransform="matrix(-1, 0, 0, 1, 472.77, 0)" xlink:href="#linear-gradient-9"/><linearGradient id="linear-gradient-56" x1="-93.74" y1="639.42" x2="-51.6" y2="552.23" gradientTransform="matrix(-1, 0, 0, 1, 472.77, 0)" xlink:href="#linear-gradient-9"/><linearGradient id="linear-gradient-57" x1="-99.45" y1="652.04" x2="11.94" y2="478.07" gradientTransform="matrix(-1, 0, 0, 1, 472.77, 0)" xlink:href="#linear-gradient-9"/><linearGradient id="linear-gradient-58" x1="-94.9" y1="654.95" x2="16.49" y2="480.99" gradientTransform="matrix(-1, 0, 0, 1, 472.77, 0)" xlink:href="#linear-gradient-9"/><linearGradient id="linear-gradient-59" x1="-107.08" y1="647.15" x2="4.3" y2="473.19" gradientTransform="matrix(-1, 0, 0, 1, 472.77, 0)" xlink:href="#linear-gradient-9"/><linearGradient id="linear-gradient-60" x1="-94.09" y1="655.47" x2="17.3" y2="481.51" gradientTransform="matrix(-1, 0, 0, 1, 472.77, 0)" xlink:href="#linear-gradient-9"/><linearGradient id="linear-gradient-61" x1="-71.91" y1="669.68" x2="39.48" y2="495.71" gradientTransform="matrix(-1, 0, 0, 1, 472.77, 0)" xlink:href="#linear-gradient-9"/><linearGradient id="linear-gradient-62" x1="-107.89" y1="646.63" x2="3.5" y2="472.67" gradientTransform="matrix(-1, 0, 0, 1, 472.77, 0)" xlink:href="#linear-gradient-9"/><linearGradient id="linear-gradient-63" x1="-114.04" y1="642.7" x2="-2.65" y2="468.74" gradientTransform="matrix(-1, 0, 0, 1, 472.77, 0)" xlink:href="#linear-gradient-9"/><linearGradient id="linear-gradient-64" x1="-121.95" y1="637.63" x2="-10.56" y2="463.67" gradientTransform="matrix(-1, 0, 0, 1, 472.77, 0)" xlink:href="#linear-gradient-9"/><linearGradient id="linear-gradient-65" x1="-116.44" y1="641.16" x2="-5.05" y2="467.19" gradientTransform="matrix(-1, 0, 0, 1, 472.77, 0)" xlink:href="#linear-gradient-9"/><linearGradient id="linear-gradient-66" x1="-113.15" y1="643.27" x2="-1.76" y2="469.31" gradientTransform="matrix(-1, 0, 0, 1, 472.77, 0)" xlink:href="#linear-gradient-9"/><linearGradient id="linear-gradient-67" x1="-126.19" y1="634.92" x2="-14.81" y2="460.95" gradientTransform="matrix(-1, 0, 0, 1, 472.77, 0)" xlink:href="#linear-gradient-9"/><linearGradient id="linear-gradient-68" x1="-126.05" y1="635.01" x2="-14.66" y2="461.04" gradientTransform="matrix(-1, 0, 0, 1, 472.77, 0)" xlink:href="#linear-gradient-9"/><linearGradient id="linear-gradient-69" x1="-126.77" y1="634.55" x2="-15.38" y2="460.58" gradientTransform="matrix(-1, 0, 0, 1, 472.77, 0)" xlink:href="#linear-gradient-9"/><linearGradient id="linear-gradient-70" x1="-128.72" y1="633.3" x2="-17.33" y2="459.33" gradientTransform="matrix(-1, 0, 0, 1, 472.77, 0)" xlink:href="#linear-gradient-9"/><linearGradient id="linear-gradient-71" x1="-131.24" y1="631.68" x2="-19.85" y2="457.72" gradientTransform="matrix(-1, 0, 0, 1, 472.77, 0)" xlink:href="#linear-gradient-9"/><linearGradient id="linear-gradient-72" x1="-131.14" y1="631.75" x2="-19.76" y2="457.78" gradientTransform="matrix(-1, 0, 0, 1, 472.77, 0)" xlink:href="#linear-gradient-9"/><linearGradient id="linear-gradient-73" x1="-75.1" y1="667.63" x2="36.29" y2="493.67" gradientTransform="matrix(-1, 0, 0, 1, 472.77, 0)" xlink:href="#linear-gradient-9"/><linearGradient id="linear-gradient-74" x1="-164.52" y1="683.88" x2="2.02" y2="423.77" gradientTransform="matrix(-1, 0, 0, 1, 472.77, 0)" xlink:href="#linear-gradient-9"/><linearGradient id="linear-gradient-75" x1="87.52" y1="401.7" x2="-30.52" y2="514.51" gradientTransform="matrix(-1, 0, 0, 1, 472.77, 0)" xlink:href="#linear-gradient-4"/><linearGradient id="linear-gradient-76" x1="-17.74" y1="491.92" x2="-86.35" y2="571" gradientTransform="matrix(-1, 0, 0, 1, 472.77, 0)" xlink:href="#linear-gradient-4"/><linearGradient id="linear-gradient-77" x1="753.71" y1="525.05" x2="635.71" y2="698.05" gradientTransform="matrix(-1, 0, 0, 1, 955.98, 0)" xlink:href="#linear-gradient-4"/><linearGradient id="linear-gradient-78" x1="688.64" y1="480.67" x2="570.64" y2="653.67" gradientTransform="matrix(-1, 0, 0, 1, 955.98, 0)" xlink:href="#linear-gradient-4"/><linearGradient id="linear-gradient-79" x1="626.53" y1="547.45" x2="536.53" y2="675.45" gradientTransform="matrix(-1, 0, 0, 1, 955.98, 0)" xlink:href="#linear-gradient-4"/><linearGradient id="linear-gradient-80" x1="387.18" y1="227.88" x2="295.68" y2="358.38" gradientTransform="matrix(1, 0, 0, 1, 0, 0)" xlink:href="#linear-gradient-4"/><linearGradient id="linear-gradient-81" x1="382.7" y1="224.74" x2="291.2" y2="355.24" gradientTransform="matrix(1, 0, 0, 1, 0, 0)" xlink:href="#linear-gradient-4"/><linearGradient id="linear-gradient-82" x1="365.19" y1="212.47" x2="273.69" y2="342.97" gradientTransform="matrix(1, 0, 0, 1, 0, 0)" xlink:href="#linear-gradient-4"/><linearGradient id="linear-gradient-83" x1="369.67" y1="215.61" x2="278.17" y2="346.11" gradientTransform="matrix(1, 0, 0, 1, 0, 0)" xlink:href="#linear-gradient-4"/><linearGradient id="linear-gradient-84" x1="282.95" y1="235.92" x2="373.97" y2="235.92" gradientTransform="matrix(1, 0, 0, 1, 0, 0)" xlink:href="#linear-gradient-9"/><linearGradient id="linear-gradient-85" x1="268.38" y1="294.4" x2="359.33" y2="187.74" gradientTransform="matrix(1, 0, 0, 1, 0, 0)" xlink:href="#linear-gradient-9"/><linearGradient id="linear-gradient-86" x1="242.81" y1="519.94" x2="401.81" y2="217.94" gradientTransform="matrix(1, 0, 0, 1, 0, 0)" xlink:href="#linear-gradient-9"/><linearGradient id="linear-gradient-87" x1="265.52" y1="462.17" x2="373.62" y2="260.44" gradientTransform="matrix(1, 0, 0, 1, 0, 0)" xlink:href="#linear-gradient-9"/><linearGradient id="linear-gradient-88" x1="278.01" y1="581.45" x2="420.01" y2="316.45" gradientTransform="matrix(1, 0, 0, 1, 0, 0)" xlink:href="#linear-gradient-9"/></defs><title>Asset 7</title><g id="Layer_2" data-name="Layer 2"><g id="Layer_6" data-name="Layer 6"><circle class="cls-1" cx="497.1" cy="483.9" r="336.7"/><path class="cls-2" d="M882.7,444.1h0a43.8,43.8,0,0,1-14.1,12.3L388.4,733.6c-12.5,7.2-29,10.9-45.3,10.9h0c-16.4,0-32.8-3.6-45.2-10.9L71.5,602c-24.9-14.5-24.8-38,.3-52.5L551.9,272.4a70.2,70.2,0,0,1,10.1-4.8h0a87.2,87.2,0,0,1,11.2-3.4h0a101.7,101.7,0,0,1,11.9-2h0c20.2-2.3,41.9,1.1,57.5,10.2L868.9,403.9C887.6,414.8,892.2,430.7,882.7,444.1Z"/><path class="cls-3" d="M887.5,430c0,9.6-6.3,19.1-18.9,26.4L388.4,733.6c-25.1,14.5-65.6,14.5-90.5,0L71.5,602c-12.4-7.2-18.6-16.6-18.6-26.1v29.1c0,9.4,6.2,18.9,18.6,26.1L298,762.7c24.9,14.5,65.5,14.5,90.5,0L868.7,485.5c12.6-7.3,18.9-16.9,18.9-26.4Z"/><path class="cls-4" d="M858.4,451.3c20.2-11.6,20.3-30.6.2-42.2L632.2,277.5c-20-11.6-52.7-11.6-72.9,0L79.2,554.7c-20.2,11.6-20.3,30.6-.2,42.2l46,26.7c14.7-4.3,33.1-2.8,45.3,4.3l81.9,47.6c7.6,4.4,11.5,10.3,11.4,16.1a15.6,15.6,0,0,1-4.2,10.2l46,26.7c20,11.6,52.7,11.6,72.9,0Z"/><path class="cls-5" d="M240.4,679.7c1.9,1.1,1.9,2.9,0,4a7.6,7.6,0,0,1-6.9,0c-1.9-1.1-1.9-2.9,0-4A7.6,7.6,0,0,1,240.4,679.7Z"/><path class="cls-5" d="M228.9,673.1c1.9,1.1,1.9,2.9,0,4a7.6,7.6,0,0,1-6.9,0l-69.8-40.3c-1.9-1.1-1.9-2.9,0-4a7.6,7.6,0,0,1,6.9,0Z"/><polygon class="cls-6" points="569.1 401.7 531.5 417.7 448.2 372.1 483.4 357 569.1 401.7"/><polygon class="cls-7" points="569.1 397.7 531.5 413.7 448.2 368.1 483.4 353 569.1 397.7"/><path class="cls-8" d="M542.7,381.6v-4.7l.2-.6.2-.5.2-.6.2-.5.2-.6v-.3l.3-.7.2-.4.3-.6.2-.4.3-.6.2-.4.2-.4.6-1,.2-.3.8-1.2.2-.2.7-.9.3-.3.7-.9.2-.2.9-1,.2-.2.8-.7.3-.3,1.1-.9h.1l1.1-.8.4-.3.4-.2.5-.3.4-.2.6-.3.4-.2.6-.3.3-.2.9-.4h.2l.7-.3h.3l.8-.3h.1l1-.3h.3l.7-.2h.3l1-.2h7.4l.8.2h.2l.6.2h.3l.5.2h.2l.7.3h.1l.6.3-75.2-40.9-.6-.3h-.1l-.7-.3h-.2l-.5-.2h-.3l-.6-.2h-.2l-.8-.2h-7.4l-1,.2h-.3l-.7.2h-.3l-1,.3h-.1l-.8.3h-.3l-.7.3h-.2l-.8.4h-.1l-.3.2-.6.3-.4.2-.6.3-.4.2-.5.3-.4.2-.2.2h-.2l-1.1.8h-.1l-1.1.9h-.1l-.2.2-.8.7-.2.2-.9,1h0v.2l-.7.9-.3.3-.7.9v.2h0l-.8,1.2-.2.3-.6,1v.4l-.2.4-.3.6-.2.4-.3.6-.2.4-.3.7v.3h0l-.2.5-.2.5-.2.6-.2.5-.2.6v5.1q0,.6,0,1.2a20.9,20.9,0,0,0,5.8,15,17.7,17.7,0,0,0,4.1,3l75.2,40.9c-6-3.2-9.9-9.9-9.9-18q0-.6,0-1.2Z"/><path class="cls-9" d="M564,357.2c11.8-1.7,21.3,7.3,21.3,20s-9.6,24.3-21.3,26-21.3-7.3-21.3-20S552.2,358.9,564,357.2Z"/><path class="cls-7" d="M563.9,361.1c9.8-1.4,17.7,6.1,17.6,16.6s-7.9,20.2-17.7,21.6-17.6-6.1-17.6-16.6S554.2,362.5,563.9,361.1Z"/><path class="cls-10" d="M563.9,366.2c7.2-1,13,4.5,13,12.2s-5.8,14.9-13,15.9-13-4.5-13-12.2S556.8,367.2,563.9,366.2Z"/><path class="cls-7" d="M563.9,371c4.7-.7,8.5,2.9,8.5,8s-3.8,9.8-8.6,10.4-8.5-2.9-8.5-8S559.2,371.7,563.9,371Z"/><polygon class="cls-11" points="448.2 368.1 448.2 372.1 531.5 417.7 531.5 413.7 448.2 368.1"/><path class="cls-7" d="M559,450.5l138.3,80.6a6.6,6.6,0,0,0,7.6-.5l46.2-40.8a5.8,5.8,0,0,1,2.1-1.2l50.3-16.1a5.8,5.8,0,0,0,2.1-1.2l49.3-43.4a5.8,5.8,0,0,1,2.1-1.2l38.9-12.1c4.7-1.5,5.2-7.1.9-9.6L766.3,328.8a6.9,6.9,0,0,0-5-.8l-39.4,9a6,6,0,0,0-2.4,1.2l-56.2,45.6a5.9,5.9,0,0,1-2.1,1.1l-51.2,15a5.9,5.9,0,0,0-2.1,1.1l-50,40.9C555,444.3,555.6,448.5,559,450.5Z"/><path class="cls-12" d="M878.8,407.9l-26.6,8.3a18,18,0,0,0-6.5,3.6l-27.1,23.9-13.5,11.8-5.4,4.7-2.4,2.1-8.8,2.8L748.3,478a17.8,17.8,0,0,0-6.4,3.6l-25.3,22.3-9.8,8.6-7.5,6.6-97-56.6-18.4-10.7-11-6.4,42.9-35.1,50-14.6a18.1,18.1,0,0,0,6.4-3.3l40.5-32.9L722,352l5.2-4.2,35-8,51,29.8,12,7Z"/><polygon class="cls-5" points="818.6 443.6 805.1 455.5 796.6 455.8 782.2 456.3 698.1 459.2 684.9 459.7 602.3 462.5 583.9 451.8 680.3 448.5 680.3 448.5 693.4 448 693.5 448 774.2 445.2 788.6 444.7 818.6 443.6"/><polygon class="cls-5" points="716.6 503.9 706.9 512.5 684.9 459.7 680.3 448.5 680.3 448.5 667.8 418.3 679.7 414.9 693.4 448 693.5 448 698.1 459.2 716.6 503.9"/><polygon class="cls-5" points="799.8 460.2 797.3 462.3 788.5 465.1 782.2 456.3 774.2 445.2 753.5 416.4 746.5 406.6 712.7 359.5 722 352 757.1 400.8 757.1 400.8 764.1 410.5 788.6 444.7 796.6 455.8 799.8 460.2"/><polygon class="cls-5" points="825.3 376.5 764.1 410.5 753.5 416.4 727.5 430.8 720.3 421.1 746.5 406.6 757.1 400.8 813.3 369.5 825.3 376.5"/><path class="cls-13" d="M738.6,399.5c-1.6,1-3.9.8-6.4-.6-5-2.9-9-9.8-9-15.5,0-2.8,1-4.8,2.6-5.8l-5.1,2.9c-1.6.9-2.6,2.9-2.6,5.8,0,5.7,4,12.7,9,15.5,2.5,1.4,4.8,1.6,6.4.6Z"/><path class="cls-14" d="M732.3,366.6c-5.3-3.1-10.1-3.3-13.6-1.3l-5.1,2.9c3.5-2,8.3-1.7,13.6,1.3,10.5,6.1,19,20.8,19,32.9,0,15.9-9.1,23.6-14.7,26.9l5.1-2.9c5.7-3.3,14.7-11,14.7-26.9C751.3,387.4,742.8,372.7,732.3,366.6Z"/><path class="cls-15" d="M727.2,369.5c10.5,6.1,19,20.8,19,32.9-.1,22.6-18.2,28.7-19.2,29-1-1.4-19-28.5-19-51C708.1,368.3,716.7,363.4,727.2,369.5Zm-.1,32.3c5,2.9,9,.6,9-5.1s-4-12.7-9-15.5-9-.6-9,5.1,4,12.7,9,15.5"/><path class="cls-16" d="M906.6,315.7c6.6,3.8,12,13.1,12,20.7l-87.1-50.3c0-12.7,9-17.8,20-11.4a37.8,37.8,0,0,1,11.2,10.4c4.6-3.4,11.4-3.3,18.9,1.1,9.7,5.6,18,16.7,22.2,28.3A13.4,13.4,0,0,1,906.6,315.7Z"/><path class="cls-17" d="M909.5,314a13.4,13.4,0,0,0-2.9-1.3c-4.2-11.6-12.5-22.7-22.2-28.3-7-4-13.3-4.4-17.9-1.7l-1.1.6A37.8,37.8,0,0,0,854.4,273c-5.6-3.2-10.6-3.5-14.2-1.4l-2.9,1.7c3.6-2.1,8.7-1.8,14.2,1.4a37.8,37.8,0,0,1,11.2,10.4l2.1-1.2c4.5-2,10.3-1.4,16.8,2.3,9.7,5.6,18,16.7,22.2,28.3a13.4,13.4,0,0,1,2.9,1.3c6.6,3.8,12,13.1,12,20.7l2.9-1.7C921.5,327.1,916.2,317.9,909.5,314Z"/><g class="cls-18"><path class="cls-19" d="M144.5,332.9c-3.8-2.2-9-1.9-14.8,1.4a33.1,33.1,0,0,0-5,3.6l5,2.9a33.1,33.1,0,0,1,5-3.6c5.8-3.3,11-3.6,14.8-1.4Z"/><path class="cls-20" d="M86.3,333.4c-13,7.5-24.6,20.8-32.6,35.8-5.5-1.1-12.2.2-19.3,4.4C15.3,384.6-.1,411.3,0,433.2l5,2.9c-.1-21.9,15.3-48.6,34.4-59.6,7.2-4.1,13.8-5.5,19.3-4.4l-3.2-1.8,3.2,1.8c7.9-15,19.6-28.3,32.6-35.8s23-7.6,30.9-3l-5-2.9C109.3,325.8,98.3,326.5,86.3,333.4Z"/><path class="cls-21" d="M134.8,337.3c11.5-6.6,20.8-1.3,20.8,11.9L5,436.1c-.1-21.9,15.3-48.6,34.4-59.6,7.2-4.1,13.8-5.5,19.3-4.4,7.9-15,19.6-28.3,32.6-35.8,16.7-9.6,31.2-7.2,38.5,4.5A33.1,33.1,0,0,1,134.8,337.3Z"/></g><g class="cls-18"><path class="cls-22" d="M529.5,2.8c-1.9-1.1-4.6-1-7.6.7a17,17,0,0,0-2.5,1.8l2.6,1.5A17,17,0,0,1,524.5,5c3-1.7,5.6-1.9,7.6-.7Z"/><path class="cls-23" d="M499.6,3C493,6.9,487,13.7,483,21.4c-2.8-.6-6.2.1-9.9,2.2-9.8,5.6-17.7,19.3-17.6,30.5l2.6,1.5c0-11.2,7.9-24.9,17.6-30.5,3.7-2.1,7.1-2.8,9.9-2.2l-1.6-.9,1.6.9c4.1-7.7,10-14.5,16.7-18.4S514,.6,518,3l-2.6-1.5C511.4-.8,505.8-.5,499.6,3Z"/><path class="cls-24" d="M524.5,5c5.9-3.4,10.7-.7,10.7,6.1L458,55.7c0-11.2,7.9-24.9,17.6-30.5,3.7-2.1,7.1-2.8,9.9-2.2,4.1-7.7,10-14.5,16.7-18.4,8.6-4.9,16-3.7,19.7,2.3A17,17,0,0,1,524.5,5Z"/></g><path class="cls-25" d="M182.7,434.7h1.2a8.9,8.9,0,0,1,8.9,8.9V578a3.6,3.6,0,0,1-3.6,3.6H177.4a3.6,3.6,0,0,1-3.6-3.6V443.6a8.9,8.9,0,0,1,8.9-8.9Z"/><g class="cls-18"><polygon class="cls-26" points="237.3 556.4 240.9 554.3 230.9 560.9 227.4 563 237.3 556.4"/><polygon class="cls-27" points="227.4 538.3 237.3 556.4 227.4 563 132.5 508.2 132.6 483.5 227.4 538.3"/><polygon class="cls-28" points="227.4 538.3 231 536.2 240.9 554.3 237.3 556.4 227.4 538.3"/><polygon class="cls-29" points="132.6 483.5 136.1 481.5 231 536.2 227.4 538.3 132.6 483.5"/></g><ellipse class="cls-5" cx="178.7" cy="523.5" rx="3.1" ry="5.1"/><g class="cls-18"><polygon class="cls-30" points="238.6 442.8 248.6 449.4 238.7 467.5 143.9 522.2 143.8 497.5 238.6 442.8"/><polygon class="cls-31" points="143.9 522.2 140.4 520.2 140.3 495.5 143.8 497.5 143.9 522.2"/><polygon class="cls-32" points="143.8 497.5 140.3 495.5 235.1 440.7 238.6 442.8 143.8 497.5"/></g><ellipse class="cls-5" cx="189.9" cy="483.9" rx="3" ry="5.1"/><path class="cls-33" d="M637.3,257.9c9.8,5.6,9.8,14.8.1,20.4l-60.1,35-11.4-6.6a16.1,16.1,0,0,1,0-27.8l36.2-21C611.7,252.3,627.5,252.3,637.3,257.9Z"/><path class="cls-34" d="M594.7,279.3v13.9c0-2.6-1.7-5.3-5.2-7.3-6.9-4-18-4-24.9,0-3.4,2-5.1,4.6-5.1,7.2V279.2c0-2.6,1.7-5.2,5.1-7.2,6.9-4,18-4,24.9,0C593,274,594.7,276.7,594.7,279.3Z"/><path class="cls-35" d="M644.6,268.2v23.2c0,3.7-2.4,7.3-7.2,10.1l-53.4,31.1a13.4,13.4,0,0,1-13.4,0L554,323.1a15.4,15.4,0,0,1-7.7-13.3V279.2l3.1,4.4,27.8,16,17.6-10.2c4.8-2.8,7.2-6.5,7.2-10.1v13.9c0,3-1.6,5.9-4.8,8.5l40.2-23.4C642.2,275.6,644.6,271.9,644.6,268.2Z"/><path class="cls-7" d="M616,278a2.3,2.3,0,0,1-1.2-.3l-15.7-9.4a2.3,2.3,0,0,1,2.3-3.9l15.7,9.4A2.3,2.3,0,0,1,616,278Z"/><path class="cls-7" d="M625.3,274.1a2.3,2.3,0,0,1-1.2-.3l-15.7-9.4a2.3,2.3,0,0,1,2.3-3.9l15.7,9.4a2.3,2.3,0,0,1-1.2,4.2Z"/><path class="cls-36" d="M594.7,269c9.8,5.6,9.8,14.8.1,20.4l-9.3,5.4a16.6,16.6,0,0,1-16.6,0l-20.4-11.8a4.5,4.5,0,0,1,0-7.7l10.9-6.3C569.1,263.4,584.9,263.4,594.7,269Zm-30,17.4c6.9,4,18.1,4,24.9,0s6.8-10.4-.1-14.4-18-4-24.9,0-6.8,10.4.1,14.4"/><path class="cls-5" d="M644.6,291.4c0,3.7-2.4,7.3-7.2,10.1l-53.4,31.1a13.4,13.4,0,0,1-13.4,0L554,323.1a15.4,15.4,0,0,1-7.7-13.3V299.5a15.4,15.4,0,0,0,7.7,13.3l16.5,9.5a13.4,13.4,0,0,0,13.4,0l53.4-31.1c4.8-2.8,7.2-6.5,7.3-10.1Z"/><path class="cls-37" d="M690.9,287.2c9.8,5.6,9.8,14.8.1,20.4l-60.1,35L619.5,336a16.1,16.1,0,0,1,0-27.8l36.2-21C665.4,281.5,681.1,281.6,690.9,287.2Z"/><path class="cls-38" d="M648.4,308.6v13.9c0-2.6-1.7-5.3-5.2-7.3-6.9-4-18-4-24.9,0-3.4,2-5.1,4.6-5.1,7.2V308.5c0-2.6,1.7-5.2,5.1-7.2,6.9-4,18-4,24.9,0C646.6,303.3,648.4,305.9,648.4,308.6Z"/><path class="cls-39" d="M698.2,297.5v23.2c0,3.7-2.4,7.3-7.2,10.1l-53.4,31.1a13.4,13.4,0,0,1-13.4,0l-16.5-9.5a15.4,15.4,0,0,1-7.7-13.3V308.5l3.1,4.4,27.8,16,17.6-10.2c4.8-2.8,7.2-6.5,7.2-10.1v13.9c0,3-1.6,5.9-4.8,8.5L691,307.6C695.8,304.8,698.2,301.1,698.2,297.5Z"/><path class="cls-7" d="M669.7,307.3a2.3,2.3,0,0,1-1.2-.3l-15.7-9.4a2.3,2.3,0,0,1,2.3-3.9l15.7,9.4a2.3,2.3,0,0,1-1.2,4.2Z"/><path class="cls-7" d="M678.9,303.4a2.3,2.3,0,0,1-1.2-.3L662,293.7a2.3,2.3,0,1,1,2.3-3.9l15.7,9.4a2.3,2.3,0,0,1-1.2,4.2Z"/><path class="cls-40" d="M648.3,298.3c9.8,5.6,9.8,14.8.1,20.4l-9.3,5.4a16.6,16.6,0,0,1-16.6,0l-20.4-11.8a4.5,4.5,0,0,1,0-7.7l10.9-6.3C622.8,292.7,638.5,292.7,648.3,298.3Zm-30,17.4c6.9,4,18.1,4,24.9,0s6.8-10.4-.1-14.4-18-4-24.9,0-6.8,10.4.1,14.4"/><path class="cls-5" d="M698.2,320.7c0,3.7-2.4,7.3-7.2,10.1l-53.4,31.1a13.4,13.4,0,0,1-13.4,0l-16.5-9.5a15.4,15.4,0,0,1-7.7-13.3V328.8a15.4,15.4,0,0,0,7.7,13.3l16.5,9.5a13.4,13.4,0,0,0,13.4,0l53.4-31.1c4.8-2.8,7.2-6.5,7.3-10.1Z"/><g class="cls-18"><path class="cls-41" d="M509,538l-58.8,34.2c-2.9,1.7-4.7,5.3-4.7,10.4l58.8-34.2C504.3,543.3,506.1,539.7,509,538Z"/><path class="cls-42" d="M525.1,565.7c-1.2.7-2.8.6-4.7-.5l-58.8,34.2c1.8,1.1,3.5,1.1,4.7.5Z"/><path class="cls-43" d="M513.9,554c0-2.1.7-3.5,1.9-4.2L457,583.9c-1.2.7-1.9,2.1-1.9,4.2a14.4,14.4,0,0,0,6.5,11.3l58.8-34.2A14.4,14.4,0,0,1,513.9,554Z"/><path class="cls-44" d="M515.8,549.7,457,583.9c1.2-.7,2.8-.6,4.7.5l58.8-34.2C518.7,549.2,517,549.1,515.8,549.7Z"/><path class="cls-45" d="M466.3,599.9l58.8-34.2c1.2-.7,1.9-2.1,1.9-4.2a14.4,14.4,0,0,0-6.5-11.3l-58.8,34.2a14.4,14.4,0,0,1,6.5,11.3C468.2,597.8,467.5,599.2,466.3,599.9Z"/><path class="cls-7" d="M461.7,584.4c-3.6-2.1-6.6-.4-6.6,3.8a14.4,14.4,0,0,0,6.5,11.3c3.6,2.1,6.6.4,6.6-3.7A14.4,14.4,0,0,0,461.7,584.4Z"/><path class="cls-46" d="M511.9,543l-58.8,34.2c2.2-1.3,5.2-1.1,8.6.8l58.8-34.2C517.2,541.9,514.1,541.7,511.9,543Z"/><path class="cls-47" d="M470.2,606.6,529,572.5c2.2-1.3,3.5-3.9,3.5-7.7,0-7.7-5.4-17-12-20.9L461.7,578c6.7,3.9,12.1,13.2,12,20.9C473.7,602.7,472.4,605.4,470.2,606.6Z"/><path class="cls-48" d="M473.8,598.9c0,7.7-5.4,10.8-12.1,6.9s-12.1-13.2-12-20.8,5.4-10.8,12.1-6.9S473.8,591.2,473.8,598.9Zm-12.1.6c3.6,2.1,6.6.4,6.6-3.7a14.4,14.4,0,0,0-6.5-11.3c-3.6-2.1-6.6-.4-6.6,3.8a14.4,14.4,0,0,0,6.5,11.3"/><path class="cls-49" d="M490.5,473l-58.8,34.2c1.5-.9,3.5-.7,5.8.6l58.8-34.2C494.1,472.3,492,472.1,490.5,473Z"/><path class="cls-50" d="M575.5,596.5a6.5,6.5,0,0,1-2.4-.9l-58.8,34.2a6.5,6.5,0,0,0,2.4.9Z"/><path class="cls-51" d="M575.5,596.5c-23.5,4.7-39.2,22.8-58.8,34.2h.2l58.8-34.2Z"/><path class="cls-52" d="M577.1,596.4h-1.4l-58.8,34.2h1.4Z"/><path class="cls-53" d="M577.1,596.4a26.2,26.2,0,0,0-2.4,1.4l-2.5,1.5-1.3.7-3.9,2.3L557,608.2l-38.6,22.4.7-.3,58.8-34.2Z"/><path class="cls-54" d="M561.7,568.4l-58.8,34.2c-2.9,1.7-4.7,5.3-4.7,10.4L557,578.8C557,573.7,558.8,570.1,561.7,568.4Z"/><path class="cls-55" d="M566.6,584.4c0-2.1.7-3.5,1.9-4.2l-58.8,34.2c-1.2.7-1.9,2.1-1.9,4.2a14.4,14.4,0,0,0,6.5,11.3l58.8-34.2A14.4,14.4,0,0,1,566.6,584.4Z"/><path class="cls-56" d="M577.8,596.1h0L519,630.3h0Z"/><path class="cls-57" d="M568.5,580.2l-58.8,34.2c1.2-.7,2.8-.6,4.7.5l58.8-34.2C571.4,579.6,569.7,579.5,568.5,580.2Z"/><path class="cls-58" d="M519,630.3l58.8-34.2c1.2-.7,1.9-2.1,1.9-4.2a14.4,14.4,0,0,0-6.5-11.3l-58.8,34.2a14.4,14.4,0,0,1,6.5,11.3C520.9,628.2,520.2,629.6,519,630.3Z"/><path class="cls-59" d="M564.6,573.4l-58.8,34.2c2.2-1.3,5.2-1.1,8.6.8l58.8-34.2C569.9,572.3,566.8,572.2,564.6,573.4Z"/><path class="cls-60" d="M522.9,637l58.8-34.2c2.2-1.3,3.5-3.9,3.5-7.7,0-7.7-5.4-17-12-20.9l-58.8,34.2c6.7,3.9,12.1,13.2,12,20.9C526.4,633.1,525.1,635.8,522.9,637Z"/><polygon class="cls-61" points="546 616.6 604.8 582.5 488.1 515.1 429.2 549.2 546 616.6"/><polygon class="cls-62" points="481.5 568.3 540.4 534.1 509.5 516.3 450.7 550.4 481.5 568.3"/><polygon class="cls-63" points="481.6 541.5 540.4 507.4 509.6 489.5 450.8 523.7 481.6 541.5"/><polygon class="cls-64" points="450.7 550.4 509.5 516.3 509.6 489.5 450.8 523.7 450.7 550.4"/><path class="cls-65" d="M526.4,629.3c0,7.7-5.4,10.8-12.1,6.9s-12.1-13.2-12-20.9,5.5-10.8,12.1-6.9S526.5,621.6,526.4,629.3Zm-12.1.6c3.6,2.1,6.6.4,6.6-3.7a14.4,14.4,0,0,0-6.5-11.3c-3.6-2.1-6.6-.4-6.6,3.7a14.4,14.4,0,0,0,6.5,11.3"/><path class="cls-7" d="M514.4,614.8c-3.6-2.1-6.6-.4-6.6,3.7a14.4,14.4,0,0,0,6.5,11.3c3.6,2.1,6.6.4,6.6-3.7A14.4,14.4,0,0,0,514.4,614.8Z"/><polygon class="cls-66" points="481.5 568.3 540.4 534.1 540.4 507.4 481.6 541.5 481.5 568.3"/><polygon class="cls-7" points="450.8 523.7 450.7 550.4 481.5 568.3 481.6 541.5 450.8 523.7"/><polygon class="cls-67" points="495.3 576.2 554.1 542 554.2 515.3 495.4 549.5 495.3 576.2"/><path class="cls-68" d="M544.4,636.9l58.8-34.2c1.6-.9,2.5-3,2.4-5.8L546.7,631C546.9,633.9,546,635.9,544.4,636.9Z"/><polygon class="cls-69" points="503.5 554.2 562.3 520 554.2 515.3 495.4 549.5 503.5 554.2"/><polygon class="cls-70" points="533.3 598.2 592.1 564 554.1 542 495.3 576.2 533.3 598.2"/><polygon class="cls-71" points="505 546.7 563.8 512.5 496.4 473.6 437.6 507.7 505 546.7"/><path class="cls-68" d="M429.2,549.2v14.5c0,5.2,3.6,11.5,8.1,14.1l8.2,4.7c0-10.3,7.3-14.4,16.2-9.2s16.1,17.7,16.1,27.9L498.2,613c0-10.3,7.3-14.4,16.2-9.2s16.1,17.7,16.1,27.9l8,4.6c4.7,2.7,8.5.3,8.2-5.3l-.7-14.4Z"/><polygon class="cls-68" points="546.7 631 605.5 596.8 604.8 582.5 546 616.6 546.7 631"/><polygon class="cls-72" points="533.3 598.2 592.1 564 585.8 548.5 527 582.7 533.3 598.2"/><path class="cls-7" d="M495.4,549.5v26.7l38,22L527,582.7c-5-12.2-13.9-23-23.5-28.5Z"/><path class="cls-73" d="M527,582.7l58.8-34.2c-5-12.2-13.9-23-23.5-28.5l-58.8,34.2C513.1,559.7,521.9,570.5,527,582.7Z"/><polygon class="cls-74" points="546 616.6 604.8 582.5 604.5 576.6 545.7 610.8 546 616.6"/><path class="cls-75" d="M545.7,610.8l58.8-34.2a16,16,0,0,0-1.3-5.2l-58.8,34.2A16,16,0,0,1,545.7,610.8Z"/><polygon class="cls-76" points="544.4 605.6 603.3 571.4 593.6 548.5 534.8 582.7 544.4 605.6"/><path class="cls-77" d="M534.8,582.7l58.8-34.2c-6.5-15.5-17.8-29.1-29.9-36L505,546.7C517.1,553.7,528.3,567.2,534.8,582.7Z"/><path class="cls-78" d="M505,546.7c12.1,7,23.4,20.6,29.9,36l9.6,22.9a16,16,0,0,1,1.3,5.2l.3,5.8L429.2,549.2V512.4c0-5.2,3.7-7.3,8.2-4.7Zm-9.7,29.5,38,22L527,582.7c-5-12.2-13.9-23-23.5-28.5l-8.1-4.7v26.7m-44.6-25.8,30.9,17.8V541.5l-30.9-17.8v26.7"/><path class="cls-79" d="M563.8,512.5c12.1,7,23.4,20.6,29.9,36l9.6,22.9-58.8,34.2-9.6-22.9c-6.5-15.5-17.8-29.1-29.9-36Z"/><path class="cls-7" d="M530.8,563.4a91.2,91.2,0,0,1,9.4,17l7,16.8,48.6-28.3-7.6-18.1a79.3,79.3,0,0,0-7.9-14.3Z"/></g><path class="cls-80" d="M447.9,493.2l57.3,33.3c19.3,11.2,44.2,18.6,71.1,21v4.7c-27-2.5-51.9-9.8-71.1-21l-57.3-33.3c-3.2-1.9-4.8-4.3-4.8-6.8v-4.7C443.1,488.8,444.7,491.3,447.9,493.2Z"/><path class="cls-81" d="M448,479.5c-6.5,3.8-6.6,9.9-.1,13.6l57.3,33.3c19.3,11.2,44.2,18.6,71.1,21-4.2-15.6-16.8-30.1-36.1-41.3L483,472.9c-6.5-3.8-17-3.8-23.6,0Z"/><polygon class="cls-82" points="291.3 675.4 286.7 675.4 265.7 663.3 259.8 654.3 264.3 613.5 284.3 615.4 290.4 621.2 294.2 632.8 294.2 645.9 291.3 675.4"/><path class="cls-83" d="M225.4,629.6l40.3,23.3v-30c0-.1,0-.3,0-.4h0V622h0v-.7h0V621h.3l.2-.3h.1l.3-.3h1.8a5,5,0,0,1,2.4.7h.1l9.9,5.7a12.2,12.2,0,0,1,5.5,9.5v30l9,5.2,31.3,18.1V667.4l-1.1-2.3-4.7-9.7-2.6-5.4h-.1l-1.3-2.6L312,636.4l-.8-1.6-3.2-6.5-2.1-4.4-4.8-9.9-4.4-9h0l-1-2-5.4-11-13.9-28.5-51,45.3Zm68.8,17.2v-2.1l1.8,1.1,12,6.9,2.9,1.7h.2v19.4l-10.8-6.2-6.1-3.5V646.8Z"/><polygon class="cls-5" points="327 698.7 434 636.5 434.1 626.1 327.1 688.3 327 698.7"/><polygon class="cls-84" points="327.1 688.3 434.1 626.1 434.1 605.2 327.1 667.4 327.1 688.3"/><polygon class="cls-85" points="327.1 667.4 434.1 605.2 383.5 501.1 276.5 563.3 327.1 667.4"/><polygon class="cls-5" points="286.7 665 286.7 675.4 327 698.7 327.1 688.3 295.8 670.2 286.7 665"/><polygon class="cls-5" points="225.4 640 265.7 663.3 265.7 652.9 225.4 629.6 225.4 640"/><polygon class="cls-82" points="294.2 644.6 294.2 664 311 673.8 311.1 654.4 294.2 644.6"/><polygon class="cls-82" points="334.1 620.2 395.8 584.2 378.5 548.3 316.7 584.3 334.1 620.2"/><polygon class="cls-86" points="355.4 229.9 355.7 324.6 345.7 330.4 345.4 235.7 355.4 229.9"/><polygon class="cls-87" points="345.7 330.4 340.4 327.3 340.1 232.6 345.4 235.7 345.7 330.4"/><polygon class="cls-68" points="345.4 235.7 340.1 232.6 350.2 226.8 355.4 229.9 345.4 235.7"/><polygon class="cls-88" points="301.8 355.7 296.5 352.6 296.3 258 301.5 261 301.8 355.7"/><polygon class="cls-68" points="301.5 261 296.3 258 306.3 252.2 311.6 255.2 301.5 261"/><polygon class="cls-89" points="311.6 255.2 311.8 349.9 301.8 355.7 301.5 261 311.6 255.2"/><path class="cls-90" d="M366.9,204.2c3.9-2.2,7-.4,7,4v3a15.4,15.4,0,0,1-7,12.1l-11.6,6.7-10,5.8-33.8,19.5-10,5.8L290,267.7c-3.9,2.2-7,.4-7-4v-3a15.4,15.4,0,0,1,7-12.1Z"/><path class="cls-91" d="M366.7,200.6c-1.3-.7-3-.6-5,.5l-77,44.5a15.4,15.4,0,0,0-7,12.1v3c0,2.2.8,3.8,2,4.5l5.2,3c-1.3-.7-2-2.3-2-4.5v-3a15.4,15.4,0,0,1,7-12.1l77-44.5c1.9-1.1,3.7-1.2,5-.5Z"/><path class="cls-92" d="M377.7,262.6c-3.5-2-8.3-1.7-13.6,1.3l-76.6,44.3c-10.6,6.1-19.1,20.9-19.1,33.1l.3,119.4c0,6,2.2,10.3,5.6,12.3L325,502.5c-3.4-2-5.6-6.3-5.6-12.3L319,370.7c0-12.2,8.5-27,19.1-33.1l76.6-44.3c5.3-3.1,10.2-3.4,13.6-1.3Z"/><path class="cls-93" d="M293.4,476l-.3-8.1-.2-8.1-.5-16.2c-.3-10.8-.5-21.7-.7-32.5s-.3-21.7-.4-32.5V358.3c0-.7,0-1.3,0-2.1v-2.2a38.2,38.2,0,0,1,1.7-8.4,43.7,43.7,0,0,1,3.4-7.8,45.9,45.9,0,0,1,4.7-7,41.8,41.8,0,0,1,6-6.1,34.3,34.3,0,0,1,3.5-2.5l1.8-1.1,1.8-1,28.3-16,28.4-15.7,14.3-7.7,3.6-1.9a22.4,22.4,0,0,1,3.8-1.6,13,13,0,0,1,8.1-.2,12.7,12.7,0,0,0-7.9.8,45.9,45.9,0,0,0-7,3.9l-13.8,8.5L343.9,307l-28,16.5-1.7,1-1.7,1a30.4,30.4,0,0,0-3.1,2.2,37.9,37.9,0,0,0-5.4,5.5,42,42,0,0,0-4.3,6.5,40.4,40.4,0,0,0-3.1,7.1,34.3,34.3,0,0,0-1.6,7.5v1.9c0,.6,0,1.3,0,2v20.3c-.1,10.8-.1,21.7-.2,32.5s-.3,21.7-.5,32.5l-.4,16.2-.2,8.1Z"/><path class="cls-94" d="M414.8,293.4c10.6-6.1,19.2-1.2,19.2,11l.3,119.4c0,12.2-8.5,27-19.1,33.1l-76.6,44.3c-10.6,6.1-19.2,1.2-19.2-11L319,370.8c0-12.2,8.5-27,19.1-33.1Z"/><path class="cls-5" d="M408.3,375.3c7.9-4.6,14.4-.9,14.4,8.2l.3,34.3c0,9.1-6.4,20.2-14.3,24.8l-57.3,33.1c-7.9,4.6-14.4.9-14.4-8.2l-.3-34.3c0-9.1,6.4-20.2,14.3-24.8Z"/><path class="cls-95" d="M411.8,413.5v10.6a3.8,3.8,0,0,1-1.9,3.3l-50.4,29.1a3.8,3.8,0,0,1-5.7-3.3V442.6a3.8,3.8,0,0,1,1.9-3.3l50.4-29.1A3.8,3.8,0,0,1,411.8,413.5Z"/><path class="cls-5" d="M411.8,335.4v14.8a2,2,0,0,1-1,1.7l-54.1,31.2a2,2,0,0,1-3-1.7V366.6a2,2,0,0,1,1-1.7l54.1-31.2A2,2,0,0,1,411.8,335.4Z"/><path class="cls-68" d="M310.2,409v28.6a4,4,0,0,1-5.9,3.6L280,428.3a4,4,0,0,1-2.1-3.6V396.2a4,4,0,0,1,5.9-3.6L308,405.5A4,4,0,0,1,310.2,409Z"/></g></g></svg>