<svg id="Layer_1" data-name="Layer 1" xmlns="http://www.w3.org/2000/svg" xmlns:xlink="http://www.w3.org/1999/xlink" viewBox="0 0 1030 1030"><defs><style>.cls-1{fill:none;}.cls-2{clip-path:url(#clip-path);}.cls-3{fill:url(#linear-gradient);}.cls-4{fill:#05c46b;}</style><clipPath id="clip-path"><rect class="cls-1" x="1272" y="1116.1" width="1030" height="1030"/></clipPath><linearGradient id="linear-gradient" x1="929.08" y1="860.68" x2="1536.66" y2="1371.54" gradientTransform="matrix(-0.21, 0.98, -0.98, -0.21, 2584.54, 147.26)" gradientUnits="userSpaceOnUse"><stop offset="0" stop-color="#a1d139" stop-opacity="0"/><stop offset="1" stop-color="#78a516"/></linearGradient></defs><title>Artboard 1</title><g class="cls-2"><path class="cls-3" d="M845,1032.2A396.9,396.9,0,1,1,899.2,1331,394.3,394.3,0,0,1,845,1032.2Zm636.1,137.7c29.6-136.9-57.6-272.3-194.5-302s-272.3,57.6-302,194.5,57.6,272.3,194.5,302S1451.5,1306.7,1481.1,1169.8Z"/></g><path class="cls-4" d="M972.6,676.7C942.5,565.4,788.1,304.6,668,223.4c-64,43.3-137.8,137.6-197.3,233.2h0c-52.1,83.6-93.2,168.2-107.3,220.1,4.5-59.3,34.1-163.8,75.8-265.1C400,358.1,358,311.6,320,285.9,216.5,355.9,83.4,580.7,57.4,676.7h0c119.2,136.6,295,158.5,448.9,98.1,136.6-53.6,310.3-170.9,466.3-98.1h0Z"/></svg>