<svg id="Layer_1" data-name="Layer 1" xmlns="http://www.w3.org/2000/svg" viewBox="0 0 1030 206"><defs><style>.cls-1{fill:#fff;}</style></defs><title>Artboard 4</title><path class="cls-1" d="M380,166.6a117.3,117.3,0,0,1-33.2-4.3V50.2l23-8.1V72.2a106.7,106.7,0,0,1-1.4,17.4h.2c4.5-9.7,14.5-15.8,26.9-15.8,21.4,0,32.9,15.4,32.9,41.8C428.3,145.8,410.7,166.6,380,166.6Zm9-73.8c-12,0-19.2,13.8-19.2,28.7v25.1a37.4,37.4,0,0,0,12,1.6c12.9,0,22.4-8.3,22.4-30.3C404.3,101.3,399.4,92.9,389,92.9Z"/><path class="cls-1" d="M519.3,124.6H464.2c0,15.8,7.4,24.1,24.6,24.1a69.9,69.9,0,0,0,25.9-5.2l2.5,17.4a96.3,96.3,0,0,1-32.3,5.7c-28.2,0-44-14.2-44-45.6,0-26.7,15.8-47.2,42.4-47.2s37,16.7,37,37.9A82.6,82.6,0,0,1,519.3,124.6ZM482,90.7c-9.5,0-16.3,7-17.6,18.7h33C497.8,97.2,491.7,90.7,482,90.7Z"/><path class="cls-1" d="M555.6,166.6a76.8,76.8,0,0,1-19.9-2.3l1.6-19.2a49.9,49.9,0,0,0,19,3.6c8.6,0,14.4-3.8,14.4-9.7,0-15.8-36.3-6.5-36.3-36.8,0-15.8,12-28.5,37.9-28.5a82.5,82.5,0,0,1,16.2,1.8l-1.1,18a58.5,58.5,0,0,0-16.2-2.3c-9,0-13.1,3.6-13.1,9.2,0,15.1,36.8,7.5,36.8,36.8C594.9,154.8,579.3,166.6,555.6,166.6Z"/><path class="cls-1" d="M636.5,166.6c-19.7,0-25.9-7.2-25.9-28V50.2l22.8-8.1V75.6h21.7V93.4H633.4v39.1c0,11.5,2.7,14.7,10.6,14.7a36.3,36.3,0,0,0,10.2-1.3l1.6,18.1A85.6,85.6,0,0,1,636.5,166.6Z"/><path class="cls-1" d="M685.3,67.2a13.9,13.9,0,0,1-14.2-13.8,14.3,14.3,0,0,1,28.5,0C699.7,60.9,693.2,67.2,685.3,67.2Zm-11.5,97.7V75.6h23v89.2Z"/><path class="cls-1" d="M991.6,67.2a13.9,13.9,0,0,1-14.2-13.8,14.3,14.3,0,0,1,28.5,0C1006,60.9,999.5,67.2,991.6,67.2Zm-11.5,97.7V75.6h23v89.2Z"/><path class="cls-1" d="M771.9,164.9V107.8c0-9.2-2.5-14.7-11.1-14.7-11.5,0-20.6,13.1-20.6,28.7v43.1h-23V75.6h21.7a100.5,100.5,0,0,1-1.3,16h.2c5.4-10.4,15.8-17.8,30.3-17.8,20.1,0,26.6,12.7,26.6,28.4v62.7Z"/><path class="cls-1" d="M925,166.6a76.8,76.8,0,0,1-19.9-2.3l1.6-19.2a49.9,49.9,0,0,0,19,3.6c8.6,0,14.4-3.8,14.4-9.7,0-15.8-36.3-6.5-36.3-36.8,0-15.8,12-28.5,37.9-28.5a82.5,82.5,0,0,1,16.2,1.8l-1.1,18a58.5,58.5,0,0,0-16.2-2.3c-9,0-13.1,3.6-13.1,9.2,0,15.1,36.8,7.5,36.8,36.8C964.4,154.8,948.7,166.6,925,166.6Z"/><path class="cls-1" d="M886.3,164.9V105.1c0-19.9-8.3-31.4-35.9-31.4-12,0-24.8,2.5-33.8,6.1l3.8,17.6c7.9-3.4,18.9-6.1,26.9-6.1,11.8,0,16,4.8,16,15.6v3.2c-31.2,0-51.5,9.9-51.5,31.1,0,14.5,9.3,25.5,25.5,25.5,13.3,0,24.2-7,28.5-17.1l.2.2a101.9,101.9,0,0,0-.9,15.1Zm-23-37.3c0,10.8-7.5,21.5-18.7,21.5-6.6,0-10.8-4.7-10.8-10.4,0-7.7,6.3-13.5,29.4-13.5Z"/><path class="cls-1" d="M291,150.2c-8.8-32.5-53.8-108.5-88.9-132.2-18.7,12.6-40.2,40.1-57.6,68h0c-15.2,24.4-27.2,49.1-31.3,64.2,1.3-17.3,9.9-47.8,22.1-77.3-11.4-15.6-23.7-29.1-34.8-36.6-30.2,20.4-69,86-76.6,114h0c34.8,39.8,86,46.2,130.9,28.6,39.8-15.6,90.5-49.9,136-28.6h0Z"/></svg>