<svg xmlns="http://www.w3.org/2000/svg" xmlns:xlink="http://www.w3.org/1999/xlink" viewBox="0 0 600 338"><defs><style>.cls-1{fill:url(#linear-gradient);}.cls-2{fill:#fff;}.cls-3,.cls-7,.cls-8{fill:#05c36b;}.cls-4{fill:#daf7e6;}.cls-5{fill:#baf7d5;}.cls-6{fill:url(#linear-gradient-2);}.cls-7{opacity:0.4;}.cls-8{opacity:0.16;}.cls-9{fill:url(#linear-gradient-3);}.cls-10{fill:url(#linear-gradient-4);}.cls-11{fill:url(#linear-gradient-5);}.cls-12{fill:url(#linear-gradient-6);}.cls-13{fill:#febe40;}.cls-14{fill:#fed330;}.cls-15{fill:url(#linear-gradient-7);}.cls-16{fill:url(#linear-gradient-8);}.cls-17{fill:url(#linear-gradient-9);}.cls-18{fill:#17aa60;}.cls-19{fill:url(#linear-gradient-10);}.cls-20{fill:url(#linear-gradient-11);}.cls-21{fill:url(#linear-gradient-12);}</style><linearGradient id="linear-gradient" x1="-213.17" y1="690.39" x2="-212.99" y2="689.41" gradientTransform="matrix(505, 0, 0, -330, 107904, 227824.58)" gradientUnits="userSpaceOnUse"><stop offset="0" stop-color="#eee"/><stop offset="1" stop-color="#dedede"/></linearGradient><linearGradient id="linear-gradient-2" x1="284.13" y1="143.21" x2="271.19" y2="155.67" gradientUnits="userSpaceOnUse"><stop offset="0" stop-color="#faf39d"/><stop offset="1" stop-color="#fed330"/></linearGradient><linearGradient id="linear-gradient-3" x1="284.13" y1="193.99" x2="271.19" y2="206.44" xlink:href="#linear-gradient-2"/><linearGradient id="linear-gradient-4" x1="284.13" y1="244.76" x2="271.19" y2="257.21" xlink:href="#linear-gradient-2"/><linearGradient id="linear-gradient-5" x1="219.01" y1="59.22" x2="171.87" y2="143.01" gradientUnits="userSpaceOnUse"><stop offset="0" stop-color="#12e079"/><stop offset="1" stop-color="#067f43"/></linearGradient><linearGradient id="linear-gradient-6" x1="174.39" y1="70.99" x2="135.38" y2="140.33" xlink:href="#linear-gradient-5"/><linearGradient id="linear-gradient-7" x1="201.43" y1="189.27" x2="153.56" y2="256.88" xlink:href="#linear-gradient-2"/><linearGradient id="linear-gradient-8" x1="196.46" y1="198.81" x2="176.36" y2="222.57" xlink:href="#linear-gradient-2"/><linearGradient id="linear-gradient-9" x1="190.02" y1="193.37" x2="169.93" y2="217.12" xlink:href="#linear-gradient-2"/><linearGradient id="linear-gradient-10" x1="-213.64" y1="606.25" x2="-212.64" y2="606.25" gradientTransform="matrix(600, 0, 0, -4, 128186, 2754.02)" gradientUnits="userSpaceOnUse"><stop offset="0" stop-color="#b9b9b9"/><stop offset="0.03" stop-color="#ebebeb"/><stop offset="0.09" stop-color="#f6f6f6"/><stop offset="0.2" stop-color="#f1f1f1"/><stop offset="0.28" stop-color="#dbdbdb"/><stop offset="0.4" stop-color="#d2d2d2"/><stop offset="0.59" stop-color="#d3d2d3"/><stop offset="0.67" stop-color="#d5d5d6"/><stop offset="0.74" stop-color="#e5e5e6"/><stop offset="0.88" stop-color="#fafafa"/><stop offset="0.97" stop-color="#dfdfe0"/><stop offset="1" stop-color="#c1c1c1"/></linearGradient><linearGradient id="linear-gradient-11" x1="-212" y1="578.04" x2="-211" y2="578.04" gradientTransform="matrix(107, 0, 0, -3, 22931, 2062.61)" gradientUnits="userSpaceOnUse"><stop offset="0" stop-color="#898a8c"/><stop offset="0.02" stop-color="#bcbdbf"/><stop offset="0.07" stop-color="#e0e1e1"/><stop offset="0.13" stop-color="#edeeef"/><stop offset="0.33" stop-color="#f0f1f2"/><stop offset="0.51" stop-color="#eeeff0"/><stop offset="0.73" stop-color="#eeeff0"/><stop offset="0.94" stop-color="#dfe0e1"/><stop offset="0.98" stop-color="#bfc0c2"/><stop offset="1" stop-color="#97989a"/></linearGradient><linearGradient id="linear-gradient-12" x1="-213.14" y1="649.08" x2="-213.14" y2="648.08" gradientTransform="matrix(600, 0, 0, -8, 128186, 5522.63)" gradientUnits="userSpaceOnUse"><stop offset="0" stop-color="#c7c7c7"/><stop offset="1" stop-color="#8b8b8b"/></linearGradient></defs><title>Asset 4</title><g id="Layer_2" data-name="Layer 2"><g id="Layer_1-2" data-name="Layer 1"><g id="Page-1"><g id="Group"><rect id="path-10" class="cls-1" x="48" width="505" height="330" rx="15.6" ry="15.6"/><rect class="cls-2" x="72.1" y="23.9" width="457" height="277.15"/><rect class="cls-3" x="72.1" y="23.9" width="457" height="28.07"/><path class="cls-4" d="M212.8,80.5v82.3a6.5,6.5,0,0,1-6.5,6.5H124a6.5,6.5,0,0,1-6.5-6.5V80.5a6.5,6.5,0,0,1,5.8-6.4H207A6.5,6.5,0,0,1,212.8,80.5Z"/><path class="cls-3" d="M212.8,81.2v45.6H117.5V81.2c0-4,2.9-7.2,6.5-7.2h82.3C209.9,74,212.8,77.2,212.8,81.2Z"/><rect class="cls-3" x="126.2" y="136.3" width="77.1" height="6.96" rx="2.9" ry="2.9"/><rect class="cls-3" x="251.9" y="85.3" width="183.8" height="14.13" rx="7.1" ry="7.1"/><rect class="cls-5" x="251.9" y="108.4" width="91.9" height="7.07" rx="3.5" ry="3.5"/><rect class="cls-5" x="306.8" y="35.7" width="40.4" height="4.5" rx="2.3" ry="2.3"/><rect class="cls-5" x="118" y="31.4" width="33.7" height="13.21" rx="6.6" ry="6.6"/><rect class="cls-5" x="378.5" y="35.7" width="40.4" height="4.5" rx="2.3" ry="2.3"/><rect class="cls-5" x="450.2" y="35.7" width="40.4" height="4.5" rx="2.3" ry="2.3"/><rect class="cls-4" x="251.9" y="131.6" width="219.5" height="40.2" rx="7.3" ry="7.3"/><circle class="cls-3" cx="275.1" cy="152" r="11.1"/><path class="cls-6" d="M274.4,157.8a1.2,1.2,0,0,1-.8-.3l-4.2-3.9a1.2,1.2,0,0,1,1.7-1.8l3.3,3,6.1-7.1a1.2,1.2,0,1,1,1.9,1.6l-7,8.1a1.2,1.2,0,0,1-.9.4Z"/><rect class="cls-7" x="298.7" y="143.5" width="155.3" height="7.23" rx="3.3" ry="3.3"/><rect class="cls-8" x="298.7" y="155.5" width="145" height="5.06" rx="2.1" ry="2.1"/><rect class="cls-4" x="251.9" y="182.3" width="219.5" height="40.2" rx="7.3" ry="7.3"/><circle class="cls-3" cx="275.1" cy="202.8" r="11.1"/><path class="cls-9" d="M274.4,208.5a1.2,1.2,0,0,1-.8-.3l-4.2-3.9a1.2,1.2,0,0,1,1.7-1.8l3.3,3,6.1-7.1a1.2,1.2,0,1,1,1.9,1.6l-7,8.1a1.2,1.2,0,0,1-.9.4Z"/><rect class="cls-7" x="298.7" y="194.3" width="155.3" height="7.23" rx="3.3" ry="3.3"/><rect class="cls-8" x="298.7" y="206.2" width="145" height="5.06" rx="2.1" ry="2.1"/><rect class="cls-4" x="251.9" y="233.1" width="219.5" height="40.2" rx="7.3" ry="7.3"/><circle class="cls-3" cx="275.1" cy="253.6" r="11.1"/><path class="cls-10" d="M274.4,259.3a1.2,1.2,0,0,1-.8-.3l-4.2-3.9a1.2,1.2,0,0,1,1.7-1.8l3.3,3,6.1-7.1a1.2,1.2,0,1,1,1.9,1.6l-7,8.1a1.2,1.2,0,0,1-.9.4Z"/><rect class="cls-7" x="298.7" y="245.1" width="155.3" height="7.23" rx="3.3" ry="3.3"/><rect class="cls-8" x="298.7" y="257" width="145" height="5.06" rx="2.1" ry="2.1"/><rect class="cls-3" x="126.2" y="150.3" width="77.1" height="6.96" rx="2.9" ry="2.9"/><path class="cls-11" d="M212.8,114.8v12H149.3l36.6-39.9a5.7,5.7,0,0,1,9,.7Z"/><path class="cls-12" d="M169.8,126.7H117.5v-2.2l25.4-27.7a4.8,4.8,0,0,1,7.6.6Z"/><circle class="cls-2" cx="162.2" cy="88.1" r="6.3"/><path class="cls-4" d="M212.8,186.7v80a6.4,6.4,0,0,1-6.5,6.3H124a6.4,6.4,0,0,1-6.5-6.3v-80a6.3,6.3,0,0,1,5.8-6.2H207A6.3,6.3,0,0,1,212.8,186.7Z"/><rect class="cls-13" x="142.2" y="201.3" width="34.9" height="48.27" rx="2.8" ry="2.8" transform="translate(-93.2 114.2) rotate(-31)"/><rect class="cls-14" x="139.3" y="205.9" width="29.3" height="19.85" rx="1.3" ry="1.3" transform="translate(-89.1 109.9) rotate(-31)"/><path class="cls-2" d="M168.4,218.8,149.7,230a12.1,12.1,0,0,1,18.7-11.2Z"/><circle class="cls-2" cx="152.2" cy="212.9" r="4.3" transform="translate(-87.9 108.6) rotate(-31)"/><rect class="cls-15" x="161.3" y="197.1" width="34.9" height="48.27" rx="2.8" ry="2.8"/><rect class="cls-2" x="164.1" y="200.2" width="29.3" height="19.85" rx="1.3" ry="1.3"/><path class="cls-16" d="M189.7,220H167.9a12.1,12.1,0,0,1,21.8,0Z"/><circle class="cls-17" cx="178.8" cy="206.7" r="4.3"/><rect class="cls-3" x="133.3" y="222.8" width="62.9" height="36.9" rx="3.3" ry="3.3"/><circle class="cls-2" cx="186.8" cy="231.2" r="2.9"/><circle class="cls-18" cx="164.8" cy="241.2" r="13.6"/><circle class="cls-2" cx="164.8" cy="241.2" r="10.6"/><path class="cls-18" d="M144.6,219.7h10.4a1.5,1.5,0,0,1,1.5,1.5v1.6a0,0,0,0,1,0,0H143.1a0,0,0,0,1,0,0v-1.6A1.5,1.5,0,0,1,144.6,219.7Z"/><rect class="cls-18" x="180.1" y="252.7" width="9.3" height="2.22"/><path class="cls-18" d="M136.7,222.8h6.4a0,0,0,0,1,0,0v36.9a0,0,0,0,1,0,0h-6.4a3.4,3.4,0,0,1-3.4-3.4V226.2A3.4,3.4,0,0,1,136.7,222.8Z"/><rect id="front" class="cls-19" y="327" width="600" height="4"/><path id="path-17" class="cls-20" d="M247,327H354v1.5a1.5,1.5,0,0,1-1.5,1.5h-104a1.5,1.5,0,0,1-1.5-1.5Z"/><path id="path-17-2" data-name="path-17" class="cls-2" d="M247,327H354v1.5a1.5,1.5,0,0,1-1.5,1.5h-104a1.5,1.5,0,0,1-1.5-1.5Z"/><path id="path-19" class="cls-21" d="M301,330l299,1s-14.4,7-96,7H96c-81.6,0-96-7-96-7Z"/></g><circle class="cls-2" cx="300" cy="12.4" r="3"/></g></g></g></svg>