<svg xmlns="http://www.w3.org/2000/svg" viewBox="0 0 598.5 598.5"><defs><style>.cls-1{fill:#f5f5f5;}.cls-2{fill:#05c36b;}.cls-3{fill:#17aa60;}.cls-4{fill:#febe40;}.cls-5{fill:#fff;}</style></defs><title>Artboard 23 copy</title><g id="Layer_6" data-name="Layer 6"><rect class="cls-1" x="50.7" y="50.7" width="497" height="497.05" rx="47.1" ry="47.1"/><rect class="cls-2" x="149.6" y="127.1" width="321.7" height="344.18" rx="22.6" ry="22.6"/><path class="cls-3" d="M168,127.1h19.5a0,0,0,0,1,0,0V471.3a0,0,0,0,1,0,0H168a18.4,18.4,0,0,1-18.4-18.4V145.5A18.4,18.4,0,0,1,168,127.1Z"/><rect class="cls-3" x="228.7" y="358.7" width="201" height="25.13" rx="2.2" ry="2.2"/><rect class="cls-3" x="228.7" y="307.1" width="201" height="25.13" rx="2.2" ry="2.2"/><rect class="cls-4" x="127.1" y="178.7" width="45" height="25.13" rx="12.1" ry="12.1"/><rect class="cls-4" x="127.1" y="247.8" width="45" height="25.13" rx="12.1" ry="12.1"/><rect class="cls-4" x="127.1" y="316.9" width="45" height="25.13" rx="12.1" ry="12.1"/><rect class="cls-4" x="127.1" y="386.1" width="45" height="25.13" rx="12.1" ry="12.1"/><rect class="cls-5" x="228.7" y="163.9" width="201" height="116.82" rx="7.1" ry="7.1"/><rect class="cls-3" x="228.7" y="409.4" width="201" height="25.13" rx="2.2" ry="2.2"/></g></svg>