<svg xmlns="http://www.w3.org/2000/svg" xmlns:xlink="http://www.w3.org/1999/xlink" viewBox="0 0 598.5 598.5"><defs><style>.cls-1{fill:#f5f5f5;}.cls-2{fill:#fff;}.cls-3{fill:#05c36b;}.cls-4{fill:url(#linear-gradient);}.cls-5{fill:url(#linear-gradient-2);}.cls-6{fill:#067f43;opacity:0.34;}.cls-7{fill:url(#linear-gradient-3);}</style><linearGradient id="linear-gradient" x1="491.67" y1="68.76" x2="321" y2="372.16" gradientUnits="userSpaceOnUse"><stop offset="0" stop-color="#12e079"/><stop offset="1" stop-color="#067f43"/></linearGradient><linearGradient id="linear-gradient-2" x1="330.13" y1="111.38" x2="188.91" y2="362.45" xlink:href="#linear-gradient"/><linearGradient id="linear-gradient-3" x1="507.39" y1="300.02" x2="398.34" y2="475.2" gradientUnits="userSpaceOnUse"><stop offset="0" stop-color="#faf39d"/><stop offset="1" stop-color="#fed330"/></linearGradient></defs><title>Artboard 23</title><g id="Layer_6" data-name="Layer 6"><rect class="cls-1" x="50.7" y="50.7" width="497" height="497.05" rx="47.1" ry="47.1"/><path class="cls-2" d="M469,145.7V443.7a23.4,23.4,0,0,1-23.4,23.4H147.6a23.4,23.4,0,0,1-23.4-23.4V145.7a23.4,23.4,0,0,1,21-23.3H448A23.4,23.4,0,0,1,469,145.7Z"/><path class="cls-3" d="M469,148.2v165H124.2v-165c0-14.3,10.5-26,23.5-26h298C458.6,122.2,469,133.9,469,148.2Z"/><rect class="cls-3" x="155.7" y="347.8" width="279.2" height="25.18" rx="10.5" ry="10.5"/><rect class="cls-3" x="155.7" y="398.7" width="279.2" height="25.18" rx="10.5" ry="10.5"/><path class="cls-4" d="M469,269.9v43.3H239.2L371.7,168.8a20.6,20.6,0,0,1,32.4,2.6Z"/><path class="cls-5" d="M313.6,313.2H124.2v-8.1l91.9-100.2a17.5,17.5,0,0,1,27.5,2.2Z"/><circle class="cls-2" cx="286" cy="173.4" r="22.7"/><path class="cls-6" d="M493.8,369.6v78.2a18.6,18.6,0,0,1-18.6,18.6H345.3a88.5,88.5,0,0,1-9.8-34.4c-.2-2.2-.2-4.4-.2-6.7a91.1,91.1,0,0,1,1-13.3,89,89,0,0,1,157.5-42.4Z"/><circle class="cls-7" cx="437.7" cy="412" r="89.1"/><path class="cls-2" d="M432.7,457.9a9.9,9.9,0,0,1-6.8-2.7l-48.3-45.3a9.9,9.9,0,1,1,13.5-14.4l40.8,38.2,49-57a9.9,9.9,0,0,1,15,12.9l-55.7,64.9a9.9,9.9,0,0,1-7,3.4Z"/></g></svg>