<svg id="Layer_1" data-name="Layer 1" xmlns="http://www.w3.org/2000/svg" viewBox="0 0 312 312"><defs><style>.cls-1{fill:#05c46b;}</style></defs><title>Artboard 17 copy</title><path class="cls-1" d="M112.2,251.9c89,0,137.7-73.7,137.7-137.7,0-2.1,0-4.2-.1-6.3a98.5,98.5,0,0,0,24.1-25.1,96.6,96.6,0,0,1-27.8,7.6,48.6,48.6,0,0,0,21.3-26.8,97,97,0,0,1-30.7,11.7,48.4,48.4,0,0,0-82.5,44.1A137.4,137.4,0,0,1,54.5,69a48.4,48.4,0,0,0,15,64.6,48,48,0,0,1-21.9-6.1c0,.2,0,.4,0,.6a48.4,48.4,0,0,0,38.8,47.4,48.3,48.3,0,0,1-21.9.8,48.4,48.4,0,0,0,45.2,33.6,97.1,97.1,0,0,1-60.1,20.7,98.8,98.8,0,0,1-11.5-.7,137,137,0,0,0,74.2,21.7"/></svg>