<svg id="Layer_1" data-name="Layer 1" xmlns="http://www.w3.org/2000/svg" viewBox="0 0 312 312"><defs><style>.cls-1{fill:#05c46b;}</style></defs><title>Artboard 17 copy 2</title><path class="cls-1" d="M191.9,60.1H120.1a59.9,59.9,0,0,0-59.9,59.9v71.9a59.9,59.9,0,0,0,59.9,59.9h71.9a59.9,59.9,0,0,0,59.9-59.9V120.1A59.9,59.9,0,0,0,191.9,60.1Zm41.9,131.8a42,42,0,0,1-41.9,41.9H120.1a42,42,0,0,1-41.9-41.9V120.1a42,42,0,0,1,41.9-41.9h71.9a42,42,0,0,1,41.9,41.9Z"/><path class="cls-1" d="M156,108.1A47.9,47.9,0,1,0,203.9,156,47.9,47.9,0,0,0,156,108.1Zm0,77.9a30,30,0,1,1,30-30A30,30,0,0,1,156,186Z"/><circle class="cls-1" cx="207.5" cy="104.5" r="6.4"/></svg>