<svg xmlns="http://www.w3.org/2000/svg" xmlns:xlink="http://www.w3.org/1999/xlink" viewBox="0 0 598.5 598.5"><defs><style>.cls-1{fill:#f5f5f5;}.cls-2{fill:#febe40;}.cls-3{fill:#fed330;}.cls-4{fill:#fff;}.cls-5{fill:url(#linear-gradient);}.cls-6{fill:url(#linear-gradient-2);}.cls-7{fill:url(#linear-gradient-3);}.cls-8{fill:#05c36b;}.cls-9{fill:#17aa60;}</style><linearGradient id="linear-gradient" x1="499.83" y1="85.91" x2="237.83" y2="455.91" gradientUnits="userSpaceOnUse"><stop offset="0" stop-color="#faf39d"/><stop offset="1" stop-color="#fed330"/></linearGradient><linearGradient id="linear-gradient-2" x1="472.63" y1="138.12" x2="362.63" y2="268.12" xlink:href="#linear-gradient"/><linearGradient id="linear-gradient-3" x1="437.43" y1="108.34" x2="327.43" y2="238.34" xlink:href="#linear-gradient"/></defs><title>Artboard 23 copy 2</title><g id="Layer_6" data-name="Layer 6"><rect class="cls-1" x="50.7" y="50.7" width="497" height="497.05" rx="47.1" ry="47.1"/><rect class="cls-2" x="175.8" y="151.7" width="190.8" height="264.22" rx="15.2" ry="15.2" transform="translate(-107.4 180) rotate(-31)"/><path class="cls-3" d="M284.2,149.5,333,230.8a6.9,6.9,0,0,1-2.4,9.5L204.9,315.8a6.9,6.9,0,0,1-9.5-2.4L146.6,232a6.9,6.9,0,0,1,2.4-9.5l125.8-75.5A6.9,6.9,0,0,1,284.2,149.5Z"/><path class="cls-4" d="M319,247.3,216.5,308.8A66.2,66.2,0,0,1,319,247.3Z"/><circle class="cls-4" cx="230.2" cy="215.4" r="23.3" transform="translate(-78 149.1) rotate(-31)"/><rect class="cls-5" x="280.5" y="128.8" width="190.8" height="264.22" rx="15.2" ry="15.2"/><path class="cls-4" d="M456.2,152.4v94.9a6.9,6.9,0,0,1-6.9,6.9H302.6a6.9,6.9,0,0,1-6.9-6.9V152.4a6.9,6.9,0,0,1,6.9-6.9H449.3A6.9,6.9,0,0,1,456.2,152.4Z"/><path class="cls-6" d="M435.7,254.1H316.1a66.2,66.2,0,0,1,119.6,0Z"/><circle class="cls-7" cx="375.9" cy="181.1" r="23.3"/><rect class="cls-8" x="127.1" y="269.4" width="344.2" height="201.94" rx="17.9" ry="17.9"/><circle class="cls-4" cx="419.5" cy="315.3" r="16.1"/><circle class="cls-9" cx="299.2" cy="370.4" r="74.6"/><circle class="cls-4" cx="299.2" cy="370.4" r="58.1"/><path class="cls-9" d="M188.6,252.5h56.7a8.1,8.1,0,0,1,8.1,8.1v8.8a0,0,0,0,1,0,0h-73a0,0,0,0,1,0,0v-8.8A8.1,8.1,0,0,1,188.6,252.5Z"/><rect class="cls-9" x="383" y="433.2" width="50.8" height="12.16"/><path class="cls-9" d="M145.6,269.4h34.8a0,0,0,0,1,0,0V471.3a0,0,0,0,1,0,0H145.6a18.5,18.5,0,0,1-18.5-18.5V287.9A18.5,18.5,0,0,1,145.6,269.4Z"/></g></svg>